NotoSansAnatolianHieroglyphs-Regular.ufo
<glyph name="u14400" format="2">
  <advance width="840"/>
  <unicode hex="14400"/>
  <outline>
    <contour>
      <point x="317" y="-45" type="curve" smooth="yes"/>
      <point x="374" y="-45"/>
      <point x="496" y="31"/>
      <point x="544" y="79" type="curve" smooth="yes"/>
      <point x="569" y="104"/>
      <point x="599" y="158"/>
      <point x="617" y="186" type="curve" smooth="yes"/>
      <point x="637" y="218"/>
      <point x="657" y="260"/>
      <point x="657" y="299" type="curve" smooth="yes"/>
      <point x="657" y="313"/>
      <point x="654" y="326"/>
      <point x="648" y="338" type="curve"/>
      <point x="654" y="337"/>
      <point x="661" y="337"/>
      <point x="667" y="337" type="curve" smooth="yes"/>
      <point x="739" y="337"/>
      <point x="790" y="367"/>
      <point x="790" y="432" type="curve" smooth="yes"/>
      <point x="790" y="497"/>
      <point x="751" y="483"/>
      <point x="737" y="552" type="curve"/>
      <point x="751" y="575"/>
      <point x="762" y="609"/>
      <point x="762" y="639" type="curve" smooth="yes"/>
      <point x="762" y="710"/>
      <point x="700" y="800"/>
      <point x="562" y="800" type="curve" smooth="yes"/>
      <point x="521" y="800"/>
      <point x="434" y="761"/>
      <point x="408" y="707" type="curve"/>
      <point x="412" y="703" type="line"/>
      <point x="382" y="663"/>
      <point x="306" y="589"/>
      <point x="306" y="549" type="curve" smooth="yes"/>
      <point x="306" y="530"/>
      <point x="321" y="517"/>
      <point x="362" y="517" type="curve"/>
      <point x="377" y="455"/>
      <point x="358" y="366"/>
      <point x="445" y="356" type="curve"/>
      <point x="442" y="354" type="line" smooth="yes"/>
      <point x="405" y="329"/>
      <point x="351" y="220"/>
      <point x="348" y="187" type="curve"/>
      <point x="336" y="175"/>
      <point x="322" y="166"/>
      <point x="307" y="166" type="curve" smooth="yes"/>
      <point x="267" y="166"/>
      <point x="222" y="309"/>
      <point x="202" y="337" type="curve"/>
      <point x="211" y="348"/>
      <point x="218" y="360"/>
      <point x="227" y="371" type="curve"/>
      <point x="244" y="390"/>
      <point x="290" y="397"/>
      <point x="290" y="428" type="curve" smooth="yes"/>
      <point x="290" y="454"/>
      <point x="260" y="460"/>
      <point x="235" y="464" type="curve"/>
      <point x="272" y="495"/>
      <point x="289" y="525"/>
      <point x="289" y="546" type="curve" smooth="yes"/>
      <point x="289" y="565"/>
      <point x="275" y="576"/>
      <point x="249" y="576" type="curve" smooth="yes"/>
      <point x="214" y="576"/>
      <point x="140" y="548"/>
      <point x="88" y="492" type="curve" smooth="yes"/>
      <point x="55" y="456"/>
      <point x="50" y="399"/>
      <point x="50" y="346" type="curve" smooth="yes"/>
      <point x="50" y="245"/>
      <point x="100" y="155"/>
      <point x="164" y="76" type="curve" smooth="yes"/>
      <point x="194" y="39"/>
      <point x="245" y="-45"/>
    </contour>
    <contour>
      <point x="328" y="-14" type="curve" smooth="yes"/>
      <point x="227" y="-14"/>
      <point x="170" y="120"/>
      <point x="133" y="184" type="curve" smooth="yes"/>
      <point x="102" y="237"/>
      <point x="80" y="284"/>
      <point x="80" y="342" type="curve" smooth="yes"/>
      <point x="80" y="389"/>
      <point x="84" y="438"/>
      <point x="112" y="474" type="curve" smooth="yes"/>
      <point x="145" y="517"/>
      <point x="214" y="548"/>
      <point x="246" y="548" type="curve" smooth="yes"/>
      <point x="255" y="548"/>
      <point x="261" y="545"/>
      <point x="261" y="539" type="curve" smooth="yes"/>
      <point x="261" y="528"/>
      <point x="244" y="506"/>
      <point x="197" y="472" type="curve"/>
      <point x="192" y="451" type="line"/>
      <point x="205" y="436"/>
      <point x="237" y="428"/>
      <point x="256" y="428" type="curve"/>
      <point x="233" y="414"/>
      <point x="174" y="375"/>
      <point x="174" y="333" type="curve" smooth="yes"/>
      <point x="174" y="296"/>
      <point x="258" y="135"/>
      <point x="305" y="135" type="curve" smooth="yes"/>
      <point x="344" y="135"/>
      <point x="385" y="183"/>
      <point x="407" y="205" type="curve"/>
      <point x="423" y="205"/>
      <point x="512" y="114"/>
      <point x="512" y="90" type="curve"/>
      <point x="476" y="60"/>
      <point x="436" y="36"/>
      <point x="421" y="27" type="curve" smooth="yes"/>
      <point x="396" y="12"/>
      <point x="358" y="-14"/>
    </contour>
    <contour>
      <point x="537" y="117" type="curve"/>
      <point x="523" y="145"/>
      <point x="429" y="237"/>
      <point x="403" y="237" type="curve" smooth="yes"/>
      <point x="401" y="237"/>
      <point x="390" y="229"/>
      <point x="388" y="228" type="curve"/>
      <point x="403" y="259"/>
      <point x="436" y="310"/>
      <point x="457" y="327" type="curve" smooth="yes"/>
      <point x="477" y="343"/>
      <point x="530" y="363"/>
      <point x="564" y="363" type="curve" smooth="yes"/>
      <point x="568" y="363"/>
      <point x="573" y="363"/>
      <point x="578" y="362" type="curve"/>
      <point x="587" y="356"/>
      <point x="597" y="352"/>
      <point x="606" y="348" type="curve"/>
      <point x="617" y="339"/>
      <point x="625" y="324"/>
      <point x="625" y="303" type="curve" smooth="yes"/>
      <point x="625" y="249"/>
      <point x="573" y="164"/>
    </contour>
    <contour>
      <point x="465" y="386" type="curve" smooth="yes"/>
      <point x="411" y="386"/>
      <point x="400" y="412"/>
      <point x="395" y="447" type="curve"/>
      <point x="445" y="455" type="line"/>
      <point x="446" y="482" type="line"/>
      <point x="393" y="474" type="line"/>
      <point x="389" y="525" type="line"/>
      <point x="378" y="547"/>
      <point x="352" y="541"/>
      <point x="335" y="549" type="curve"/>
      <point x="342" y="582"/>
      <point x="401" y="638"/>
      <point x="433" y="680" type="curve"/>
      <point x="539" y="562" type="line"/>
      <point x="548" y="564"/>
      <point x="562" y="569"/>
      <point x="574" y="569" type="curve" smooth="yes"/>
      <point x="588" y="569"/>
      <point x="599" y="563"/>
      <point x="599" y="541" type="curve" smooth="yes"/>
      <point x="599" y="514"/>
      <point x="526" y="497"/>
      <point x="526" y="446" type="curve" smooth="yes"/>
      <point x="526" y="432"/>
      <point x="529" y="420"/>
      <point x="533" y="409" type="curve"/>
      <point x="527" y="413" type="line"/>
      <point x="519" y="401"/>
      <point x="486" y="386"/>
    </contour>
    <contour>
      <point x="433" y="574" type="curve" smooth="yes"/>
      <point x="446" y="574"/>
      <point x="456" y="581"/>
      <point x="456" y="592" type="curve" smooth="yes"/>
      <point x="456" y="605"/>
      <point x="439" y="620"/>
      <point x="418" y="620" type="curve" smooth="yes"/>
      <point x="406" y="620"/>
      <point x="397" y="615"/>
      <point x="395" y="607" type="curve"/>
      <point x="394" y="605"/>
      <point x="394" y="604"/>
      <point x="394" y="602" type="curve" smooth="yes"/>
      <point x="394" y="589"/>
      <point x="411" y="574"/>
    </contour>
    <contour>
      <point x="668" y="367" type="curve" smooth="yes"/>
      <point x="620" y="367"/>
      <point x="556" y="393"/>
      <point x="556" y="441" type="curve" smooth="yes"/>
      <point x="556" y="488"/>
      <point x="630" y="501"/>
      <point x="630" y="539" type="curve" smooth="yes"/>
      <point x="630" y="576"/>
      <point x="611" y="595"/>
      <point x="580" y="595" type="curve" smooth="yes"/>
      <point x="572" y="595"/>
      <point x="562" y="594"/>
      <point x="552" y="591" type="curve"/>
      <point x="537" y="622"/>
      <point x="464" y="683"/>
      <point x="449" y="706" type="curve"/>
      <point x="448" y="706" type="line"/>
      <point x="446" y="711" type="line"/>
      <point x="479" y="747"/>
      <point x="527" y="770"/>
      <point x="570" y="770" type="curve" smooth="yes"/>
      <point x="676" y="770"/>
      <point x="730" y="694"/>
      <point x="730" y="638" type="curve" smooth="yes"/>
      <point x="730" y="615"/>
      <point x="720" y="566"/>
      <point x="706" y="551" type="curve"/>
      <point x="709" y="494"/>
      <point x="756" y="480"/>
      <point x="756" y="438" type="curve" smooth="yes"/>
      <point x="756" y="408"/>
      <point x="748" y="367"/>
    </contour>
  </outline>
</glyph>
<glyph name="u14401" format="2">
  <advance width="740"/>
  <unicode hex="14401"/>
  <outline>
    <contour>
      <point x="208" y="0" type="curve" smooth="yes"/>
      <point x="348" y="0" type="line"/>
      <point x="357" y="14" type="line"/>
      <point x="363" y="120" type="line"/>
      <point x="491" y="120" type="line"/>
      <point x="487" y="92"/>
      <point x="474" y="80"/>
      <point x="445" y="71" type="curve" smooth="yes"/>
      <point x="419" y="63" type="line" smooth="yes"/>
      <point x="394" y="55"/>
      <point x="383" y="40"/>
      <point x="383" y="27" type="curve" smooth="yes"/>
      <point x="383" y="13"/>
      <point x="396" y="0"/>
      <point x="421" y="0" type="curve" smooth="yes"/>
      <point x="548" y="0" type="line"/>
      <point x="557" y="14" type="line"/>
      <point x="563" y="120" type="line"/>
      <point x="610" y="120" type="line" smooth="yes"/>
      <point x="635" y="120"/>
      <point x="642" y="129"/>
      <point x="642" y="141" type="curve" smooth="yes"/>
      <point x="642" y="151"/>
      <point x="637" y="163"/>
      <point x="634" y="174" type="curve" smooth="yes"/>
      <point x="506" y="599" type="line"/>
      <point x="612" y="575" type="line" smooth="yes"/>
      <point x="627" y="572"/>
      <point x="639" y="568"/>
      <point x="649" y="568" type="curve" smooth="yes"/>
      <point x="669" y="568"/>
      <point x="690" y="582"/>
      <point x="690" y="614" type="curve" smooth="yes"/>
      <point x="690" y="652"/>
      <point x="681" y="677"/>
      <point x="576" y="808" type="curve"/>
      <point x="603" y="819"/>
      <point x="626" y="837"/>
      <point x="626" y="864" type="curve" smooth="yes"/>
      <point x="626" y="913"/>
      <point x="568" y="914"/>
      <point x="555" y="945" type="curve"/>
      <point x="563" y="961"/>
      <point x="572" y="986"/>
      <point x="572" y="1006" type="curve" smooth="yes"/>
      <point x="572" y="1057"/>
      <point x="528" y="1120"/>
      <point x="442" y="1120" type="curve" smooth="yes"/>
      <point x="403" y="1120"/>
      <point x="341" y="1093"/>
      <point x="322" y="1055" type="curve"/>
      <point x="324" y="1052" type="line"/>
      <point x="302" y="1027"/>
      <point x="253" y="969"/>
      <point x="253" y="944" type="curve" smooth="yes"/>
      <point x="253" y="929"/>
      <point x="264" y="919"/>
      <point x="290" y="919" type="curve"/>
      <point x="305" y="874"/>
      <point x="281" y="808"/>
      <point x="362" y="808" type="curve" smooth="yes"/>
      <point x="366" y="808" type="line"/>
      <point x="344" y="790"/>
      <point x="297" y="802"/>
      <point x="271" y="782" type="curve" smooth="yes"/>
      <point x="249" y="765"/>
      <point x="208" y="709"/>
      <point x="188" y="696" type="curve"/>
      <point x="177" y="720"/>
      <point x="160" y="751"/>
      <point x="159" y="779" type="curve"/>
      <point x="181" y="795"/>
      <point x="243" y="824"/>
      <point x="243" y="843" type="curve" smooth="yes"/>
      <point x="243" y="851"/>
      <point x="229" y="859"/>
      <point x="209" y="862" type="curve"/>
      <point x="219" y="875"/>
      <point x="227" y="891"/>
      <point x="227" y="906" type="curve" smooth="yes"/>
      <point x="227" y="918"/>
      <point x="219" y="942"/>
      <point x="196" y="942" type="curve" smooth="yes"/>
      <point x="168" y="942"/>
      <point x="118" y="913"/>
      <point x="51" y="826" type="curve"/>
      <point x="51" y="737"/>
      <point x="62" y="649"/>
      <point x="136" y="565" type="curve"/>
      <point x="141" y="564"/>
      <point x="146" y="563"/>
      <point x="150" y="561" type="curve"/>
      <point x="194" y="577"/>
      <point x="254" y="606"/>
      <point x="291" y="643" type="curve"/>
      <point x="316" y="540" type="line"/>
      <point x="197" y="166" type="line"/>
      <point x="194" y="158"/>
      <point x="192" y="149"/>
      <point x="192" y="142" type="curve" smooth="yes"/>
      <point x="192" y="130"/>
      <point x="199" y="120"/>
      <point x="223" y="120" type="curve" smooth="yes"/>
      <point x="291" y="120" type="line"/>
      <point x="287" y="93"/>
      <point x="273" y="82"/>
      <point x="245" y="71" type="curve" smooth="yes"/>
      <point x="205" y="56" type="line" smooth="yes"/>
      <point x="190" y="50"/>
      <point x="183" y="37"/>
      <point x="183" y="25" type="curve" smooth="yes"/>
      <point x="183" y="12"/>
      <point x="191" y="0"/>
    </contour>
    <contour>
      <point x="213" y="26" type="line"/>
      <point x="213" y="38" type="line"/>
      <point x="256" y="52" type="line" smooth="yes"/>
      <point x="288" y="62"/>
      <point x="311" y="74"/>
      <point x="314" y="120" type="curve"/>
      <point x="338" y="120" type="line"/>
      <point x="333" y="26" type="line"/>
    </contour>
    <contour>
      <point x="413" y="26" type="line"/>
      <point x="413" y="38" type="line"/>
      <point x="461" y="54" type="line" smooth="yes"/>
      <point x="500" y="67"/>
      <point x="511" y="83"/>
      <point x="514" y="120" type="curve"/>
      <point x="538" y="120" type="line"/>
      <point x="533" y="26" type="line"/>
    </contour>
    <contour>
      <point x="219" y="145" type="line"/>
      <point x="342" y="529" type="line"/>
      <point x="501" y="529" type="line"/>
      <point x="614" y="145" type="line"/>
    </contour>
    <contour>
      <point x="340" y="554" type="line"/>
      <point x="308" y="682" type="line"/>
      <point x="293" y="685" type="line"/>
      <point x="271" y="644"/>
      <point x="197" y="605"/>
      <point x="148" y="588" type="curve"/>
      <point x="89" y="675"/>
      <point x="82" y="738"/>
      <point x="75" y="824" type="curve"/>
      <point x="99" y="854"/>
      <point x="154" y="915"/>
      <point x="191" y="915" type="curve" smooth="yes"/>
      <point x="199" y="915"/>
      <point x="202" y="911"/>
      <point x="202" y="900" type="curve" smooth="yes"/>
      <point x="202" y="885"/>
      <point x="179" y="863"/>
      <point x="168" y="853" type="curve"/>
      <point x="172" y="844" type="line"/>
      <point x="184" y="843"/>
      <point x="204" y="840"/>
      <point x="215" y="840" type="curve"/>
      <point x="206" y="831"/>
      <point x="133" y="807"/>
      <point x="133" y="781" type="curve" smooth="yes"/>
      <point x="133" y="744"/>
      <point x="169" y="662"/>
      <point x="184" y="662" type="curve"/>
      <point x="236" y="701"/>
      <point x="267" y="751"/>
      <point x="285" y="762" type="curve" smooth="yes"/>
      <point x="327" y="788"/>
      <point x="380" y="766"/>
      <point x="398" y="817" type="curve"/>
      <point x="407" y="820"/>
      <point x="415" y="825"/>
      <point x="420" y="830" type="curve"/>
      <point x="442" y="806"/>
      <point x="482" y="796"/>
      <point x="514" y="796" type="curve" smooth="yes"/>
      <point x="524" y="796"/>
      <point x="536" y="797"/>
      <point x="549" y="800" type="curve"/>
      <point x="644" y="690"/>
      <point x="663" y="664"/>
      <point x="663" y="618" type="curve" smooth="yes"/>
      <point x="663" y="601"/>
      <point x="655" y="596"/>
      <point x="640" y="596" type="curve" smooth="yes"/>
      <point x="632" y="596"/>
      <point x="622" y="598"/>
      <point x="612" y="600" type="curve" smooth="yes"/>
      <point x="473" y="632" type="line"/>
      <point x="440" y="632"/>
      <point x="422" y="621"/>
      <point x="389" y="621" type="curve" smooth="yes"/>
      <point x="363" y="621"/>
      <point x="360" y="643"/>
      <point x="360" y="657" type="curve" smooth="yes"/>
      <point x="360" y="682"/>
      <point x="364" y="692"/>
      <point x="396" y="692" type="curve" smooth="yes"/>
      <point x="445" y="692"/>
      <point x="506" y="651"/>
      <point x="553" y="645" type="curve"/>
      <point x="577" y="668" type="line"/>
      <point x="511" y="763" type="line"/>
      <point x="487" y="758" type="line"/>
      <point x="542" y="671" type="line"/>
      <point x="496" y="678"/>
      <point x="445" y="717"/>
      <point x="397" y="717" type="curve" smooth="yes"/>
      <point x="356" y="717"/>
      <point x="335" y="691"/>
      <point x="335" y="653" type="curve" smooth="yes"/>
      <point x="335" y="634"/>
      <point x="347" y="593"/>
      <point x="378" y="593" type="curve" smooth="yes"/>
      <point x="409" y="593"/>
      <point x="447" y="606"/>
      <point x="478" y="606" type="curve"/>
      <point x="483" y="605" type="line"/>
      <point x="495" y="554" type="line"/>
    </contour>
    <contour>
      <point x="364" y="834" type="curve" smooth="yes"/>
      <point x="328" y="834"/>
      <point x="320" y="850"/>
      <point x="318" y="871" type="curve"/>
      <point x="352" y="879" type="line"/>
      <point x="353" y="899" type="line"/>
      <point x="319" y="893" type="line"/>
      <point x="319" y="957"/>
      <point x="295" y="940"/>
      <point x="275" y="945" type="curve"/>
      <point x="280" y="965"/>
      <point x="321" y="1010"/>
      <point x="341" y="1034" type="curve"/>
      <point x="415" y="950" type="line"/>
      <point x="421" y="950"/>
      <point x="431" y="956"/>
      <point x="439" y="956" type="curve" smooth="yes"/>
      <point x="448" y="956"/>
      <point x="455" y="951"/>
      <point x="455" y="938" type="curve" smooth="yes"/>
      <point x="455" y="920"/>
      <point x="404" y="910"/>
      <point x="404" y="873" type="curve" smooth="yes"/>
      <point x="404" y="865"/>
      <point x="405" y="858"/>
      <point x="407" y="852" type="curve"/>
      <point x="397" y="844"/>
      <point x="378" y="834"/>
    </contour>
    <contour>
      <point x="341" y="960" type="curve" smooth="yes"/>
      <point x="352" y="960"/>
      <point x="359" y="965"/>
      <point x="359" y="974" type="curve" smooth="yes"/>
      <point x="359" y="984"/>
      <point x="347" y="996"/>
      <point x="331" y="996" type="curve" smooth="yes"/>
      <point x="321" y="996"/>
      <point x="313" y="989"/>
      <point x="313" y="981" type="curve" smooth="yes"/>
      <point x="313" y="972"/>
      <point x="326" y="960"/>
    </contour>
    <contour>
      <point x="513" y="820" type="curve" smooth="yes"/>
      <point x="499" y="820"/>
      <point x="429" y="830"/>
      <point x="429" y="869" type="curve" smooth="yes"/>
      <point x="429" y="900"/>
      <point x="480" y="908"/>
      <point x="480" y="937" type="curve" smooth="yes"/>
      <point x="480" y="964"/>
      <point x="466" y="978"/>
      <point x="444" y="978" type="curve" smooth="yes"/>
      <point x="439" y="978"/>
      <point x="431" y="977"/>
      <point x="426" y="976" type="curve"/>
      <point x="415" y="993"/>
      <point x="355" y="1046"/>
      <point x="353" y="1057" type="curve"/>
      <point x="375" y="1077"/>
      <point x="407" y="1094"/>
      <point x="436" y="1094" type="curve" smooth="yes"/>
      <point x="509" y="1094"/>
      <point x="545" y="1044"/>
      <point x="545" y="1006" type="curve" smooth="yes"/>
      <point x="545" y="990"/>
      <point x="532" y="960"/>
      <point x="527" y="945" type="curve"/>
      <point x="538" y="899"/>
      <point x="598" y="894"/>
      <point x="598" y="867" type="curve" smooth="yes"/>
      <point x="598" y="848"/>
      <point x="568" y="820"/>
    </contour>
  </outline>
</glyph>
<glyph name="u14402" format="2">
  <advance width="767"/>
  <unicode hex="14402"/>
  <outline>
    <contour>
      <point x="117" y="0" type="curve" smooth="yes"/>
      <point x="239" y="0" type="line" smooth="yes"/>
      <point x="302" y="0"/>
      <point x="297" y="47"/>
      <point x="313" y="82" type="curve" smooth="yes"/>
      <point x="324" y="106"/>
      <point x="370" y="142"/>
      <point x="379" y="166" type="curve" smooth="yes"/>
      <point x="397" y="215" type="line" smooth="yes"/>
      <point x="404" y="233"/>
      <point x="407" y="255"/>
      <point x="411" y="255" type="curve" smooth="yes"/>
      <point x="414" y="255"/>
      <point x="449" y="182"/>
      <point x="458" y="166" type="curve" smooth="yes"/>
      <point x="496" y="94" type="line"/>
      <point x="454" y="76"/>
      <point x="421" y="77"/>
      <point x="421" y="39" type="curve" smooth="yes"/>
      <point x="421" y="9"/>
      <point x="448" y="0"/>
      <point x="504" y="0" type="curve" smooth="yes"/>
      <point x="599" y="0" type="line" smooth="yes"/>
      <point x="646" y="0"/>
      <point x="659" y="23"/>
      <point x="659" y="51" type="curve" smooth="yes"/>
      <point x="659" y="86"/>
      <point x="628" y="120"/>
      <point x="608" y="168" type="curve" smooth="yes"/>
      <point x="582" y="230"/>
      <point x="568" y="329"/>
      <point x="568" y="397" type="curve" smooth="yes"/>
      <point x="568" y="453"/>
      <point x="575" y="497"/>
      <point x="575" y="548" type="curve" smooth="yes"/>
      <point x="575" y="557"/>
      <point x="572" y="583"/>
      <point x="569" y="599" type="curve"/>
      <point x="580" y="602"/>
      <point x="591" y="604"/>
      <point x="603" y="604" type="curve" smooth="yes"/>
      <point x="690" y="604"/>
      <point x="717" y="632"/>
      <point x="717" y="669" type="curve" smooth="yes"/>
      <point x="717" y="705"/>
      <point x="687" y="733"/>
      <point x="678" y="775" type="curve" smooth="yes"/>
      <point x="671" y="807"/>
      <point x="670" y="838"/>
      <point x="650" y="866" type="curve" smooth="yes"/>
      <point x="623" y="903"/>
      <point x="553" y="863"/>
      <point x="553" y="907" type="curve" smooth="yes"/>
      <point x="553" y="949"/>
      <point x="570" y="944"/>
      <point x="570" y="1027" type="curve" smooth="yes"/>
      <point x="570" y="1068"/>
      <point x="545" y="1120"/>
      <point x="462" y="1120" type="curve" smooth="yes"/>
      <point x="422" y="1120"/>
      <point x="393" y="1101"/>
      <point x="373" y="1059" type="curve" smooth="yes"/>
      <point x="363" y="1038"/>
      <point x="326" y="1010"/>
      <point x="326" y="989" type="curve" smooth="yes"/>
      <point x="326" y="975"/>
      <point x="358" y="972"/>
      <point x="362" y="962" type="curve" smooth="yes"/>
      <point x="365" y="954"/>
      <point x="377" y="931"/>
      <point x="378" y="926" type="curve" smooth="yes"/>
      <point x="384" y="898"/>
      <point x="403" y="910"/>
      <point x="403" y="891" type="curve" smooth="yes"/>
      <point x="403" y="867"/>
      <point x="398" y="863"/>
      <point x="392" y="863" type="curve" smooth="yes"/>
      <point x="389" y="863"/>
      <point x="352" y="867"/>
      <point x="328" y="867" type="curve" smooth="yes"/>
      <point x="252" y="867"/>
      <point x="238" y="748"/>
      <point x="204" y="748" type="curve" smooth="yes"/>
      <point x="185" y="748"/>
      <point x="179" y="787"/>
      <point x="179" y="801" type="curve" smooth="yes"/>
      <point x="179" y="828"/>
      <point x="201" y="861"/>
      <point x="201" y="901" type="curve" smooth="yes"/>
      <point x="201" y="920"/>
      <point x="194" y="940"/>
      <point x="184" y="957" type="curve"/>
      <point x="184" y="1052" type="line"/>
      <point x="108" y="1052" type="line"/>
      <point x="108" y="970" type="line"/>
      <point x="104" y="963"/>
      <point x="100" y="954"/>
      <point x="98" y="943" type="curve" smooth="yes"/>
      <point x="94" y="921"/>
      <point x="99" y="928"/>
      <point x="91" y="906" type="curve"/>
      <point x="79" y="892"/>
      <point x="50" y="892"/>
      <point x="50" y="867" type="curve" smooth="yes"/>
      <point x="50" y="835"/>
      <point x="106" y="814"/>
      <point x="106" y="796" type="curve" smooth="yes"/>
      <point x="106" y="766"/>
      <point x="97" y="741"/>
      <point x="97" y="710" type="curve" smooth="yes"/>
      <point x="97" y="694"/>
      <point x="101" y="681"/>
      <point x="108" y="669" type="curve"/>
      <point x="108" y="84" type="line"/>
      <point x="81" y="80"/>
      <point x="58" y="65"/>
      <point x="58" y="45" type="curve" smooth="yes"/>
      <point x="58" y="5"/>
      <point x="85" y="0"/>
    </contour>
    <contour>
      <point x="158" y="81" type="line"/>
      <point x="150" y="83"/>
      <point x="142" y="85"/>
      <point x="134" y="86" type="curve"/>
      <point x="134" y="644" type="line"/>
      <point x="141" y="639"/>
      <point x="150" y="636"/>
      <point x="158" y="634" type="curve"/>
    </contour>
    <contour>
      <point x="184" y="82" type="curve"/>
      <point x="184" y="630" type="line"/>
      <point x="212" y="630"/>
      <point x="244" y="642"/>
      <point x="272" y="658" type="curve"/>
      <point x="273" y="585"/>
      <point x="287" y="493"/>
      <point x="287" y="414" type="curve" smooth="yes"/>
      <point x="287" y="332"/>
      <point x="258" y="276"/>
      <point x="233" y="208" type="curve" smooth="yes"/>
      <point x="224" y="183"/>
      <point x="211" y="99"/>
    </contour>
    <contour>
      <point x="555" y="136" type="curve"/>
      <point x="575" y="153" type="line"/>
      <point x="563" y="168"/>
      <point x="538" y="196"/>
      <point x="538" y="217" type="curve"/>
      <point x="537" y="282"/>
      <point x="488" y="332"/>
      <point x="488" y="375" type="curve" smooth="yes"/>
      <point x="488" y="405"/>
      <point x="495" y="423"/>
      <point x="495" y="452" type="curve" smooth="yes"/>
      <point x="495" y="510"/>
      <point x="467" y="523"/>
      <point x="462" y="564" type="curve"/>
      <point x="438" y="552" type="line"/>
      <point x="442" y="516"/>
      <point x="469" y="488"/>
      <point x="469" y="448" type="curve" smooth="yes"/>
      <point x="469" y="420"/>
      <point x="462" y="403"/>
      <point x="462" y="375" type="curve" smooth="yes"/>
      <point x="462" y="328"/>
      <point x="516" y="263"/>
      <point x="516" y="204" type="curve" smooth="yes"/>
      <point x="516" y="180"/>
      <point x="542" y="154"/>
    </contour>
    <contour>
      <point x="458" y="265" type="curve"/>
      <point x="478" y="282" type="line"/>
      <point x="466" y="297"/>
      <point x="451" y="364"/>
      <point x="441" y="382" type="curve" smooth="yes"/>
      <point x="422" y="416"/>
      <point x="385" y="436"/>
      <point x="385" y="479" type="curve" smooth="yes"/>
      <point x="385" y="509"/>
      <point x="392" y="527"/>
      <point x="392" y="556" type="curve" smooth="yes"/>
      <point x="392" y="614"/>
      <point x="364" y="627"/>
      <point x="359" y="668" type="curve"/>
      <point x="335" y="656" type="line"/>
      <point x="339" y="620"/>
      <point x="366" y="592"/>
      <point x="366" y="552" type="curve" smooth="yes"/>
      <point x="366" y="524"/>
      <point x="359" y="507"/>
      <point x="359" y="479" type="curve" smooth="yes"/>
      <point x="359" y="432"/>
      <point x="398" y="409"/>
      <point x="418" y="371" type="curve" smooth="yes"/>
      <point x="429" y="350"/>
      <point x="445" y="283"/>
    </contour>
    <contour>
      <point x="117" y="26" type="line" smooth="yes"/>
      <point x="99" y="26"/>
      <point x="83" y="26"/>
      <point x="83" y="42" type="curve" smooth="yes"/>
      <point x="83" y="49"/>
      <point x="102" y="61"/>
      <point x="121" y="61" type="curve" smooth="yes"/>
      <point x="138" y="61"/>
      <point x="157" y="52"/>
      <point x="180" y="52" type="curve" smooth="yes"/>
      <point x="236" y="52"/>
      <point x="239" y="155"/>
      <point x="256" y="197" type="curve" smooth="yes"/>
      <point x="286" y="271"/>
      <point x="312" y="332"/>
      <point x="312" y="414" type="curve" smooth="yes"/>
      <point x="312" y="496"/>
      <point x="299" y="609"/>
      <point x="298" y="675" type="curve"/>
      <point x="318" y="689"/>
      <point x="336" y="704"/>
      <point x="348" y="717" type="curve"/>
      <point x="333" y="735" type="line"/>
      <point x="297" y="703"/>
      <point x="230" y="656"/>
      <point x="186" y="656" type="curve" smooth="yes"/>
      <point x="171" y="656"/>
      <point x="124" y="680"/>
      <point x="124" y="698" type="curve" smooth="yes"/>
      <point x="124" y="724"/>
      <point x="132" y="769"/>
      <point x="132" y="796" type="curve" smooth="yes"/>
      <point x="132" y="832"/>
      <point x="78" y="838"/>
      <point x="78" y="868" type="curve"/>
      <point x="89" y="877"/>
      <point x="106" y="879"/>
      <point x="114" y="892" type="curve" smooth="yes"/>
      <point x="128" y="916"/>
      <point x="108" y="962"/>
      <point x="145" y="962" type="curve"/>
      <point x="168" y="937"/>
      <point x="176" y="918"/>
      <point x="176" y="895" type="curve" smooth="yes"/>
      <point x="176" y="857"/>
      <point x="153" y="831"/>
      <point x="153" y="799" type="curve" smooth="yes"/>
      <point x="153" y="778"/>
      <point x="171" y="722"/>
      <point x="204" y="722" type="curve" smooth="yes"/>
      <point x="259" y="722"/>
      <point x="268" y="841"/>
      <point x="328" y="841" type="curve" smooth="yes"/>
      <point x="340" y="841"/>
      <point x="370" y="839"/>
      <point x="381" y="839" type="curve" smooth="yes"/>
      <point x="416" y="839"/>
      <point x="429" y="853"/>
      <point x="429" y="892" type="curve" smooth="yes"/>
      <point x="429" y="909"/>
      <point x="415" y="914"/>
      <point x="403" y="926" type="curve"/>
      <point x="393" y="993"/>
      <point x="383" y="969"/>
      <point x="353" y="994" type="curve"/>
      <point x="365" y="1007"/>
      <point x="389" y="1042"/>
      <point x="398" y="1057" type="curve" smooth="yes"/>
      <point x="413" y="1083"/>
      <point x="441" y="1094"/>
      <point x="465" y="1094" type="curve" smooth="yes"/>
      <point x="518" y="1094"/>
      <point x="546" y="1058"/>
      <point x="546" y="1025" type="curve" smooth="yes"/>
      <point x="546" y="945"/>
      <point x="525" y="946"/>
      <point x="525" y="909" type="curve" smooth="yes"/>
      <point x="525" y="835"/>
      <point x="613" y="872"/>
      <point x="630" y="851" type="curve" smooth="yes"/>
      <point x="652" y="824"/>
      <point x="647" y="795"/>
      <point x="654" y="766" type="curve" smooth="yes"/>
      <point x="665" y="719"/>
      <point x="693" y="714"/>
      <point x="693" y="675" type="curve" smooth="yes"/>
      <point x="693" y="636"/>
      <point x="646" y="627"/>
      <point x="606" y="627" type="curve" smooth="yes"/>
      <point x="577" y="627"/>
      <point x="553" y="615"/>
      <point x="529" y="615" type="curve" smooth="yes"/>
      <point x="514" y="615"/>
      <point x="481" y="595"/>
      <point x="463" y="595" type="curve" smooth="yes"/>
      <point x="445" y="595"/>
      <point x="452" y="643"/>
      <point x="441" y="663" type="curve" smooth="yes"/>
      <point x="434" y="676"/>
      <point x="399" y="700"/>
      <point x="399" y="708" type="curve" smooth="yes"/>
      <point x="399" y="715"/>
      <point x="402" y="719"/>
      <point x="406" y="719" type="curve" smooth="yes"/>
      <point x="449" y="719"/>
      <point x="464" y="658"/>
      <point x="501" y="658" type="curve" smooth="yes"/>
      <point x="528" y="658"/>
      <point x="613" y="677"/>
      <point x="613" y="704" type="curve" smooth="yes"/>
      <point x="613" y="728"/>
      <point x="584" y="770"/>
      <point x="566" y="791" type="curve"/>
      <point x="535" y="785" type="line"/>
      <point x="535" y="763"/>
      <point x="536" y="714"/>
      <point x="540" y="688" type="curve"/>
      <point x="529" y="686"/>
      <point x="515" y="683"/>
      <point x="498" y="682" type="curve"/>
      <point x="472" y="705"/>
      <point x="444" y="742"/>
      <point x="410" y="742" type="curve" smooth="yes"/>
      <point x="397" y="742"/>
      <point x="372" y="734"/>
      <point x="372" y="712" type="curve" smooth="yes"/>
      <point x="372" y="686"/>
      <point x="408" y="673"/>
      <point x="418" y="651" type="curve" smooth="yes"/>
      <point x="428" y="628"/>
      <point x="418" y="570"/>
      <point x="458" y="570" type="curve" smooth="yes"/>
      <point x="476" y="570"/>
      <point x="509" y="589"/>
      <point x="535" y="592" type="curve" smooth="yes"/>
      <point x="544" y="593" type="line"/>
      <point x="547" y="578"/>
      <point x="550" y="552"/>
      <point x="550" y="544" type="curve" smooth="yes"/>
      <point x="550" y="499"/>
      <point x="540" y="461"/>
      <point x="540" y="393" type="curve" smooth="yes"/>
      <point x="540" y="305"/>
      <point x="555" y="225"/>
      <point x="592" y="145" type="curve" smooth="yes"/>
      <point x="604" y="119"/>
      <point x="634" y="79"/>
      <point x="634" y="51" type="curve" smooth="yes"/>
      <point x="634" y="38"/>
      <point x="629" y="26"/>
      <point x="585" y="26" type="curve" smooth="yes"/>
      <point x="511" y="26" type="line" smooth="yes"/>
      <point x="458" y="26"/>
      <point x="447" y="28"/>
      <point x="447" y="42" type="curve" smooth="yes"/>
      <point x="447" y="56"/>
      <point x="498" y="62"/>
      <point x="518" y="69" type="curve"/>
      <point x="529" y="85" type="line"/>
      <point x="440" y="259" type="line" smooth="yes"/>
      <point x="429" y="281"/>
      <point x="422" y="287"/>
      <point x="411" y="287" type="curve" smooth="yes"/>
      <point x="403" y="287"/>
      <point x="393" y="282"/>
      <point x="384" y="257" type="curve" smooth="yes"/>
      <point x="359" y="191" type="line" smooth="yes"/>
      <point x="339" y="137"/>
      <point x="310" y="139"/>
      <point x="290" y="92" type="curve" smooth="yes"/>
      <point x="280" y="68"/>
      <point x="275" y="26"/>
      <point x="242" y="26" type="curve" smooth="yes"/>
    </contour>
    <contour>
      <point x="158" y="983" type="line"/>
      <point x="152" y="987"/>
      <point x="145" y="989"/>
      <point x="138" y="989" type="curve" smooth="yes"/>
      <point x="134" y="989" type="line"/>
      <point x="134" y="1026" type="line"/>
      <point x="158" y="1026" type="line"/>
    </contour>
    <contour>
      <point x="562" y="696" type="curve"/>
      <point x="560" y="713"/>
      <point x="559" y="739"/>
      <point x="559" y="761" type="curve"/>
      <point x="571" y="746"/>
      <point x="581" y="728"/>
      <point x="588" y="708" type="curve"/>
      <point x="582" y="705"/>
      <point x="574" y="701"/>
    </contour>
  </outline>
</glyph>
<glyph name="u14403" format="2">
  <advance width="787"/>
  <unicode hex="14403"/>
  <outline>
    <contour>
      <point x="253" y="0" type="curve" smooth="yes"/>
      <point x="393" y="0" type="line"/>
      <point x="402" y="14" type="line"/>
      <point x="408" y="111" type="line"/>
      <point x="421" y="111"/>
      <point x="442" y="110"/>
      <point x="455" y="107" type="curve"/>
      <point x="457" y="107" type="line" smooth="yes"/>
      <point x="458" y="107"/>
      <point x="459" y="107"/>
      <point x="461" y="106" type="curve"/>
      <point x="463" y="108" type="line"/>
      <point x="477" y="109"/>
      <point x="499" y="111"/>
      <point x="517" y="111" type="curve" smooth="yes"/>
      <point x="534" y="111" type="line"/>
      <point x="529" y="89"/>
      <point x="516" y="79"/>
      <point x="490" y="71" type="curve" smooth="yes"/>
      <point x="464" y="63" type="line" smooth="yes"/>
      <point x="439" y="55"/>
      <point x="428" y="40"/>
      <point x="428" y="27" type="curve" smooth="yes"/>
      <point x="428" y="13"/>
      <point x="441" y="0"/>
      <point x="466" y="0" type="curve" smooth="yes"/>
      <point x="593" y="0" type="line"/>
      <point x="602" y="14" type="line"/>
      <point x="608" y="110" type="line"/>
      <point x="616" y="111"/>
      <point x="624" y="111"/>
      <point x="631" y="111" type="curve" smooth="yes"/>
      <point x="644" y="111"/>
      <point x="678" y="110"/>
      <point x="690" y="106" type="curve"/>
      <point x="696" y="111"/>
      <point x="701" y="116"/>
      <point x="707" y="120" type="curve"/>
      <point x="707" y="176"/>
      <point x="686" y="226"/>
      <point x="645" y="231" type="curve"/>
      <point x="642" y="278"/>
      <point x="624" y="312"/>
      <point x="590" y="320" type="curve"/>
      <point x="589" y="354"/>
      <point x="580" y="382"/>
      <point x="563" y="398" type="curve"/>
      <point x="561" y="435"/>
      <point x="559" y="516"/>
      <point x="559" y="541" type="curve" smooth="yes"/>
      <point x="559" y="624"/>
      <point x="737" y="612"/>
      <point x="737" y="694" type="curve" smooth="yes"/>
      <point x="737" y="735"/>
      <point x="693" y="829"/>
      <point x="693" y="865" type="curve" smooth="yes"/>
      <point x="693" y="880"/>
      <point x="723" y="899"/>
      <point x="723" y="923" type="curve" smooth="yes"/>
      <point x="723" y="938"/>
      <point x="711" y="962"/>
      <point x="675" y="962" type="curve" smooth="yes"/>
      <point x="639" y="962"/>
      <point x="600" y="926"/>
      <point x="600" y="886" type="curve" smooth="yes"/>
      <point x="600" y="846"/>
      <point x="641" y="786"/>
      <point x="641" y="728" type="curve"/>
      <point x="622" y="709"/>
      <point x="576" y="710"/>
      <point x="536" y="693" type="curve"/>
      <point x="528" y="703"/>
      <point x="525" y="740"/>
      <point x="525" y="758" type="curve" smooth="yes"/>
      <point x="525" y="791"/>
      <point x="550" y="815"/>
      <point x="554" y="851" type="curve"/>
      <point x="555" y="851" type="line"/>
      <point x="556" y="857"/>
      <point x="556" y="863"/>
      <point x="556" y="870" type="curve"/>
      <point x="565" y="932"/>
      <point x="584" y="1031"/>
      <point x="584" y="1111" type="curve" smooth="yes"/>
      <point x="584" y="1130"/>
      <point x="582" y="1148"/>
      <point x="569" y="1148" type="curve" smooth="yes"/>
      <point x="544" y="1148"/>
      <point x="506" y="1073"/>
      <point x="495" y="1060" type="curve" smooth="yes"/>
      <point x="481" y="1044"/>
      <point x="467" y="1027"/>
      <point x="452" y="1012" type="curve"/>
      <point x="438" y="1010"/>
      <point x="424" y="1008"/>
      <point x="422" y="1024" type="curve"/>
      <point x="396" y="1019" type="line"/>
      <point x="400" y="999"/>
      <point x="411" y="991"/>
      <point x="426" y="988" type="curve"/>
      <point x="419" y="981"/>
      <point x="411" y="975"/>
      <point x="404" y="969" type="curve"/>
      <point x="404" y="971" type="line"/>
      <point x="392" y="972"/>
      <point x="379" y="976"/>
      <point x="378" y="990" type="curve"/>
      <point x="352" y="985" type="line"/>
      <point x="355" y="968"/>
      <point x="366" y="957"/>
      <point x="380" y="951" type="curve"/>
      <point x="368" y="942"/>
      <point x="354" y="933"/>
      <point x="343" y="926" type="curve"/>
      <point x="332" y="933"/>
      <point x="325" y="940"/>
      <point x="322" y="949" type="curve"/>
      <point x="306" y="933" type="line"/>
      <point x="306" y="917"/>
      <point x="324" y="904"/>
      <point x="351" y="893" type="curve"/>
      <point x="340" y="864"/>
      <point x="307" y="819"/>
      <point x="307" y="802" type="curve" smooth="yes"/>
      <point x="307" y="792"/>
      <point x="318" y="792"/>
      <point x="320" y="791" type="curve"/>
      <point x="329" y="788"/>
      <point x="346" y="793"/>
      <point x="346" y="780" type="curve" smooth="yes"/>
      <point x="346" y="772"/>
      <point x="340" y="756"/>
      <point x="340" y="747" type="curve" smooth="yes"/>
      <point x="340" y="732"/>
      <point x="345" y="728"/>
      <point x="361" y="722" type="curve" smooth="yes"/>
      <point x="383" y="714"/>
      <point x="413" y="710"/>
      <point x="413" y="683" type="curve"/>
      <point x="334" y="678"/>
      <point x="333" y="656"/>
      <point x="269" y="592" type="curve"/>
      <point x="238" y="602"/>
      <point x="181" y="654"/>
      <point x="136" y="693" type="curve" smooth="yes"/>
      <point x="121" y="706"/>
      <point x="133" y="744"/>
      <point x="88" y="744" type="curve" smooth="yes"/>
      <point x="62" y="744"/>
      <point x="50" y="717"/>
      <point x="50" y="690" type="curve" smooth="yes"/>
      <point x="50" y="606"/>
      <point x="123" y="616"/>
      <point x="156" y="588" type="curve" smooth="yes"/>
      <point x="182" y="566"/>
      <point x="237" y="485"/>
      <point x="266" y="485" type="curve" smooth="yes"/>
      <point x="274" y="485"/>
      <point x="337" y="522"/>
      <point x="360" y="538" type="curve"/>
      <point x="368" y="509"/>
      <point x="369" y="431"/>
      <point x="369" y="400" type="curve"/>
      <point x="352" y="386"/>
      <point x="339" y="360"/>
      <point x="335" y="324" type="curve"/>
      <point x="335" y="320" type="line"/>
      <point x="305" y="314"/>
      <point x="281" y="283"/>
      <point x="275" y="231" type="curve"/>
      <point x="275" y="227" type="line"/>
      <point x="249" y="215"/>
      <point x="229" y="179"/>
      <point x="223" y="131" type="curve"/>
      <point x="225" y="107" type="line"/>
      <point x="235" y="108"/>
      <point x="265" y="111"/>
      <point x="287" y="111" type="curve" smooth="yes"/>
      <point x="297" y="111"/>
      <point x="318" y="110"/>
      <point x="334" y="108" type="curve"/>
      <point x="327" y="89"/>
      <point x="314" y="80"/>
      <point x="290" y="71" type="curve" smooth="yes"/>
      <point x="250" y="56" type="line" smooth="yes"/>
      <point x="235" y="50"/>
      <point x="228" y="37"/>
      <point x="228" y="25" type="curve" smooth="yes"/>
      <point x="228" y="12"/>
      <point x="236" y="0"/>
    </contour>
    <contour>
      <point x="258" y="26" type="line"/>
      <point x="258" y="38" type="line"/>
      <point x="301" y="52" type="line" smooth="yes"/>
      <point x="332" y="62"/>
      <point x="351" y="70"/>
      <point x="357" y="109" type="curve"/>
      <point x="365" y="109"/>
      <point x="374" y="110"/>
      <point x="383" y="110" type="curve"/>
      <point x="378" y="26" type="line"/>
    </contour>
    <contour>
      <point x="336" y="135" type="curve"/>
      <point x="324" y="136"/>
      <point x="290" y="138"/>
      <point x="276" y="138" type="curve" smooth="yes"/>
      <point x="270" y="138"/>
      <point x="255" y="138"/>
      <point x="249" y="137" type="curve"/>
      <point x="251" y="179"/>
      <point x="272" y="203"/>
      <point x="295" y="203" type="curve" smooth="yes"/>
      <point x="316" y="203"/>
      <point x="333" y="174"/>
    </contour>
    <contour>
      <point x="352" y="184" type="curve"/>
      <point x="348" y="194"/>
      <point x="343" y="204"/>
      <point x="336" y="211" type="curve"/>
      <point x="339" y="211" type="line" smooth="yes"/>
      <point x="345" y="211"/>
      <point x="357" y="211"/>
      <point x="368" y="210" type="curve"/>
      <point x="362" y="203"/>
      <point x="357" y="194"/>
    </contour>
    <contour>
      <point x="451" y="135" type="curve"/>
      <point x="439" y="136"/>
      <point x="405" y="138"/>
      <point x="391" y="138" type="curve" smooth="yes"/>
      <point x="385" y="138"/>
      <point x="370" y="138"/>
      <point x="364" y="137" type="curve"/>
      <point x="366" y="179"/>
      <point x="387" y="203"/>
      <point x="410" y="203" type="curve" smooth="yes"/>
      <point x="431" y="203"/>
      <point x="448" y="174"/>
    </contour>
    <contour>
      <point x="458" y="26" type="line"/>
      <point x="458" y="38" type="line"/>
      <point x="506" y="53" type="line" smooth="yes"/>
      <point x="528" y="60"/>
      <point x="552" y="71"/>
      <point x="557" y="109" type="curve"/>
      <point x="562" y="109"/>
      <point x="566" y="108"/>
      <point x="569" y="108" type="curve"/>
      <point x="569" y="107" type="line"/>
      <point x="571" y="107" type="line" smooth="yes"/>
      <point x="573" y="107"/>
      <point x="575" y="106"/>
      <point x="576" y="106" type="curve"/>
      <point x="578" y="108" type="line"/>
      <point x="583" y="108" type="line"/>
      <point x="578" y="26" type="line"/>
    </contour>
    <contour>
      <point x="388" y="235" type="curve"/>
      <point x="376" y="236"/>
      <point x="342" y="238"/>
      <point x="328" y="238" type="curve" smooth="yes"/>
      <point x="322" y="238"/>
      <point x="307" y="238"/>
      <point x="301" y="237" type="curve"/>
      <point x="303" y="279"/>
      <point x="324" y="293"/>
      <point x="347" y="293" type="curve" smooth="yes"/>
      <point x="368" y="293"/>
      <point x="385" y="274"/>
    </contour>
    <contour>
      <point x="467" y="184" type="curve"/>
      <point x="463" y="194"/>
      <point x="458" y="204"/>
      <point x="451" y="211" type="curve"/>
      <point x="454" y="211" type="line" smooth="yes"/>
      <point x="460" y="211"/>
      <point x="472" y="211"/>
      <point x="483" y="210" type="curve"/>
      <point x="477" y="203"/>
      <point x="472" y="194"/>
    </contour>
    <contour>
      <point x="566" y="135" type="curve"/>
      <point x="554" y="136"/>
      <point x="520" y="138"/>
      <point x="506" y="138" type="curve" smooth="yes"/>
      <point x="500" y="138"/>
      <point x="485" y="138"/>
      <point x="479" y="137" type="curve"/>
      <point x="481" y="179"/>
      <point x="502" y="203"/>
      <point x="525" y="203" type="curve" smooth="yes"/>
      <point x="546" y="203"/>
      <point x="563" y="174"/>
    </contour>
    <contour>
      <point x="404" y="281" type="curve"/>
      <point x="400" y="290"/>
      <point x="395" y="298"/>
      <point x="389" y="304" type="curve"/>
      <point x="399" y="304" type="line" smooth="yes"/>
      <point x="404" y="304"/>
      <point x="411" y="304"/>
      <point x="420" y="303" type="curve"/>
      <point x="414" y="297"/>
      <point x="408" y="290"/>
    </contour>
    <contour>
      <point x="503" y="235" type="curve"/>
      <point x="491" y="236"/>
      <point x="457" y="238"/>
      <point x="443" y="238" type="curve" smooth="yes"/>
      <point x="437" y="238"/>
      <point x="422" y="238"/>
      <point x="416" y="237" type="curve"/>
      <point x="418" y="279"/>
      <point x="439" y="293"/>
      <point x="462" y="293" type="curve" smooth="yes"/>
      <point x="483" y="293"/>
      <point x="500" y="274"/>
    </contour>
    <contour>
      <point x="448" y="328" type="curve"/>
      <point x="436" y="329"/>
      <point x="402" y="331"/>
      <point x="388" y="331" type="curve" smooth="yes"/>
      <point x="382" y="331"/>
      <point x="367" y="331"/>
      <point x="361" y="330" type="curve"/>
      <point x="363" y="372"/>
      <point x="384" y="386"/>
      <point x="407" y="386" type="curve" smooth="yes"/>
      <point x="428" y="386"/>
      <point x="445" y="367"/>
    </contour>
    <contour>
      <point x="582" y="185" type="curve"/>
      <point x="578" y="195"/>
      <point x="573" y="204"/>
      <point x="566" y="211" type="curve"/>
      <point x="569" y="211" type="line" smooth="yes"/>
      <point x="575" y="211"/>
      <point x="586" y="211"/>
      <point x="597" y="210" type="curve"/>
      <point x="591" y="203"/>
      <point x="586" y="195"/>
    </contour>
    <contour>
      <point x="680" y="135" type="curve"/>
      <point x="668" y="136"/>
      <point x="634" y="138"/>
      <point x="620" y="138" type="curve" smooth="yes"/>
      <point x="614" y="138"/>
      <point x="599" y="138"/>
      <point x="593" y="137" type="curve"/>
      <point x="595" y="179"/>
      <point x="616" y="203"/>
      <point x="639" y="203" type="curve" smooth="yes"/>
      <point x="660" y="203"/>
      <point x="677" y="174"/>
    </contour>
    <contour>
      <point x="519" y="281" type="curve"/>
      <point x="515" y="290"/>
      <point x="510" y="298"/>
      <point x="504" y="304" type="curve"/>
      <point x="514" y="304" type="line" smooth="yes"/>
      <point x="519" y="304"/>
      <point x="526" y="304"/>
      <point x="535" y="303" type="curve"/>
      <point x="529" y="297"/>
      <point x="523" y="290"/>
    </contour>
    <contour>
      <point x="618" y="235" type="curve"/>
      <point x="606" y="236"/>
      <point x="572" y="238"/>
      <point x="558" y="238" type="curve" smooth="yes"/>
      <point x="552" y="238"/>
      <point x="537" y="238"/>
      <point x="531" y="237" type="curve"/>
      <point x="533" y="279"/>
      <point x="554" y="293"/>
      <point x="577" y="293" type="curve" smooth="yes"/>
      <point x="598" y="293"/>
      <point x="615" y="274"/>
    </contour>
    <contour>
      <point x="464" y="374" type="curve"/>
      <point x="460" y="383"/>
      <point x="455" y="390"/>
      <point x="450" y="396" type="curve"/>
      <point x="478" y="395" type="line"/>
      <point x="473" y="389"/>
      <point x="468" y="382"/>
    </contour>
    <contour>
      <point x="563" y="328" type="curve"/>
      <point x="551" y="329"/>
      <point x="517" y="331"/>
      <point x="503" y="331" type="curve" smooth="yes"/>
      <point x="497" y="331"/>
      <point x="482" y="331"/>
      <point x="476" y="330" type="curve"/>
      <point x="478" y="372"/>
      <point x="499" y="386"/>
      <point x="522" y="386" type="curve" smooth="yes"/>
      <point x="543" y="386"/>
      <point x="560" y="367"/>
    </contour>
    <contour>
      <point x="538" y="414" type="curve"/>
      <point x="395" y="423" type="line"/>
      <point x="394" y="454"/>
      <point x="391" y="534"/>
      <point x="378" y="563" type="curve"/>
      <point x="362" y="569" type="line"/>
      <point x="268" y="512" type="line"/>
      <point x="226" y="534"/>
      <point x="208" y="583"/>
      <point x="170" y="609" type="curve" smooth="yes"/>
      <point x="141" y="629"/>
      <point x="72" y="636"/>
      <point x="72" y="686" type="curve" smooth="yes"/>
      <point x="72" y="701"/>
      <point x="81" y="716"/>
      <point x="96" y="716" type="curve"/>
      <point x="111" y="711"/>
      <point x="106" y="684"/>
      <point x="119" y="673" type="curve" smooth="yes"/>
      <point x="142" y="654"/>
      <point x="240" y="566"/>
      <point x="270" y="566" type="curve" smooth="yes"/>
      <point x="289" y="566"/>
      <point x="332" y="622"/>
      <point x="339" y="629" type="curve"/>
      <point x="370" y="657"/>
      <point x="412" y="659"/>
      <point x="439" y="660" type="curve"/>
      <point x="439" y="758"/>
      <point x="365" y="717"/>
      <point x="365" y="753" type="curve" smooth="yes"/>
      <point x="365" y="768"/>
      <point x="374" y="783"/>
      <point x="374" y="790" type="curve" smooth="yes"/>
      <point x="374" y="801"/>
      <point x="368" y="806"/>
      <point x="338" y="812" type="curve"/>
      <point x="344" y="828"/>
      <point x="368" y="856"/>
      <point x="378" y="883" type="curve"/>
      <point x="426" y="868"/>
      <point x="489" y="858"/>
      <point x="528" y="853" type="curve"/>
      <point x="525" y="828"/>
      <point x="499" y="803"/>
      <point x="499" y="777" type="curve" smooth="yes"/>
      <point x="499" y="761"/>
      <point x="500" y="740"/>
      <point x="502" y="723" type="curve" smooth="yes"/>
      <point x="504" y="709"/>
      <point x="510" y="676"/>
      <point x="533" y="662" type="curve"/>
      <point x="560" y="698"/>
      <point x="667" y="676"/>
      <point x="667" y="729" type="curve" smooth="yes"/>
      <point x="667" y="791"/>
      <point x="627" y="841"/>
      <point x="627" y="893" type="curve" smooth="yes"/>
      <point x="627" y="916"/>
      <point x="641" y="937"/>
      <point x="675" y="937" type="curve" smooth="yes"/>
      <point x="692" y="937"/>
      <point x="694" y="922"/>
      <point x="694" y="919" type="curve" smooth="yes"/>
      <point x="694" y="901"/>
      <point x="668" y="888"/>
      <point x="668" y="868" type="curve" smooth="yes"/>
      <point x="668" y="811"/>
      <point x="710" y="738"/>
      <point x="710" y="691" type="curve" smooth="yes"/>
      <point x="710" y="670"/>
      <point x="665" y="653"/>
      <point x="641" y="644" type="curve" smooth="yes"/>
      <point x="570" y="617"/>
      <point x="534" y="595"/>
      <point x="534" y="540" type="curve" smooth="yes"/>
      <point x="534" y="522"/>
      <point x="537" y="445"/>
    </contour>
    <contour>
      <point x="402" y="833" type="curve" smooth="yes"/>
      <point x="416" y="833"/>
      <point x="437" y="835"/>
      <point x="437" y="844" type="curve" smooth="yes"/>
      <point x="437" y="853"/>
      <point x="416" y="867"/>
      <point x="402" y="867" type="curve" smooth="yes"/>
      <point x="388" y="867"/>
      <point x="376" y="859"/>
      <point x="376" y="850" type="curve" smooth="yes"/>
      <point x="376" y="841"/>
      <point x="388" y="833"/>
    </contour>
    <contour>
      <point x="528" y="879" type="curve"/>
      <point x="483" y="883"/>
      <point x="413" y="895"/>
      <point x="367" y="914" type="curve"/>
      <point x="386" y="929"/>
      <point x="411" y="942"/>
      <point x="429" y="957" type="curve" smooth="yes"/>
      <point x="487" y="1005"/>
      <point x="515" y="1048"/>
      <point x="557" y="1108" type="curve"/>
      <point x="561" y="1059"/>
      <point x="539" y="923"/>
    </contour>
  </outline>
</glyph>
<glyph name="u14404" format="2">
  <advance width="692"/>
  <unicode hex="14404"/>
  <outline>
    <contour>
      <point x="164" y="0" type="curve" smooth="yes"/>
      <point x="241" y="0" type="line" smooth="yes"/>
      <point x="287" y="0"/>
      <point x="295" y="74"/>
      <point x="311" y="112" type="curve" smooth="yes"/>
      <point x="314" y="119"/>
      <point x="316" y="137"/>
      <point x="330" y="137" type="curve" smooth="yes"/>
      <point x="342" y="137"/>
      <point x="372" y="109"/>
      <point x="372" y="86" type="curve" smooth="yes"/>
      <point x="372" y="75"/>
      <point x="365" y="68"/>
      <point x="347" y="63" type="curve" smooth="yes"/>
      <point x="334" y="59"/>
      <point x="324" y="43"/>
      <point x="324" y="31" type="curve" smooth="yes"/>
      <point x="324" y="16"/>
      <point x="339" y="0"/>
      <point x="364" y="0" type="curve" smooth="yes"/>
      <point x="441" y="0" type="line" smooth="yes"/>
      <point x="480" y="0"/>
      <point x="499" y="18"/>
      <point x="499" y="51" type="curve" smooth="yes"/>
      <point x="499" y="130"/>
      <point x="430" y="241"/>
      <point x="430" y="274" type="curve" smooth="yes"/>
      <point x="430" y="360"/>
      <point x="642" y="329"/>
      <point x="642" y="419" type="curve" smooth="yes"/>
      <point x="642" y="436"/>
      <point x="631" y="458"/>
      <point x="594" y="458" type="curve" smooth="yes"/>
      <point x="548" y="458"/>
      <point x="450" y="419"/>
      <point x="405" y="411" type="curve"/>
      <point x="436" y="445"/>
      <point x="481" y="475"/>
      <point x="481" y="535" type="curve" smooth="yes"/>
      <point x="481" y="579"/>
      <point x="462" y="625"/>
      <point x="435" y="659" type="curve" smooth="yes"/>
      <point x="402" y="700"/>
      <point x="435" y="727"/>
      <point x="380" y="771" type="curve" smooth="yes"/>
      <point x="360" y="787"/>
      <point x="346" y="796"/>
      <point x="322" y="801" type="curve"/>
      <point x="297" y="801" type="line"/>
      <point x="267" y="767"/>
      <point x="217" y="727"/>
      <point x="175" y="705" type="curve" smooth="yes"/>
      <point x="124" y="678"/>
      <point x="50" y="670"/>
      <point x="50" y="618" type="curve" smooth="yes"/>
      <point x="50" y="595"/>
      <point x="70" y="580"/>
      <point x="103" y="580" type="curve" smooth="yes"/>
      <point x="128" y="580"/>
      <point x="153" y="591"/>
      <point x="186" y="603" type="curve"/>
      <point x="183" y="577"/>
      <point x="179" y="552"/>
      <point x="179" y="527" type="curve" smooth="yes"/>
      <point x="179" y="468"/>
      <point x="203" y="428"/>
      <point x="241" y="394" type="curve"/>
      <point x="208" y="404"/>
      <point x="170" y="436"/>
      <point x="134" y="436" type="curve" smooth="yes"/>
      <point x="98" y="436"/>
      <point x="84" y="411"/>
      <point x="84" y="387" type="curve" smooth="yes"/>
      <point x="84" y="325"/>
      <point x="128" y="308"/>
      <point x="203" y="286" type="curve" smooth="yes"/>
      <point x="237" y="276"/>
      <point x="267" y="264"/>
      <point x="267" y="246" type="curve" smooth="yes"/>
      <point x="267" y="237"/>
      <point x="264" y="223"/>
      <point x="257" y="199" type="curve" smooth="yes"/>
      <point x="244" y="156"/>
      <point x="228" y="110"/>
      <point x="198" y="88" type="curve"/>
      <point x="151" y="73"/>
      <point x="127" y="60"/>
      <point x="127" y="32" type="curve" smooth="yes"/>
      <point x="127" y="4"/>
      <point x="160" y="0"/>
    </contour>
    <contour>
      <point x="166" y="30" type="line" smooth="yes"/>
      <point x="160" y="30"/>
      <point x="157" y="33"/>
      <point x="157" y="40" type="curve" smooth="yes"/>
      <point x="157" y="51"/>
      <point x="194" y="53"/>
      <point x="216" y="68" type="curve" smooth="yes"/>
      <point x="237" y="82"/>
      <point x="265" y="129"/>
      <point x="284" y="187" type="curve" smooth="yes"/>
      <point x="293" y="215"/>
      <point x="300" y="235"/>
      <point x="300" y="250" type="curve" smooth="yes"/>
      <point x="300" y="272"/>
      <point x="286" y="285"/>
      <point x="250" y="298" type="curve" smooth="yes"/>
      <point x="214" y="311"/>
      <point x="171" y="325"/>
      <point x="153" y="334" type="curve" smooth="yes"/>
      <point x="128" y="346"/>
      <point x="114" y="357"/>
      <point x="114" y="385" type="curve" smooth="yes"/>
      <point x="114" y="389"/>
      <point x="115" y="406"/>
      <point x="137" y="406" type="curve" smooth="yes"/>
      <point x="179" y="406"/>
      <point x="209" y="366"/>
      <point x="266" y="363" type="curve"/>
      <point x="285" y="382" type="line"/>
      <point x="257" y="410"/>
      <point x="209" y="441"/>
      <point x="209" y="529" type="curve" smooth="yes"/>
      <point x="209" y="579"/>
      <point x="213" y="577"/>
      <point x="218" y="633" type="curve"/>
      <point x="189" y="643" type="line"/>
      <point x="175" y="631"/>
      <point x="125" y="609"/>
      <point x="96" y="609" type="curve" smooth="yes"/>
      <point x="84" y="609"/>
      <point x="77" y="612"/>
      <point x="77" y="621" type="curve" smooth="yes"/>
      <point x="77" y="647"/>
      <point x="139" y="659"/>
      <point x="159" y="668" type="curve" smooth="yes"/>
      <point x="246" y="707"/>
      <point x="267" y="731"/>
      <point x="310" y="777" type="curve"/>
      <point x="403" y="746"/>
      <point x="373" y="705"/>
      <point x="411" y="643" type="curve" smooth="yes"/>
      <point x="430" y="612"/>
      <point x="454" y="579"/>
      <point x="454" y="537" type="curve" smooth="yes"/>
      <point x="454" y="482"/>
      <point x="400" y="444"/>
      <point x="378" y="416" type="curve"/>
      <point x="387" y="384" type="line"/>
      <point x="467" y="391"/>
      <point x="563" y="430"/>
      <point x="587" y="430" type="curve" smooth="yes"/>
      <point x="603" y="430"/>
      <point x="612" y="429"/>
      <point x="612" y="416" type="curve" smooth="yes"/>
      <point x="612" y="361"/>
      <point x="398" y="374"/>
      <point x="398" y="277" type="curve" smooth="yes"/>
      <point x="398" y="225"/>
      <point x="469" y="124"/>
      <point x="469" y="60" type="curve" smooth="yes"/>
      <point x="469" y="44"/>
      <point x="458" y="30"/>
      <point x="439" y="30" type="curve" smooth="yes"/>
      <point x="371" y="30" type="line" smooth="yes"/>
      <point x="356" y="30"/>
      <point x="354" y="31"/>
      <point x="354" y="35" type="curve" smooth="yes"/>
      <point x="354" y="40"/>
      <point x="357" y="43"/>
      <point x="372" y="48" type="curve" smooth="yes"/>
      <point x="398" y="57"/>
      <point x="402" y="72"/>
      <point x="402" y="85" type="curve" smooth="yes"/>
      <point x="402" y="114"/>
      <point x="361" y="167"/>
      <point x="330" y="167" type="curve" smooth="yes"/>
      <point x="280" y="167"/>
      <point x="282" y="30"/>
      <point x="238" y="30" type="curve" smooth="yes"/>
    </contour>
    <contour>
      <point x="323" y="441" type="curve" smooth="yes"/>
      <point x="371" y="441"/>
      <point x="408" y="487"/>
      <point x="408" y="546" type="curve" smooth="yes"/>
      <point x="408" y="606"/>
      <point x="371" y="650"/>
      <point x="323" y="650" type="curve" smooth="yes"/>
      <point x="278" y="650"/>
      <point x="241" y="606"/>
      <point x="241" y="546" type="curve" smooth="yes"/>
      <point x="241" y="487"/>
      <point x="278" y="441"/>
    </contour>
    <contour>
      <point x="294" y="480" type="curve"/>
      <point x="279" y="495"/>
      <point x="269" y="521"/>
      <point x="269" y="547" type="curve" smooth="yes"/>
      <point x="269" y="591"/>
      <point x="295" y="625"/>
      <point x="323" y="625" type="curve" smooth="yes"/>
      <point x="356" y="625"/>
      <point x="380" y="591"/>
      <point x="380" y="547" type="curve" smooth="yes"/>
      <point x="380" y="525"/>
      <point x="373" y="504"/>
      <point x="362" y="489" type="curve"/>
      <point x="363" y="491"/>
      <point x="363" y="494"/>
      <point x="363" y="497" type="curve" smooth="yes"/>
      <point x="363" y="519"/>
      <point x="347" y="536"/>
      <point x="327" y="536" type="curve" smooth="yes"/>
      <point x="307" y="536"/>
      <point x="291" y="519"/>
      <point x="291" y="497" type="curve" smooth="yes"/>
      <point x="291" y="491"/>
      <point x="292" y="485"/>
    </contour>
  </outline>
</glyph>
<glyph name="u14405" format="2">
  <advance width="844"/>
  <unicode hex="14405"/>
  <outline>
    <contour>
      <point x="323" y="-47" type="curve" smooth="yes"/>
      <point x="364" y="-47"/>
      <point x="398" y="-25"/>
      <point x="435" y="1" type="curve" smooth="yes"/>
      <point x="548" y="79" type="line" smooth="yes"/>
      <point x="630" y="135"/>
      <point x="661" y="236"/>
      <point x="661" y="299" type="curve" smooth="yes"/>
      <point x="661" y="313"/>
      <point x="657" y="327"/>
      <point x="651" y="339" type="curve"/>
      <point x="660" y="338"/>
      <point x="669" y="337"/>
      <point x="678" y="337" type="curve" smooth="yes"/>
      <point x="735" y="337"/>
      <point x="794" y="365"/>
      <point x="794" y="432" type="curve" smooth="yes"/>
      <point x="794" y="497"/>
      <point x="755" y="483"/>
      <point x="741" y="552" type="curve"/>
      <point x="755" y="575"/>
      <point x="766" y="609"/>
      <point x="766" y="639" type="curve" smooth="yes"/>
      <point x="766" y="710"/>
      <point x="704" y="800"/>
      <point x="576" y="800" type="curve" smooth="yes"/>
      <point x="525" y="800"/>
      <point x="438" y="761"/>
      <point x="412" y="707" type="curve"/>
      <point x="416" y="703" type="line"/>
      <point x="386" y="663"/>
      <point x="310" y="589"/>
      <point x="310" y="549" type="curve" smooth="yes"/>
      <point x="310" y="530"/>
      <point x="325" y="517"/>
      <point x="366" y="517" type="curve"/>
      <point x="386" y="458"/>
      <point x="355" y="366"/>
      <point x="448" y="356" type="curve"/>
      <point x="421" y="331"/>
      <point x="404" y="296"/>
      <point x="385" y="266" type="curve" smooth="yes"/>
      <point x="380" y="258"/>
      <point x="375" y="250"/>
      <point x="370" y="241" type="curve"/>
      <point x="359" y="274"/>
      <point x="349" y="313"/>
      <point x="332" y="341" type="curve" smooth="yes"/>
      <point x="282" y="423"/>
      <point x="193" y="504"/>
      <point x="106" y="504" type="curve" smooth="yes"/>
      <point x="82" y="504"/>
      <point x="65" y="490"/>
      <point x="65" y="473" type="curve" smooth="yes"/>
      <point x="65" y="454"/>
      <point x="88" y="437"/>
      <point x="88" y="427" type="curve" smooth="yes"/>
      <point x="88" y="407"/>
      <point x="50" y="388"/>
      <point x="50" y="363" type="curve" smooth="yes"/>
      <point x="50" y="282"/>
      <point x="160" y="326"/>
      <point x="204" y="265" type="curve" smooth="yes"/>
      <point x="217" y="247"/>
      <point x="222" y="194"/>
      <point x="229" y="137" type="curve" smooth="yes"/>
      <point x="240" y="50"/>
      <point x="255" y="-47"/>
    </contour>
    <contour>
      <point x="322" y="-17" type="curve" smooth="yes"/>
      <point x="245" y="-17"/>
      <point x="277" y="196"/>
      <point x="229" y="279" type="curve" smooth="yes"/>
      <point x="185" y="355"/>
      <point x="82" y="308"/>
      <point x="82" y="367" type="curve" smooth="yes"/>
      <point x="82" y="378"/>
      <point x="117" y="389"/>
      <point x="117" y="426" type="curve" smooth="yes"/>
      <point x="117" y="449"/>
      <point x="95" y="465"/>
      <point x="95" y="471" type="curve" smooth="yes"/>
      <point x="95" y="474"/>
      <point x="100" y="475"/>
      <point x="105" y="475" type="curve" smooth="yes"/>
      <point x="185" y="475"/>
      <point x="260" y="391"/>
      <point x="300" y="335" type="curve" smooth="yes"/>
      <point x="323" y="303"/>
      <point x="341" y="232"/>
      <point x="354" y="196" type="curve"/>
      <point x="354" y="160"/>
      <point x="378" y="130"/>
      <point x="382" y="94" type="curve"/>
      <point x="412" y="96" type="line"/>
      <point x="409" y="130"/>
      <point x="384" y="162"/>
      <point x="384" y="196" type="curve" smooth="yes"/>
      <point x="384" y="228"/>
      <point x="440" y="303"/>
      <point x="461" y="327" type="curve" smooth="yes"/>
      <point x="478" y="347"/>
      <point x="534" y="363"/>
      <point x="568" y="363" type="curve" smooth="yes"/>
      <point x="572" y="363"/>
      <point x="576" y="363"/>
      <point x="580" y="362" type="curve"/>
      <point x="588" y="357"/>
      <point x="596" y="352"/>
      <point x="605" y="350" type="curve"/>
      <point x="619" y="338"/>
      <point x="629" y="322"/>
      <point x="629" y="297" type="curve" smooth="yes"/>
      <point x="629" y="204"/>
      <point x="571" y="130"/>
      <point x="527" y="100" type="curve" smooth="yes"/>
      <point x="424" y="29" type="line" smooth="yes"/>
      <point x="397" y="10"/>
      <point x="351" y="-17"/>
    </contour>
    <contour>
      <point x="469" y="386" type="curve" smooth="yes"/>
      <point x="412" y="386"/>
      <point x="407" y="410"/>
      <point x="403" y="448" type="curve"/>
      <point x="450" y="455" type="line"/>
      <point x="451" y="482" type="line"/>
      <point x="401" y="474" type="line"/>
      <point x="400" y="485"/>
      <point x="396" y="525"/>
      <point x="393" y="532" type="curve" smooth="yes"/>
      <point x="383" y="554"/>
      <point x="353" y="544"/>
      <point x="336" y="551" type="curve"/>
      <point x="343" y="586"/>
      <point x="405" y="641"/>
      <point x="434" y="682" type="curve"/>
      <point x="543" y="562" type="line"/>
      <point x="552" y="564"/>
      <point x="566" y="569"/>
      <point x="578" y="569" type="curve" smooth="yes"/>
      <point x="592" y="569"/>
      <point x="603" y="563"/>
      <point x="603" y="541" type="curve" smooth="yes"/>
      <point x="603" y="514"/>
      <point x="530" y="497"/>
      <point x="530" y="446" type="curve" smooth="yes"/>
      <point x="530" y="431"/>
      <point x="533" y="418"/>
      <point x="538" y="406" type="curve"/>
      <point x="519" y="396"/>
      <point x="485" y="386"/>
    </contour>
    <contour>
      <point x="437" y="574" type="curve" smooth="yes"/>
      <point x="450" y="574"/>
      <point x="460" y="581"/>
      <point x="460" y="592" type="curve" smooth="yes"/>
      <point x="460" y="605"/>
      <point x="443" y="620"/>
      <point x="422" y="620" type="curve" smooth="yes"/>
      <point x="410" y="620"/>
      <point x="401" y="615"/>
      <point x="399" y="607" type="curve"/>
      <point x="398" y="605"/>
      <point x="398" y="604"/>
      <point x="398" y="602" type="curve" smooth="yes"/>
      <point x="398" y="589"/>
      <point x="415" y="574"/>
    </contour>
    <contour>
      <point x="669" y="367" type="curve" smooth="yes"/>
      <point x="623" y="367"/>
      <point x="560" y="394"/>
      <point x="560" y="441" type="curve" smooth="yes"/>
      <point x="560" y="488"/>
      <point x="634" y="501"/>
      <point x="634" y="539" type="curve" smooth="yes"/>
      <point x="634" y="576"/>
      <point x="615" y="595"/>
      <point x="584" y="595" type="curve" smooth="yes"/>
      <point x="576" y="595"/>
      <point x="566" y="594"/>
      <point x="556" y="591" type="curve"/>
      <point x="450" y="711" type="line"/>
      <point x="483" y="747"/>
      <point x="531" y="770"/>
      <point x="574" y="770" type="curve" smooth="yes"/>
      <point x="680" y="770"/>
      <point x="734" y="694"/>
      <point x="734" y="638" type="curve" smooth="yes"/>
      <point x="734" y="615"/>
      <point x="724" y="566"/>
      <point x="710" y="551" type="curve"/>
      <point x="721" y="485"/>
      <point x="760" y="480"/>
      <point x="760" y="438" type="curve" smooth="yes"/>
      <point x="760" y="408"/>
      <point x="751" y="367"/>
    </contour>
  </outline>
</glyph>
<glyph name="u14406" format="2">
  <advance width="837"/>
  <unicode hex="14406"/>
  <outline>
    <contour>
      <point x="317" y="-47" type="curve" smooth="yes"/>
      <point x="358" y="-47"/>
      <point x="392" y="-25"/>
      <point x="429" y="1" type="curve" smooth="yes"/>
      <point x="542" y="79" type="line" smooth="yes"/>
      <point x="624" y="135"/>
      <point x="655" y="236"/>
      <point x="655" y="299" type="curve" smooth="yes"/>
      <point x="655" y="313"/>
      <point x="652" y="326"/>
      <point x="646" y="338" type="curve"/>
      <point x="652" y="337"/>
      <point x="658" y="337"/>
      <point x="664" y="337" type="curve" smooth="yes"/>
      <point x="737" y="337"/>
      <point x="787" y="367"/>
      <point x="787" y="432" type="curve" smooth="yes"/>
      <point x="787" y="497"/>
      <point x="749" y="483"/>
      <point x="735" y="552" type="curve"/>
      <point x="749" y="575"/>
      <point x="760" y="609"/>
      <point x="760" y="639" type="curve" smooth="yes"/>
      <point x="760" y="710"/>
      <point x="698" y="800"/>
      <point x="560" y="800" type="curve" smooth="yes"/>
      <point x="519" y="800"/>
      <point x="432" y="761"/>
      <point x="406" y="707" type="curve"/>
      <point x="410" y="703" type="line"/>
      <point x="380" y="663"/>
      <point x="304" y="589"/>
      <point x="304" y="549" type="curve" smooth="yes"/>
      <point x="304" y="530"/>
      <point x="319" y="517"/>
      <point x="360" y="517" type="curve"/>
      <point x="380" y="458"/>
      <point x="349" y="366"/>
      <point x="442" y="356" type="curve"/>
      <point x="414" y="331"/>
      <point x="398" y="296"/>
      <point x="379" y="266" type="curve" smooth="yes"/>
      <point x="364" y="242" type="line"/>
      <point x="353" y="245"/>
      <point x="341" y="246"/>
      <point x="334" y="256" type="curve" smooth="yes"/>
      <point x="311" y="289"/>
      <point x="301" y="339"/>
      <point x="277" y="373" type="curve"/>
      <point x="261" y="374"/>
      <point x="247" y="377"/>
      <point x="234" y="380" type="curve"/>
      <point x="240" y="382"/>
      <point x="246" y="384"/>
      <point x="251" y="385" type="curve"/>
      <point x="300" y="398"/>
      <point x="324" y="418"/>
      <point x="324" y="441" type="curve" smooth="yes"/>
      <point x="324" y="490"/>
      <point x="275" y="543"/>
      <point x="205" y="543" type="curve" smooth="yes"/>
      <point x="156" y="543"/>
      <point x="119" y="516"/>
      <point x="119" y="465" type="curve" smooth="yes"/>
      <point x="119" y="461"/>
      <point x="119" y="457"/>
      <point x="120" y="453" type="curve"/>
      <point x="110" y="461"/>
      <point x="102" y="466"/>
      <point x="94" y="466" type="curve" smooth="yes"/>
      <point x="63" y="466"/>
      <point x="50" y="461"/>
      <point x="50" y="421" type="curve" smooth="yes"/>
      <point x="50" y="323"/>
      <point x="128" y="288"/>
      <point x="175" y="266" type="curve"/>
      <point x="213" y="195"/>
      <point x="210" y="-47"/>
    </contour>
    <contour>
      <point x="316" y="-17" type="curve" smooth="yes"/>
      <point x="239" y="-17"/>
      <point x="249" y="198"/>
      <point x="201" y="281" type="curve"/>
      <point x="136" y="338"/>
      <point x="80" y="338"/>
      <point x="80" y="434" type="curve"/>
      <point x="82" y="434" type="line" smooth="yes"/>
      <point x="96" y="434"/>
      <point x="138" y="361"/>
      <point x="256" y="343" type="curve"/>
      <point x="280" y="319"/>
      <point x="291" y="267"/>
      <point x="310" y="239" type="curve" smooth="yes"/>
      <point x="317" y="229"/>
      <point x="338" y="223"/>
      <point x="351" y="214" type="curve"/>
      <point x="349" y="208"/>
      <point x="348" y="202"/>
      <point x="348" y="196" type="curve" smooth="yes"/>
      <point x="348" y="160"/>
      <point x="372" y="130"/>
      <point x="376" y="94" type="curve"/>
      <point x="406" y="96" type="line"/>
      <point x="403" y="130"/>
      <point x="378" y="162"/>
      <point x="378" y="196" type="curve" smooth="yes"/>
      <point x="378" y="228"/>
      <point x="436" y="303"/>
      <point x="455" y="327" type="curve" smooth="yes"/>
      <point x="471" y="347"/>
      <point x="528" y="363"/>
      <point x="562" y="363" type="curve" smooth="yes"/>
      <point x="567" y="363"/>
      <point x="572" y="362"/>
      <point x="577" y="361" type="curve"/>
      <point x="584" y="357"/>
      <point x="591" y="354"/>
      <point x="598" y="351" type="curve"/>
      <point x="612" y="340"/>
      <point x="623" y="323"/>
      <point x="623" y="297" type="curve" smooth="yes"/>
      <point x="623" y="204"/>
      <point x="565" y="131"/>
      <point x="521" y="100" type="curve" smooth="yes"/>
      <point x="418" y="29" type="line" smooth="yes"/>
      <point x="391" y="11"/>
      <point x="346" y="-17"/>
    </contour>
    <contour>
      <point x="181" y="443" type="curve" smooth="yes"/>
      <point x="190" y="443"/>
      <point x="197" y="447"/>
      <point x="197" y="454" type="curve" smooth="yes"/>
      <point x="197" y="461"/>
      <point x="190" y="466"/>
      <point x="181" y="466" type="curve" smooth="yes"/>
      <point x="172" y="466"/>
      <point x="164" y="461"/>
      <point x="164" y="454" type="curve" smooth="yes"/>
      <point x="164" y="447"/>
      <point x="172" y="443"/>
    </contour>
    <contour>
      <point x="226" y="422" type="curve" smooth="yes"/>
      <point x="235" y="422"/>
      <point x="242" y="426"/>
      <point x="242" y="433" type="curve" smooth="yes"/>
      <point x="242" y="440"/>
      <point x="235" y="445"/>
      <point x="226" y="445" type="curve" smooth="yes"/>
      <point x="217" y="445"/>
      <point x="209" y="440"/>
      <point x="209" y="433" type="curve" smooth="yes"/>
      <point x="209" y="426"/>
      <point x="217" y="422"/>
    </contour>
    <contour>
      <point x="196" y="402" type="curve" smooth="yes"/>
      <point x="171" y="402"/>
      <point x="146" y="436"/>
      <point x="146" y="462" type="curve" smooth="yes"/>
      <point x="146" y="495"/>
      <point x="178" y="511"/>
      <point x="205" y="511" type="curve" smooth="yes"/>
      <point x="243" y="511"/>
      <point x="296" y="484"/>
      <point x="296" y="443" type="curve" smooth="yes"/>
      <point x="296" y="419"/>
      <point x="211" y="402"/>
    </contour>
    <contour>
      <point x="204" y="475" type="curve" smooth="yes"/>
      <point x="213" y="475"/>
      <point x="220" y="479"/>
      <point x="220" y="486" type="curve" smooth="yes"/>
      <point x="220" y="493"/>
      <point x="213" y="498"/>
      <point x="204" y="498" type="curve" smooth="yes"/>
      <point x="195" y="498"/>
      <point x="187" y="493"/>
      <point x="187" y="486" type="curve" smooth="yes"/>
      <point x="187" y="479"/>
      <point x="195" y="475"/>
    </contour>
    <contour>
      <point x="249" y="454" type="curve" smooth="yes"/>
      <point x="258" y="454"/>
      <point x="265" y="458"/>
      <point x="265" y="465" type="curve" smooth="yes"/>
      <point x="265" y="472"/>
      <point x="258" y="477"/>
      <point x="249" y="477" type="curve" smooth="yes"/>
      <point x="240" y="477"/>
      <point x="232" y="472"/>
      <point x="232" y="465" type="curve" smooth="yes"/>
      <point x="232" y="458"/>
      <point x="240" y="454"/>
    </contour>
    <contour>
      <point x="463" y="386" type="curve" smooth="yes"/>
      <point x="406" y="386"/>
      <point x="401" y="410"/>
      <point x="397" y="448" type="curve"/>
      <point x="443" y="455" type="line"/>
      <point x="444" y="482" type="line"/>
      <point x="395" y="474" type="line"/>
      <point x="394" y="480" type="line" smooth="yes"/>
      <point x="391" y="499"/>
      <point x="394" y="517"/>
      <point x="387" y="532" type="curve" smooth="yes"/>
      <point x="377" y="554"/>
      <point x="347" y="544"/>
      <point x="330" y="551" type="curve"/>
      <point x="337" y="586"/>
      <point x="399" y="641"/>
      <point x="428" y="682" type="curve"/>
      <point x="537" y="562" type="line"/>
      <point x="546" y="564"/>
      <point x="560" y="569"/>
      <point x="572" y="569" type="curve" smooth="yes"/>
      <point x="586" y="569"/>
      <point x="597" y="563"/>
      <point x="597" y="541" type="curve" smooth="yes"/>
      <point x="597" y="514"/>
      <point x="524" y="497"/>
      <point x="524" y="446" type="curve" smooth="yes"/>
      <point x="524" y="431"/>
      <point x="527" y="418"/>
      <point x="533" y="406" type="curve"/>
      <point x="513" y="396"/>
      <point x="479" y="386"/>
    </contour>
    <contour>
      <point x="431" y="574" type="curve" smooth="yes"/>
      <point x="444" y="574"/>
      <point x="454" y="581"/>
      <point x="454" y="592" type="curve" smooth="yes"/>
      <point x="454" y="605"/>
      <point x="437" y="620"/>
      <point x="416" y="620" type="curve" smooth="yes"/>
      <point x="404" y="620"/>
      <point x="395" y="615"/>
      <point x="393" y="607" type="curve"/>
      <point x="392" y="605"/>
      <point x="392" y="604"/>
      <point x="392" y="602" type="curve" smooth="yes"/>
      <point x="392" y="589"/>
      <point x="409" y="574"/>
    </contour>
    <contour>
      <point x="665" y="367" type="curve" smooth="yes"/>
      <point x="618" y="367"/>
      <point x="554" y="393"/>
      <point x="554" y="441" type="curve" smooth="yes"/>
      <point x="554" y="488"/>
      <point x="628" y="501"/>
      <point x="628" y="539" type="curve" smooth="yes"/>
      <point x="628" y="576"/>
      <point x="609" y="595"/>
      <point x="578" y="595" type="curve" smooth="yes"/>
      <point x="570" y="595"/>
      <point x="560" y="594"/>
      <point x="550" y="591" type="curve"/>
      <point x="444" y="711" type="line"/>
      <point x="477" y="747"/>
      <point x="525" y="770"/>
      <point x="568" y="770" type="curve" smooth="yes"/>
      <point x="674" y="770"/>
      <point x="728" y="694"/>
      <point x="728" y="638" type="curve" smooth="yes"/>
      <point x="728" y="615"/>
      <point x="717" y="566"/>
      <point x="703" y="551" type="curve"/>
      <point x="717" y="482"/>
      <point x="753" y="480"/>
      <point x="753" y="438" type="curve" smooth="yes"/>
      <point x="753" y="408"/>
      <point x="745" y="367"/>
    </contour>
  </outline>
</glyph>
<glyph name="u14407" format="2">
  <advance width="838"/>
  <unicode hex="14407"/>
  <outline>
    <contour>
      <point x="317" y="-47" type="curve" smooth="yes"/>
      <point x="358" y="-47"/>
      <point x="392" y="-25"/>
      <point x="429" y="1" type="curve" smooth="yes"/>
      <point x="542" y="79" type="line" smooth="yes"/>
      <point x="624" y="135"/>
      <point x="655" y="236"/>
      <point x="655" y="299" type="curve" smooth="yes"/>
      <point x="655" y="313"/>
      <point x="652" y="326"/>
      <point x="646" y="338" type="curve"/>
      <point x="652" y="337"/>
      <point x="659" y="337"/>
      <point x="665" y="337" type="curve" smooth="yes"/>
      <point x="728" y="337"/>
      <point x="788" y="367"/>
      <point x="788" y="432" type="curve" smooth="yes"/>
      <point x="788" y="497"/>
      <point x="749" y="483"/>
      <point x="735" y="552" type="curve"/>
      <point x="749" y="575"/>
      <point x="760" y="609"/>
      <point x="760" y="639" type="curve" smooth="yes"/>
      <point x="760" y="710"/>
      <point x="698" y="800"/>
      <point x="560" y="800" type="curve" smooth="yes"/>
      <point x="519" y="800"/>
      <point x="432" y="761"/>
      <point x="406" y="707" type="curve"/>
      <point x="410" y="703" type="line"/>
      <point x="380" y="663"/>
      <point x="304" y="589"/>
      <point x="304" y="549" type="curve" smooth="yes"/>
      <point x="304" y="530"/>
      <point x="319" y="517"/>
      <point x="360" y="517" type="curve"/>
      <point x="380" y="458"/>
      <point x="349" y="366"/>
      <point x="442" y="356" type="curve"/>
      <point x="411" y="327"/>
      <point x="394" y="290"/>
      <point x="379" y="266" type="curve" smooth="yes"/>
      <point x="364" y="242" type="line"/>
      <point x="353" y="245"/>
      <point x="341" y="246"/>
      <point x="334" y="256" type="curve" smooth="yes"/>
      <point x="312" y="288"/>
      <point x="302" y="334"/>
      <point x="280" y="368" type="curve"/>
      <point x="322" y="388"/>
      <point x="338" y="438"/>
      <point x="348" y="488" type="curve"/>
      <point x="336" y="506" type="line"/>
      <point x="290" y="499"/>
      <point x="244" y="495"/>
      <point x="203" y="495" type="curve" smooth="yes"/>
      <point x="171" y="495"/>
      <point x="142" y="497"/>
      <point x="116" y="504" type="curve"/>
      <point x="103" y="473" type="line"/>
      <point x="105" y="468"/>
      <point x="106" y="463"/>
      <point x="108" y="459" type="curve"/>
      <point x="102" y="463"/>
      <point x="96" y="466"/>
      <point x="89" y="466" type="curve" smooth="yes"/>
      <point x="68" y="466"/>
      <point x="50" y="461"/>
      <point x="50" y="421" type="curve" smooth="yes"/>
      <point x="50" y="323"/>
      <point x="128" y="288"/>
      <point x="175" y="266" type="curve"/>
      <point x="213" y="195"/>
      <point x="210" y="-47"/>
    </contour>
    <contour>
      <point x="316" y="-17" type="curve" smooth="yes"/>
      <point x="239" y="-17"/>
      <point x="249" y="198"/>
      <point x="201" y="281" type="curve"/>
      <point x="136" y="338"/>
      <point x="80" y="336"/>
      <point x="80" y="428" type="curve" smooth="yes"/>
      <point x="80" y="431"/>
      <point x="81" y="434"/>
      <point x="84" y="434" type="curve" smooth="yes"/>
      <point x="103" y="434"/>
      <point x="137" y="359"/>
      <point x="255" y="349" type="curve"/>
      <point x="279" y="325"/>
      <point x="291" y="267"/>
      <point x="310" y="239" type="curve" smooth="yes"/>
      <point x="317" y="229"/>
      <point x="338" y="223"/>
      <point x="351" y="214" type="curve"/>
      <point x="349" y="208"/>
      <point x="348" y="202"/>
      <point x="348" y="196" type="curve" smooth="yes"/>
      <point x="348" y="160"/>
      <point x="372" y="130"/>
      <point x="376" y="94" type="curve"/>
      <point x="406" y="96" type="line"/>
      <point x="403" y="130"/>
      <point x="378" y="162"/>
      <point x="378" y="196" type="curve" smooth="yes"/>
      <point x="378" y="225"/>
      <point x="434" y="303"/>
      <point x="455" y="327" type="curve" smooth="yes"/>
      <point x="472" y="347"/>
      <point x="528" y="363"/>
      <point x="562" y="363" type="curve" smooth="yes"/>
      <point x="565" y="363"/>
      <point x="569" y="363"/>
      <point x="573" y="362" type="curve"/>
      <point x="581" y="356"/>
      <point x="591" y="351"/>
      <point x="600" y="349" type="curve"/>
      <point x="613" y="338"/>
      <point x="623" y="321"/>
      <point x="623" y="297" type="curve" smooth="yes"/>
      <point x="623" y="204"/>
      <point x="565" y="131"/>
      <point x="521" y="100" type="curve" smooth="yes"/>
      <point x="418" y="29" type="line" smooth="yes"/>
      <point x="391" y="11"/>
      <point x="346" y="-17"/>
    </contour>
    <contour>
      <point x="236" y="389" type="curve" smooth="yes"/>
      <point x="209" y="389"/>
      <point x="180" y="401"/>
      <point x="161" y="417" type="curve" smooth="yes"/>
      <point x="148" y="428"/>
      <point x="142" y="448"/>
      <point x="137" y="466" type="curve"/>
      <point x="156" y="463"/>
      <point x="175" y="462"/>
      <point x="194" y="462" type="curve" smooth="yes"/>
      <point x="235" y="462"/>
      <point x="276" y="467"/>
      <point x="315" y="473" type="curve"/>
      <point x="304" y="430"/>
      <point x="285" y="389"/>
    </contour>
    <contour>
      <point x="463" y="386" type="curve" smooth="yes"/>
      <point x="406" y="386"/>
      <point x="401" y="410"/>
      <point x="397" y="448" type="curve"/>
      <point x="443" y="455" type="line"/>
      <point x="444" y="482" type="line"/>
      <point x="395" y="474" type="line"/>
      <point x="392" y="483"/>
      <point x="394" y="516"/>
      <point x="387" y="532" type="curve" smooth="yes"/>
      <point x="377" y="555"/>
      <point x="347" y="544"/>
      <point x="330" y="551" type="curve"/>
      <point x="337" y="586"/>
      <point x="399" y="641"/>
      <point x="428" y="682" type="curve"/>
      <point x="537" y="562" type="line"/>
      <point x="546" y="564"/>
      <point x="560" y="569"/>
      <point x="572" y="569" type="curve" smooth="yes"/>
      <point x="586" y="569"/>
      <point x="597" y="563"/>
      <point x="597" y="541" type="curve" smooth="yes"/>
      <point x="597" y="514"/>
      <point x="524" y="497"/>
      <point x="524" y="446" type="curve" smooth="yes"/>
      <point x="524" y="431"/>
      <point x="527" y="418"/>
      <point x="532" y="406" type="curve"/>
      <point x="513" y="396"/>
      <point x="479" y="386"/>
    </contour>
    <contour>
      <point x="431" y="574" type="curve" smooth="yes"/>
      <point x="444" y="574"/>
      <point x="454" y="581"/>
      <point x="454" y="592" type="curve" smooth="yes"/>
      <point x="454" y="605"/>
      <point x="437" y="620"/>
      <point x="416" y="620" type="curve" smooth="yes"/>
      <point x="404" y="620"/>
      <point x="395" y="615"/>
      <point x="393" y="607" type="curve"/>
      <point x="392" y="605"/>
      <point x="392" y="604"/>
      <point x="392" y="602" type="curve" smooth="yes"/>
      <point x="392" y="589"/>
      <point x="409" y="574"/>
    </contour>
    <contour>
      <point x="666" y="367" type="curve" smooth="yes"/>
      <point x="618" y="367"/>
      <point x="554" y="395"/>
      <point x="554" y="441" type="curve" smooth="yes"/>
      <point x="554" y="488"/>
      <point x="628" y="501"/>
      <point x="628" y="539" type="curve" smooth="yes"/>
      <point x="628" y="576"/>
      <point x="609" y="595"/>
      <point x="578" y="595" type="curve" smooth="yes"/>
      <point x="570" y="595"/>
      <point x="560" y="594"/>
      <point x="550" y="591" type="curve"/>
      <point x="444" y="711" type="line"/>
      <point x="477" y="747"/>
      <point x="525" y="770"/>
      <point x="568" y="770" type="curve" smooth="yes"/>
      <point x="674" y="770"/>
      <point x="728" y="694"/>
      <point x="728" y="638" type="curve" smooth="yes"/>
      <point x="728" y="615"/>
      <point x="718" y="566"/>
      <point x="704" y="551" type="curve"/>
      <point x="712" y="487"/>
      <point x="754" y="480"/>
      <point x="754" y="438" type="curve" smooth="yes"/>
      <point x="754" y="408"/>
      <point x="746" y="367"/>
    </contour>
  </outline>
</glyph>
<glyph name="u14408" format="2">
  <advance width="1580"/>
  <unicode hex="14408"/>
  <outline>
    <contour>
      <point x="521" y="-47" type="curve" smooth="yes"/>
      <point x="581" y="-47"/>
      <point x="695" y="22"/>
      <point x="790" y="96" type="curve"/>
      <point x="885" y="22"/>
      <point x="999" y="-47"/>
      <point x="1059" y="-47" type="curve" smooth="yes"/>
      <point x="1100" y="-47"/>
      <point x="1134" y="-25"/>
      <point x="1171" y="1" type="curve" smooth="yes"/>
      <point x="1284" y="79" type="line" smooth="yes"/>
      <point x="1366" y="135"/>
      <point x="1397" y="236"/>
      <point x="1397" y="299" type="curve" smooth="yes"/>
      <point x="1397" y="313"/>
      <point x="1393" y="327"/>
      <point x="1387" y="339" type="curve"/>
      <point x="1396" y="338"/>
      <point x="1404" y="337"/>
      <point x="1412" y="337" type="curve" smooth="yes"/>
      <point x="1471" y="337"/>
      <point x="1530" y="364"/>
      <point x="1530" y="429" type="curve" smooth="yes"/>
      <point x="1530" y="494"/>
      <point x="1491" y="483"/>
      <point x="1477" y="552" type="curve"/>
      <point x="1491" y="575"/>
      <point x="1502" y="609"/>
      <point x="1502" y="639" type="curve" smooth="yes"/>
      <point x="1502" y="710"/>
      <point x="1440" y="800"/>
      <point x="1302" y="800" type="curve" smooth="yes"/>
      <point x="1261" y="800"/>
      <point x="1174" y="761"/>
      <point x="1148" y="707" type="curve"/>
      <point x="1152" y="703" type="line"/>
      <point x="1122" y="663"/>
      <point x="1046" y="589"/>
      <point x="1046" y="549" type="curve" smooth="yes"/>
      <point x="1046" y="530"/>
      <point x="1061" y="517"/>
      <point x="1102" y="517" type="curve"/>
      <point x="1122" y="456"/>
      <point x="1089" y="360"/>
      <point x="1193" y="355" type="curve"/>
      <point x="1129" y="308"/>
      <point x="1084" y="223"/>
      <point x="1050" y="140" type="curve"/>
      <point x="1025" y="153"/>
      <point x="964" y="176"/>
      <point x="906" y="198" type="curve"/>
      <point x="923" y="216"/>
      <point x="935" y="231"/>
      <point x="941" y="242" type="curve"/>
      <point x="1018" y="261"/>
      <point x="1080" y="304"/>
      <point x="1080" y="405" type="curve" smooth="yes"/>
      <point x="1080" y="445"/>
      <point x="1063" y="450"/>
      <point x="1045" y="450" type="curve" smooth="yes"/>
      <point x="1026" y="450"/>
      <point x="1004" y="421"/>
      <point x="967" y="421" type="curve" smooth="yes"/>
      <point x="948" y="421"/>
      <point x="902" y="450"/>
      <point x="865" y="450" type="curve" smooth="yes"/>
      <point x="853" y="450"/>
      <point x="850" y="443"/>
      <point x="850" y="430" type="curve" smooth="yes"/>
      <point x="850" y="400"/>
      <point x="857" y="369"/>
      <point x="857" y="337" type="curve" smooth="yes"/>
      <point x="857" y="288"/>
      <point x="828" y="260"/>
      <point x="790" y="242" type="curve"/>
      <point x="743" y="270"/>
      <point x="723" y="290"/>
      <point x="723" y="338" type="curve" smooth="yes"/>
      <point x="723" y="370"/>
      <point x="730" y="400"/>
      <point x="730" y="430" type="curve" smooth="yes"/>
      <point x="730" y="443"/>
      <point x="727" y="450"/>
      <point x="715" y="450" type="curve" smooth="yes"/>
      <point x="678" y="450"/>
      <point x="632" y="421"/>
      <point x="613" y="421" type="curve" smooth="yes"/>
      <point x="576" y="421"/>
      <point x="554" y="450"/>
      <point x="535" y="450" type="curve" smooth="yes"/>
      <point x="517" y="450"/>
      <point x="500" y="445"/>
      <point x="500" y="405" type="curve" smooth="yes"/>
      <point x="500" y="304"/>
      <point x="562" y="261"/>
      <point x="639" y="242" type="curve"/>
      <point x="645" y="231"/>
      <point x="657" y="216"/>
      <point x="674" y="198" type="curve"/>
      <point x="616" y="177"/>
      <point x="555" y="153"/>
      <point x="530" y="140" type="curve"/>
      <point x="496" y="223"/>
      <point x="451" y="308"/>
      <point x="387" y="355" type="curve"/>
      <point x="491" y="360"/>
      <point x="458" y="456"/>
      <point x="478" y="517" type="curve"/>
      <point x="519" y="517"/>
      <point x="534" y="530"/>
      <point x="534" y="549" type="curve" smooth="yes"/>
      <point x="534" y="589"/>
      <point x="458" y="663"/>
      <point x="428" y="703" type="curve"/>
      <point x="432" y="707" type="line"/>
      <point x="406" y="761"/>
      <point x="319" y="800"/>
      <point x="278" y="800" type="curve" smooth="yes"/>
      <point x="140" y="800"/>
      <point x="78" y="710"/>
      <point x="78" y="639" type="curve" smooth="yes"/>
      <point x="78" y="609"/>
      <point x="89" y="575"/>
      <point x="103" y="552" type="curve"/>
      <point x="89" y="483"/>
      <point x="50" y="494"/>
      <point x="50" y="429" type="curve" smooth="yes"/>
      <point x="50" y="364"/>
      <point x="109" y="337"/>
      <point x="168" y="337" type="curve" smooth="yes"/>
      <point x="176" y="337"/>
      <point x="184" y="338"/>
      <point x="193" y="339" type="curve"/>
      <point x="187" y="327"/>
      <point x="183" y="313"/>
      <point x="183" y="299" type="curve" smooth="yes"/>
      <point x="183" y="236"/>
      <point x="214" y="135"/>
      <point x="296" y="79" type="curve" smooth="yes"/>
      <point x="409" y="1" type="line" smooth="yes"/>
      <point x="446" y="-25"/>
      <point x="480" y="-47"/>
    </contour>
    <contour>
      <point x="171" y="367" type="curve" smooth="yes"/>
      <point x="97" y="367"/>
      <point x="84" y="405"/>
      <point x="84" y="435" type="curve" smooth="yes"/>
      <point x="84" y="477"/>
      <point x="125" y="489"/>
      <point x="134" y="551" type="curve"/>
      <point x="120" y="566"/>
      <point x="110" y="615"/>
      <point x="110" y="638" type="curve" smooth="yes"/>
      <point x="110" y="694"/>
      <point x="164" y="770"/>
      <point x="270" y="770" type="curve" smooth="yes"/>
      <point x="313" y="770"/>
      <point x="361" y="747"/>
      <point x="394" y="711" type="curve"/>
      <point x="288" y="591" type="line"/>
      <point x="278" y="594"/>
      <point x="268" y="595"/>
      <point x="260" y="595" type="curve" smooth="yes"/>
      <point x="229" y="595"/>
      <point x="210" y="576"/>
      <point x="210" y="539" type="curve" smooth="yes"/>
      <point x="210" y="501"/>
      <point x="284" y="488"/>
      <point x="284" y="441" type="curve" smooth="yes"/>
      <point x="284" y="394"/>
      <point x="218" y="367"/>
    </contour>
    <contour>
      <point x="522" y="-17" type="curve" smooth="yes"/>
      <point x="492" y="-17"/>
      <point x="447" y="11"/>
      <point x="420" y="29" type="curve" smooth="yes"/>
      <point x="317" y="100" type="line" smooth="yes"/>
      <point x="273" y="131"/>
      <point x="215" y="204"/>
      <point x="215" y="297" type="curve" smooth="yes"/>
      <point x="215" y="322"/>
      <point x="226" y="340"/>
      <point x="240" y="350" type="curve"/>
      <point x="247" y="352"/>
      <point x="256" y="357"/>
      <point x="263" y="361" type="curve"/>
      <point x="267" y="362"/>
      <point x="272" y="363"/>
      <point x="276" y="363" type="curve" smooth="yes"/>
      <point x="406" y="363"/>
      <point x="486" y="169"/>
      <point x="509" y="101" type="curve"/>
      <point x="539" y="103" type="line"/>
      <point x="545" y="117"/>
      <point x="807" y="214"/>
      <point x="820" y="223" type="curve" smooth="yes"/>
      <point x="879" y="264"/>
      <point x="891" y="297"/>
      <point x="891" y="330" type="curve" smooth="yes"/>
      <point x="891" y="351"/>
      <point x="886" y="371"/>
      <point x="885" y="393" type="curve"/>
      <point x="885" y="402"/>
      <point x="886" y="407"/>
      <point x="893" y="407" type="curve" smooth="yes"/>
      <point x="912" y="407"/>
      <point x="928" y="387"/>
      <point x="969" y="387" type="curve" smooth="yes"/>
      <point x="1002" y="387"/>
      <point x="1039" y="415"/>
      <point x="1050" y="418" type="curve"/>
      <point x="1044" y="311"/>
      <point x="1000" y="295"/>
      <point x="923" y="270" type="curve"/>
      <point x="875" y="187"/>
      <point x="599" y="-17"/>
    </contour>
    <contour>
      <point x="375" y="386" type="curve" smooth="yes"/>
      <point x="359" y="386"/>
      <point x="325" y="396"/>
      <point x="306" y="406" type="curve"/>
      <point x="311" y="418"/>
      <point x="314" y="431"/>
      <point x="314" y="446" type="curve" smooth="yes"/>
      <point x="314" y="497"/>
      <point x="241" y="514"/>
      <point x="241" y="541" type="curve" smooth="yes"/>
      <point x="241" y="563"/>
      <point x="252" y="569"/>
      <point x="266" y="569" type="curve" smooth="yes"/>
      <point x="278" y="569"/>
      <point x="292" y="564"/>
      <point x="301" y="562" type="curve"/>
      <point x="410" y="682" type="line"/>
      <point x="439" y="641"/>
      <point x="501" y="586"/>
      <point x="508" y="551" type="curve"/>
      <point x="491" y="544"/>
      <point x="462" y="554"/>
      <point x="451" y="532" type="curve" smooth="yes"/>
      <point x="444" y="518"/>
      <point x="447" y="491"/>
      <point x="443" y="474" type="curve"/>
      <point x="395" y="482" type="line"/>
      <point x="396" y="455" type="line"/>
      <point x="441" y="448" type="line"/>
      <point x="437" y="410"/>
      <point x="432" y="386"/>
    </contour>
    <contour>
      <point x="707" y="211" type="line"/>
      <point x="684" y="233"/>
      <point x="667" y="254"/>
      <point x="657" y="270" type="curve"/>
      <point x="580" y="295"/>
      <point x="536" y="311"/>
      <point x="530" y="418" type="curve"/>
      <point x="541" y="415"/>
      <point x="578" y="387"/>
      <point x="611" y="387" type="curve" smooth="yes"/>
      <point x="652" y="387"/>
      <point x="668" y="407"/>
      <point x="687" y="407" type="curve" smooth="yes"/>
      <point x="694" y="407"/>
      <point x="695" y="402"/>
      <point x="695" y="393" type="curve"/>
      <point x="694" y="371"/>
      <point x="689" y="351"/>
      <point x="689" y="330" type="curve" smooth="yes"/>
      <point x="689" y="298"/>
      <point x="700" y="267"/>
      <point x="753" y="228" type="curve"/>
    </contour>
    <contour>
      <point x="407" y="574" type="curve" smooth="yes"/>
      <point x="429" y="574"/>
      <point x="446" y="589"/>
      <point x="446" y="602" type="curve" smooth="yes"/>
      <point x="446" y="604"/>
      <point x="446" y="605"/>
      <point x="445" y="607" type="curve"/>
      <point x="443" y="615"/>
      <point x="434" y="620"/>
      <point x="422" y="620" type="curve" smooth="yes"/>
      <point x="401" y="620"/>
      <point x="384" y="605"/>
      <point x="384" y="592" type="curve" smooth="yes"/>
      <point x="384" y="581"/>
      <point x="394" y="574"/>
    </contour>
    <contour>
      <point x="1058" y="-17" type="curve" smooth="yes"/>
      <point x="1015" y="-17"/>
      <point x="910" y="47"/>
      <point x="817" y="117" type="curve"/>
      <point x="840" y="136"/>
      <point x="862" y="155"/>
      <point x="881" y="173" type="curve"/>
      <point x="956" y="144"/>
      <point x="1037" y="110"/>
      <point x="1041" y="103" type="curve"/>
      <point x="1071" y="101" type="line"/>
      <point x="1094" y="169"/>
      <point x="1174" y="363"/>
      <point x="1304" y="363" type="curve" smooth="yes"/>
      <point x="1308" y="363"/>
      <point x="1313" y="362"/>
      <point x="1317" y="361" type="curve"/>
      <point x="1324" y="357"/>
      <point x="1333" y="353"/>
      <point x="1340" y="350" type="curve"/>
      <point x="1354" y="340"/>
      <point x="1365" y="322"/>
      <point x="1365" y="297" type="curve" smooth="yes"/>
      <point x="1365" y="204"/>
      <point x="1307" y="131"/>
      <point x="1263" y="100" type="curve" smooth="yes"/>
      <point x="1160" y="29" type="line" smooth="yes"/>
      <point x="1133" y="11"/>
      <point x="1088" y="-17"/>
    </contour>
    <contour>
      <point x="1205" y="386" type="curve" smooth="yes"/>
      <point x="1148" y="386"/>
      <point x="1143" y="410"/>
      <point x="1139" y="448" type="curve"/>
      <point x="1185" y="455" type="line"/>
      <point x="1186" y="482" type="line"/>
      <point x="1137" y="474" type="line"/>
      <point x="1133" y="488"/>
      <point x="1136" y="517"/>
      <point x="1129" y="532" type="curve" smooth="yes"/>
      <point x="1119" y="554"/>
      <point x="1089" y="544"/>
      <point x="1072" y="551" type="curve"/>
      <point x="1079" y="586"/>
      <point x="1141" y="641"/>
      <point x="1170" y="682" type="curve"/>
      <point x="1279" y="562" type="line"/>
      <point x="1288" y="564"/>
      <point x="1302" y="569"/>
      <point x="1314" y="569" type="curve" smooth="yes"/>
      <point x="1328" y="569"/>
      <point x="1339" y="563"/>
      <point x="1339" y="541" type="curve" smooth="yes"/>
      <point x="1339" y="514"/>
      <point x="1266" y="497"/>
      <point x="1266" y="446" type="curve" smooth="yes"/>
      <point x="1266" y="431"/>
      <point x="1269" y="418"/>
      <point x="1274" y="406" type="curve"/>
      <point x="1255" y="396"/>
      <point x="1221" y="386"/>
    </contour>
    <contour>
      <point x="1173" y="574" type="curve" smooth="yes"/>
      <point x="1186" y="574"/>
      <point x="1196" y="581"/>
      <point x="1196" y="592" type="curve" smooth="yes"/>
      <point x="1196" y="605"/>
      <point x="1179" y="620"/>
      <point x="1158" y="620" type="curve" smooth="yes"/>
      <point x="1146" y="620"/>
      <point x="1137" y="615"/>
      <point x="1135" y="607" type="curve"/>
      <point x="1134" y="605"/>
      <point x="1134" y="604"/>
      <point x="1134" y="602" type="curve" smooth="yes"/>
      <point x="1134" y="589"/>
      <point x="1151" y="574"/>
    </contour>
    <contour>
      <point x="1409" y="367" type="curve" smooth="yes"/>
      <point x="1362" y="367"/>
      <point x="1296" y="393"/>
      <point x="1296" y="441" type="curve" smooth="yes"/>
      <point x="1296" y="488"/>
      <point x="1370" y="501"/>
      <point x="1370" y="539" type="curve" smooth="yes"/>
      <point x="1370" y="576"/>
      <point x="1351" y="595"/>
      <point x="1320" y="595" type="curve" smooth="yes"/>
      <point x="1312" y="595"/>
      <point x="1302" y="594"/>
      <point x="1292" y="591" type="curve"/>
      <point x="1186" y="711" type="line"/>
      <point x="1219" y="747"/>
      <point x="1267" y="770"/>
      <point x="1310" y="770" type="curve" smooth="yes"/>
      <point x="1416" y="770"/>
      <point x="1470" y="694"/>
      <point x="1470" y="638" type="curve" smooth="yes"/>
      <point x="1470" y="615"/>
      <point x="1460" y="566"/>
      <point x="1446" y="551" type="curve"/>
      <point x="1455" y="489"/>
      <point x="1496" y="477"/>
      <point x="1496" y="435" type="curve" smooth="yes"/>
      <point x="1496" y="405"/>
      <point x="1483" y="367"/>
    </contour>
  </outline>
</glyph>
<glyph name="u14409" format="2">
  <advance width="966"/>
  <unicode hex="14409"/>
  <outline>
    <contour>
      <point x="708" y="-30" type="curve" smooth="yes"/>
      <point x="812" y="-30"/>
      <point x="916" y="11"/>
      <point x="916" y="129" type="curve" smooth="yes"/>
      <point x="916" y="221"/>
      <point x="854" y="222"/>
      <point x="828" y="348" type="curve"/>
      <point x="854" y="390"/>
      <point x="874" y="452"/>
      <point x="874" y="507" type="curve" smooth="yes"/>
      <point x="874" y="637"/>
      <point x="758" y="800"/>
      <point x="533" y="800" type="curve" smooth="yes"/>
      <point x="411" y="800"/>
      <point x="275" y="730"/>
      <point x="228" y="631" type="curve"/>
      <point x="237" y="621" type="line"/>
      <point x="168" y="499"/>
      <point x="50" y="398"/>
      <point x="50" y="336" type="curve" smooth="yes"/>
      <point x="50" y="301"/>
      <point x="75" y="300"/>
      <point x="150" y="300" type="curve"/>
      <point x="188" y="185"/>
      <point x="142" y="-10"/>
      <point x="326" y="-10" type="curve" smooth="yes"/>
      <point x="372" y="-10"/>
      <point x="446" y="11"/>
      <point x="485" y="39" type="curve"/>
      <point x="536" y="-12"/>
      <point x="627" y="-30"/>
    </contour>
    <contour>
      <point x="332" y="20" type="curve" smooth="yes"/>
      <point x="223" y="20"/>
      <point x="212" y="86"/>
      <point x="203" y="166" type="curve"/>
      <point x="234" y="168"/>
      <point x="270" y="171"/>
      <point x="298" y="172" type="curve"/>
      <point x="300" y="202" type="line"/>
      <point x="270" y="201"/>
      <point x="231" y="197"/>
      <point x="199" y="195" type="curve"/>
      <point x="196" y="217" type="line" smooth="yes"/>
      <point x="191" y="252"/>
      <point x="192" y="286"/>
      <point x="183" y="304" type="curve" smooth="yes"/>
      <point x="163" y="345"/>
      <point x="114" y="326"/>
      <point x="83" y="339" type="curve"/>
      <point x="96" y="405"/>
      <point x="209" y="502"/>
      <point x="259" y="597" type="curve"/>
      <point x="467" y="367" type="line"/>
      <point x="483" y="370"/>
      <point x="509" y="380"/>
      <point x="531" y="380" type="curve" smooth="yes"/>
      <point x="556" y="380"/>
      <point x="601" y="378"/>
      <point x="601" y="338" type="curve" smooth="yes"/>
      <point x="601" y="289"/>
      <point x="445" y="248"/>
      <point x="445" y="137" type="curve" smooth="yes"/>
      <point x="445" y="108"/>
      <point x="453" y="84"/>
      <point x="466" y="63" type="curve"/>
      <point x="437" y="43"/>
      <point x="384" y="20"/>
    </contour>
    <contour>
      <point x="265" y="416" type="curve" smooth="yes"/>
      <point x="287" y="416"/>
      <point x="303" y="427"/>
      <point x="303" y="446" type="curve" smooth="yes"/>
      <point x="303" y="468"/>
      <point x="275" y="493"/>
      <point x="240" y="493" type="curve" smooth="yes"/>
      <point x="220" y="493"/>
      <point x="205" y="485"/>
      <point x="202" y="472" type="curve"/>
      <point x="200" y="468"/>
      <point x="200" y="466"/>
      <point x="200" y="463" type="curve" smooth="yes"/>
      <point x="200" y="441"/>
      <point x="228" y="416"/>
    </contour>
    <contour>
      <point x="704" y="0" type="curve" smooth="yes"/>
      <point x="662" y="0"/>
      <point x="475" y="23"/>
      <point x="475" y="137" type="curve" smooth="yes"/>
      <point x="475" y="227"/>
      <point x="631" y="265"/>
      <point x="631" y="338" type="curve" smooth="yes"/>
      <point x="631" y="386"/>
      <point x="601" y="410"/>
      <point x="540" y="410" type="curve" smooth="yes"/>
      <point x="525" y="410"/>
      <point x="505" y="407"/>
      <point x="484" y="402" type="curve"/>
      <point x="262" y="640" type="line"/>
      <point x="327" y="708"/>
      <point x="407" y="770"/>
      <point x="529" y="770" type="curve" smooth="yes"/>
      <point x="739" y="770"/>
      <point x="844" y="617"/>
      <point x="844" y="510" type="curve" smooth="yes"/>
      <point x="844" y="467"/>
      <point x="826" y="380"/>
      <point x="797" y="352" type="curve"/>
      <point x="823" y="221"/>
      <point x="886" y="202"/>
      <point x="886" y="131" type="curve" smooth="yes"/>
      <point x="886" y="75"/>
      <point x="863" y="0"/>
    </contour>
  </outline>
</glyph>
<glyph name="u1440A" format="2">
  <advance width="966"/>
  <unicode hex="1440A"/>
  <outline>
    <contour>
      <point x="708" y="-30" type="curve" smooth="yes"/>
      <point x="812" y="-30"/>
      <point x="916" y="11"/>
      <point x="916" y="129" type="curve" smooth="yes"/>
      <point x="916" y="221"/>
      <point x="854" y="222"/>
      <point x="828" y="348" type="curve"/>
      <point x="854" y="390"/>
      <point x="874" y="452"/>
      <point x="874" y="507" type="curve" smooth="yes"/>
      <point x="874" y="637"/>
      <point x="752" y="800"/>
      <point x="527" y="800" type="curve" smooth="yes"/>
      <point x="405" y="800"/>
      <point x="279" y="726"/>
      <point x="226" y="622" type="curve" smooth="yes"/>
      <point x="161" y="494"/>
      <point x="50" y="399"/>
      <point x="50" y="336" type="curve" smooth="yes"/>
      <point x="50" y="301"/>
      <point x="75" y="300"/>
      <point x="150" y="300" type="curve"/>
      <point x="188" y="185"/>
      <point x="142" y="-10"/>
      <point x="326" y="-10" type="curve" smooth="yes"/>
      <point x="372" y="-10"/>
      <point x="456" y="1"/>
      <point x="501" y="25" type="curve"/>
      <point x="553" y="-14"/>
      <point x="635" y="-30"/>
    </contour>
    <contour>
      <point x="514" y="191" type="curve" smooth="yes"/>
      <point x="494" y="191"/>
      <point x="477" y="208"/>
      <point x="477" y="228" type="curve" smooth="yes"/>
      <point x="477" y="250"/>
      <point x="494" y="267"/>
      <point x="514" y="267" type="curve" smooth="yes"/>
      <point x="536" y="267"/>
      <point x="553" y="250"/>
      <point x="553" y="228" type="curve" smooth="yes"/>
      <point x="553" y="208"/>
      <point x="536" y="191"/>
    </contour>
    <contour>
      <point x="360" y="411" type="curve" smooth="yes"/>
      <point x="338" y="411"/>
      <point x="321" y="428"/>
      <point x="321" y="448" type="curve" smooth="yes"/>
      <point x="321" y="470"/>
      <point x="338" y="487"/>
      <point x="360" y="487" type="curve" smooth="yes"/>
      <point x="380" y="487"/>
      <point x="397" y="470"/>
      <point x="397" y="448" type="curve" smooth="yes"/>
      <point x="397" y="428"/>
      <point x="380" y="411"/>
    </contour>
    <contour>
      <point x="704" y="0" type="curve" smooth="yes"/>
      <point x="672" y="0"/>
      <point x="572" y="3"/>
      <point x="518" y="58" type="curve"/>
      <point x="496" y="59" type="line"/>
      <point x="469" y="39"/>
      <point x="393" y="20"/>
      <point x="332" y="20" type="curve" smooth="yes"/>
      <point x="200" y="20"/>
      <point x="212" y="117"/>
      <point x="196" y="217" type="curve" smooth="yes"/>
      <point x="190" y="252"/>
      <point x="193" y="283"/>
      <point x="183" y="304" type="curve" smooth="yes"/>
      <point x="164" y="344"/>
      <point x="114" y="325"/>
      <point x="83" y="339" type="curve"/>
      <point x="94" y="402"/>
      <point x="194" y="495"/>
      <point x="243" y="589" type="curve" smooth="yes"/>
      <point x="297" y="693"/>
      <point x="399" y="770"/>
      <point x="529" y="770" type="curve" smooth="yes"/>
      <point x="739" y="770"/>
      <point x="844" y="617"/>
      <point x="844" y="510" type="curve" smooth="yes"/>
      <point x="844" y="467"/>
      <point x="826" y="380"/>
      <point x="797" y="352" type="curve"/>
      <point x="823" y="221"/>
      <point x="886" y="202"/>
      <point x="886" y="131" type="curve" smooth="yes"/>
      <point x="886" y="75"/>
      <point x="863" y="0"/>
    </contour>
    <contour>
      <point x="514" y="163" type="curve" smooth="yes"/>
      <point x="551" y="163"/>
      <point x="580" y="192"/>
      <point x="580" y="228" type="curve" smooth="yes"/>
      <point x="580" y="259"/>
      <point x="559" y="285"/>
      <point x="530" y="292" type="curve"/>
      <point x="530" y="644" type="line"/>
      <point x="656" y="512" type="line"/>
      <point x="627" y="506"/>
      <point x="606" y="480"/>
      <point x="606" y="448" type="curve" smooth="yes"/>
      <point x="606" y="412"/>
      <point x="635" y="383"/>
      <point x="671" y="383" type="curve" smooth="yes"/>
      <point x="708" y="383"/>
      <point x="737" y="412"/>
      <point x="737" y="448" type="curve" smooth="yes"/>
      <point x="737" y="473"/>
      <point x="724" y="494"/>
      <point x="704" y="506" type="curve"/>
      <point x="535" y="680" type="line"/>
      <point x="496" y="680" type="line"/>
      <point x="327" y="506" type="line"/>
      <point x="307" y="494"/>
      <point x="294" y="473"/>
      <point x="294" y="448" type="curve" smooth="yes"/>
      <point x="294" y="412"/>
      <point x="323" y="383"/>
      <point x="360" y="383" type="curve" smooth="yes"/>
      <point x="396" y="383"/>
      <point x="425" y="412"/>
      <point x="425" y="448" type="curve" smooth="yes"/>
      <point x="425" y="480"/>
      <point x="404" y="506"/>
      <point x="375" y="512" type="curve"/>
      <point x="500" y="643" type="line"/>
      <point x="500" y="292" type="line"/>
      <point x="471" y="286"/>
      <point x="449" y="260"/>
      <point x="449" y="228" type="curve" smooth="yes"/>
      <point x="449" y="192"/>
      <point x="478" y="163"/>
    </contour>
    <contour>
      <point x="671" y="411" type="curve" smooth="yes"/>
      <point x="651" y="411"/>
      <point x="634" y="428"/>
      <point x="634" y="448" type="curve" smooth="yes"/>
      <point x="634" y="470"/>
      <point x="651" y="487"/>
      <point x="671" y="487" type="curve" smooth="yes"/>
      <point x="693" y="487"/>
      <point x="710" y="470"/>
      <point x="710" y="448" type="curve" smooth="yes"/>
      <point x="710" y="428"/>
      <point x="693" y="411"/>
    </contour>
  </outline>
</glyph>
<glyph name="u1440B" format="2">
  <advance width="705"/>
  <unicode hex="1440B"/>
  <outline>
    <contour>
      <point x="374" y="-13" type="curve"/>
      <point x="397" y="5" type="line"/>
      <point x="300" y="133"/>
      <point x="184" y="51"/>
      <point x="184" y="111" type="curve" smooth="yes"/>
      <point x="184" y="135"/>
      <point x="198" y="153"/>
      <point x="198" y="201" type="curve" smooth="yes"/>
      <point x="198" y="226"/>
      <point x="193" y="240"/>
      <point x="183" y="274" type="curve" smooth="yes"/>
      <point x="170" y="317"/>
      <point x="116" y="296"/>
      <point x="84" y="309" type="curve"/>
      <point x="100" y="373"/>
      <point x="173" y="489"/>
      <point x="207" y="559" type="curve"/>
      <point x="584" y="547" type="line"/>
      <point x="583" y="450"/>
      <point x="611" y="355"/>
      <point x="611" y="261" type="curve" smooth="yes"/>
      <point x="611" y="199"/>
      <point x="584" y="91"/>
      <point x="584" y="-12" type="curve"/>
      <point x="611" y="-10" type="line"/>
      <point x="616" y="130"/>
      <point x="637" y="164"/>
      <point x="637" y="259" type="curve" smooth="yes"/>
      <point x="637" y="354"/>
      <point x="614" y="451"/>
      <point x="614" y="546" type="curve"/>
      <point x="645" y="545"/>
      <point x="655" y="560"/>
      <point x="655" y="581" type="curve" smooth="yes"/>
      <point x="655" y="612"/>
      <point x="639" y="651"/>
      <point x="635" y="664" type="curve" smooth="yes"/>
      <point x="607" y="751"/>
      <point x="614" y="849"/>
      <point x="590" y="939" type="curve" smooth="yes"/>
      <point x="584" y="960"/>
      <point x="568" y="960"/>
      <point x="553" y="960" type="curve" smooth="yes"/>
      <point x="315" y="960" type="line" smooth="yes"/>
      <point x="257" y="960"/>
      <point x="198" y="957"/>
      <point x="194" y="902" type="curve" smooth="yes"/>
      <point x="189" y="836"/>
      <point x="180" y="760"/>
      <point x="156" y="676" type="curve" smooth="yes"/>
      <point x="151" y="660"/>
      <point x="138" y="628"/>
      <point x="138" y="602" type="curve" smooth="yes"/>
      <point x="138" y="583"/>
      <point x="145" y="565"/>
      <point x="174" y="561" type="curve"/>
      <point x="109" y="441"/>
      <point x="50" y="354"/>
      <point x="50" y="306" type="curve" smooth="yes"/>
      <point x="50" y="271"/>
      <point x="75" y="270"/>
      <point x="150" y="270" type="curve"/>
      <point x="159" y="230"/>
      <point x="168" y="218"/>
      <point x="168" y="197" type="curve" smooth="yes"/>
      <point x="168" y="161"/>
      <point x="154" y="156"/>
      <point x="154" y="112" type="curve" smooth="yes"/>
      <point x="154" y="66"/>
      <point x="170" y="51"/>
      <point x="263" y="51" type="curve" smooth="yes"/>
      <point x="316" y="51"/>
      <point x="351" y="25"/>
    </contour>
    <contour>
      <point x="272" y="396" type="curve" smooth="yes"/>
      <point x="296" y="396"/>
      <point x="314" y="408"/>
      <point x="314" y="428" type="curve" smooth="yes"/>
      <point x="314" y="452"/>
      <point x="283" y="479"/>
      <point x="245" y="479" type="curve" smooth="yes"/>
      <point x="223" y="479"/>
      <point x="207" y="470"/>
      <point x="203" y="456" type="curve"/>
      <point x="201" y="452"/>
      <point x="201" y="450"/>
      <point x="201" y="447" type="curve" smooth="yes"/>
      <point x="201" y="423"/>
      <point x="232" y="396"/>
    </contour>
    <contour>
      <point x="441" y="301" type="line"/>
      <point x="480" y="326"/>
      <point x="497" y="360"/>
      <point x="497" y="405" type="curve" smooth="yes"/>
      <point x="497" y="454"/>
      <point x="480" y="478"/>
      <point x="446" y="499" type="curve"/>
      <point x="427" y="471" type="line"/>
      <point x="456" y="453"/>
      <point x="467" y="434"/>
      <point x="467" y="407" type="curve" smooth="yes"/>
      <point x="467" y="383"/>
      <point x="460" y="356"/>
      <point x="429" y="333" type="curve"/>
    </contour>
    <contour>
      <point x="603" y="575" type="curve" smooth="yes"/>
      <point x="189" y="588" type="line" smooth="yes"/>
      <point x="173" y="589"/>
      <point x="168" y="597"/>
      <point x="168" y="610" type="curve" smooth="yes"/>
      <point x="168" y="626"/>
      <point x="178" y="647"/>
      <point x="184" y="668" type="curve" smooth="yes"/>
      <point x="207" y="750"/>
      <point x="215" y="802"/>
      <point x="227" y="897" type="curve" smooth="yes"/>
      <point x="231" y="927"/>
      <point x="253" y="930"/>
      <point x="279" y="930" type="curve" smooth="yes"/>
      <point x="564" y="930" type="line"/>
      <point x="585" y="858"/>
      <point x="590" y="765"/>
      <point x="599" y="690" type="curve" smooth="yes"/>
      <point x="603" y="655"/>
      <point x="624" y="626"/>
      <point x="624" y="592" type="curve" smooth="yes"/>
      <point x="624" y="585"/>
      <point x="624" y="574"/>
    </contour>
  </outline>
</glyph>
<glyph name="u1440C" format="2">
  <advance width="584"/>
  <unicode hex="1440C"/>
  <outline>
    <contour>
      <point x="411" y="508" type="curve" smooth="yes"/>
      <point x="483" y="508"/>
      <point x="534" y="538"/>
      <point x="534" y="603" type="curve" smooth="yes"/>
      <point x="534" y="668"/>
      <point x="495" y="654"/>
      <point x="481" y="723" type="curve"/>
      <point x="495" y="746"/>
      <point x="506" y="780"/>
      <point x="506" y="810" type="curve" smooth="yes"/>
      <point x="506" y="881"/>
      <point x="444" y="970"/>
      <point x="314" y="970" type="curve" smooth="yes"/>
      <point x="246" y="970"/>
      <point x="178" y="932"/>
      <point x="152" y="878" type="curve"/>
      <point x="156" y="873" type="line"/>
      <point x="127" y="834"/>
      <point x="50" y="759"/>
      <point x="50" y="719" type="curve" smooth="yes"/>
      <point x="50" y="700"/>
      <point x="65" y="687"/>
      <point x="106" y="687" type="curve"/>
      <point x="127" y="624"/>
      <point x="91" y="525"/>
      <point x="206" y="525" type="curve" smooth="yes"/>
      <point x="231" y="525"/>
      <point x="275" y="536"/>
      <point x="298" y="551" type="curve"/>
      <point x="328" y="521"/>
      <point x="378" y="508"/>
    </contour>
    <contour>
      <point x="255" y="129" type="line"/>
      <point x="281" y="130" type="line"/>
      <point x="281" y="248" type="line"/>
      <point x="255" y="244" type="line"/>
    </contour>
    <contour>
      <point x="286" y="-57" type="curve"/>
      <point x="310" y="-57" type="line"/>
      <point x="382" y="-27"/>
      <point x="456" y="104"/>
      <point x="456" y="188" type="curve" smooth="yes"/>
      <point x="456" y="233"/>
      <point x="422" y="266"/>
      <point x="422" y="323" type="curve" smooth="yes"/>
      <point x="422" y="370"/>
      <point x="479" y="400"/>
      <point x="490" y="401" type="curve"/>
      <point x="502" y="431" type="line"/>
      <point x="477" y="457"/>
      <point x="443" y="463"/>
      <point x="410" y="463" type="curve" smooth="yes"/>
      <point x="364" y="463"/>
      <point x="320" y="447"/>
      <point x="298" y="418" type="curve"/>
      <point x="276" y="447"/>
      <point x="232" y="463"/>
      <point x="186" y="463" type="curve" smooth="yes"/>
      <point x="153" y="463"/>
      <point x="119" y="457"/>
      <point x="94" y="431" type="curve"/>
      <point x="106" y="401" type="line"/>
      <point x="117" y="400"/>
      <point x="174" y="370"/>
      <point x="174" y="323" type="curve" smooth="yes"/>
      <point x="174" y="266"/>
      <point x="140" y="233"/>
      <point x="140" y="188" type="curve" smooth="yes"/>
      <point x="140" y="104"/>
      <point x="214" y="-27"/>
    </contour>
    <contour>
      <point x="286" y="-33" type="line"/>
      <point x="232" y="8"/>
      <point x="170" y="102"/>
      <point x="170" y="189" type="curve" smooth="yes"/>
      <point x="170" y="223"/>
      <point x="204" y="270"/>
      <point x="204" y="320" type="curve" smooth="yes"/>
      <point x="204" y="363"/>
      <point x="169" y="406"/>
      <point x="128" y="422" type="curve"/>
      <point x="144" y="430"/>
      <point x="163" y="433"/>
      <point x="185" y="433" type="curve" smooth="yes"/>
      <point x="228" y="433"/>
      <point x="281" y="416"/>
      <point x="282" y="380" type="curve"/>
      <point x="298" y="381" type="line"/>
      <point x="314" y="380" type="line"/>
      <point x="315" y="416"/>
      <point x="368" y="433"/>
      <point x="411" y="433" type="curve" smooth="yes"/>
      <point x="433" y="433"/>
      <point x="452" y="430"/>
      <point x="468" y="422" type="curve"/>
      <point x="427" y="406"/>
      <point x="392" y="363"/>
      <point x="392" y="320" type="curve" smooth="yes"/>
      <point x="392" y="270"/>
      <point x="426" y="223"/>
      <point x="426" y="189" type="curve" smooth="yes"/>
      <point x="426" y="102"/>
      <point x="364" y="8"/>
      <point x="310" y="-33" type="curve"/>
    </contour>
    <contour>
      <point x="341" y="129" type="line"/>
      <point x="341" y="244" type="line"/>
      <point x="315" y="248" type="line"/>
      <point x="315" y="130" type="line"/>
    </contour>
    <contour>
      <point x="209" y="556" type="curve" smooth="yes"/>
      <point x="152" y="556"/>
      <point x="147" y="580"/>
      <point x="144" y="618" type="curve"/>
      <point x="190" y="625" type="line"/>
      <point x="191" y="652" type="line"/>
      <point x="141" y="644" type="line"/>
      <point x="137" y="659"/>
      <point x="140" y="687"/>
      <point x="133" y="702" type="curve" smooth="yes"/>
      <point x="123" y="724"/>
      <point x="93" y="714"/>
      <point x="76" y="721" type="curve"/>
      <point x="83" y="756"/>
      <point x="145" y="812"/>
      <point x="175" y="853" type="curve"/>
      <point x="283" y="733" type="line"/>
      <point x="292" y="735"/>
      <point x="306" y="740"/>
      <point x="318" y="740" type="curve" smooth="yes"/>
      <point x="332" y="740"/>
      <point x="343" y="734"/>
      <point x="343" y="712" type="curve" smooth="yes"/>
      <point x="343" y="685"/>
      <point x="270" y="668"/>
      <point x="270" y="617" type="curve" smooth="yes"/>
      <point x="270" y="602"/>
      <point x="273" y="588"/>
      <point x="279" y="577" type="curve"/>
      <point x="260" y="566"/>
      <point x="225" y="556"/>
    </contour>
    <contour>
      <point x="177" y="744" type="curve" smooth="yes"/>
      <point x="190" y="744"/>
      <point x="200" y="751"/>
      <point x="200" y="762" type="curve" smooth="yes"/>
      <point x="200" y="775"/>
      <point x="183" y="790"/>
      <point x="162" y="790" type="curve" smooth="yes"/>
      <point x="150" y="790"/>
      <point x="140" y="784"/>
      <point x="139" y="777" type="curve"/>
      <point x="138" y="775"/>
      <point x="138" y="774"/>
      <point x="138" y="772" type="curve" smooth="yes"/>
      <point x="138" y="759"/>
      <point x="155" y="744"/>
    </contour>
    <contour>
      <point x="412" y="538" type="curve" smooth="yes"/>
      <point x="391" y="538"/>
      <point x="300" y="552"/>
      <point x="300" y="612" type="curve" smooth="yes"/>
      <point x="300" y="659"/>
      <point x="374" y="672"/>
      <point x="374" y="710" type="curve" smooth="yes"/>
      <point x="374" y="747"/>
      <point x="355" y="766"/>
      <point x="324" y="766" type="curve" smooth="yes"/>
      <point x="316" y="766"/>
      <point x="306" y="765"/>
      <point x="296" y="762" type="curve"/>
      <point x="279" y="796"/>
      <point x="193" y="867"/>
      <point x="190" y="882" type="curve"/>
      <point x="223" y="918"/>
      <point x="271" y="940"/>
      <point x="314" y="940" type="curve" smooth="yes"/>
      <point x="420" y="940"/>
      <point x="474" y="865"/>
      <point x="474" y="809" type="curve" smooth="yes"/>
      <point x="474" y="786"/>
      <point x="464" y="737"/>
      <point x="450" y="722" type="curve"/>
      <point x="453" y="665"/>
      <point x="500" y="651"/>
      <point x="500" y="609" type="curve" smooth="yes"/>
      <point x="500" y="579"/>
      <point x="492" y="538"/>
    </contour>
  </outline>
</glyph>
<glyph name="u1440D" format="2">
  <advance width="1163"/>
  <unicode hex="1440D"/>
  <outline>
    <contour>
      <point x="712" y="-5" type="curve" smooth="yes"/>
      <point x="846" y="-5"/>
      <point x="776" y="33"/>
      <point x="890" y="87" type="curve" smooth="yes"/>
      <point x="934" y="108"/>
      <point x="997" y="129"/>
      <point x="1038" y="169" type="curve" smooth="yes"/>
      <point x="1095" y="224"/>
      <point x="1113" y="302"/>
      <point x="1113" y="375" type="curve" smooth="yes"/>
      <point x="1113" y="575"/>
      <point x="1021" y="720"/>
      <point x="819" y="720" type="curve" smooth="yes"/>
      <point x="695" y="720"/>
      <point x="664" y="641"/>
      <point x="536" y="597" type="curve" smooth="yes"/>
      <point x="427" y="560" type="line" smooth="yes"/>
      <point x="369" y="540"/>
      <point x="257" y="528"/>
      <point x="257" y="452" type="curve" smooth="yes"/>
      <point x="257" y="344"/>
      <point x="353" y="426"/>
      <point x="353" y="301" type="curve" smooth="yes"/>
      <point x="353" y="267" type="line" smooth="yes"/>
      <point x="353" y="258"/>
      <point x="354" y="249"/>
      <point x="356" y="241" type="curve"/>
      <point x="323" y="235"/>
      <point x="292" y="232"/>
      <point x="276" y="232" type="curve" smooth="yes"/>
      <point x="230" y="232"/>
      <point x="180" y="252"/>
      <point x="133" y="252" type="curve" smooth="yes"/>
      <point x="95" y="252"/>
      <point x="50" y="238"/>
      <point x="50" y="193" type="curve" smooth="yes"/>
      <point x="50" y="128"/>
      <point x="145" y="119"/>
      <point x="235" y="119" type="curve" smooth="yes"/>
      <point x="264" y="119"/>
      <point x="319" y="129"/>
      <point x="374" y="143" type="curve"/>
      <point x="367" y="130"/>
      <point x="360" y="116"/>
      <point x="360" y="97" type="curve" smooth="yes"/>
      <point x="360" y="5"/>
      <point x="590" y="-5"/>
    </contour>
    <contour>
      <point x="233" y="148" type="curve" smooth="yes"/>
      <point x="209" y="148"/>
      <point x="80" y="153"/>
      <point x="80" y="193" type="curve" smooth="yes"/>
      <point x="80" y="219"/>
      <point x="118" y="224"/>
      <point x="140" y="224" type="curve" smooth="yes"/>
      <point x="190" y="224"/>
      <point x="227" y="202"/>
      <point x="276" y="202" type="curve" smooth="yes"/>
      <point x="302" y="202"/>
      <point x="336" y="207"/>
      <point x="369" y="214" type="curve"/>
      <point x="377" y="204"/>
      <point x="388" y="198"/>
      <point x="401" y="196" type="curve"/>
      <point x="400" y="190"/>
      <point x="398" y="185"/>
      <point x="396" y="180" type="curve"/>
      <point x="342" y="162"/>
      <point x="276" y="148"/>
    </contour>
    <contour>
      <point x="716" y="25" type="curve" smooth="yes"/>
      <point x="540" y="25"/>
      <point x="387" y="46"/>
      <point x="387" y="96" type="curve" smooth="yes"/>
      <point x="387" y="128"/>
      <point x="432" y="168"/>
      <point x="432" y="198" type="curve" smooth="yes"/>
      <point x="432" y="222"/>
      <point x="402" y="224"/>
      <point x="388" y="233" type="curve"/>
      <point x="384" y="249"/>
      <point x="383" y="266"/>
      <point x="383" y="283" type="curve" smooth="yes"/>
      <point x="383" y="302" type="line" smooth="yes"/>
      <point x="383" y="331"/>
      <point x="380" y="358"/>
      <point x="359" y="379" type="curve" smooth="yes"/>
      <point x="330" y="408"/>
      <point x="284" y="398"/>
      <point x="284" y="448" type="curve" smooth="yes"/>
      <point x="284" y="515"/>
      <point x="388" y="516"/>
      <point x="435" y="532" type="curve" smooth="yes"/>
      <point x="548" y="570" type="line" smooth="yes"/>
      <point x="692" y="618"/>
      <point x="696" y="690"/>
      <point x="822" y="690" type="curve" smooth="yes"/>
      <point x="986" y="690"/>
      <point x="1083" y="562"/>
      <point x="1083" y="373" type="curve" smooth="yes"/>
      <point x="1083" y="292"/>
      <point x="1063" y="240"/>
      <point x="1017" y="190" type="curve" smooth="yes"/>
      <point x="973" y="142"/>
      <point x="903" y="128"/>
      <point x="846" y="100" type="curve" smooth="yes"/>
      <point x="759" y="57"/>
      <point x="828" y="25"/>
    </contour>
    <contour>
      <point x="891" y="258" type="curve"/>
      <point x="980" y="292"/>
      <point x="983" y="398"/>
      <point x="983" y="446" type="curve" smooth="yes"/>
      <point x="983" y="494"/>
      <point x="961" y="534"/>
      <point x="915" y="534" type="curve" smooth="yes"/>
      <point x="879" y="534"/>
      <point x="850" y="505"/>
      <point x="850" y="468" type="curve" smooth="yes"/>
      <point x="850" y="432"/>
      <point x="879" y="403"/>
      <point x="915" y="403" type="curve" smooth="yes"/>
      <point x="930" y="403"/>
      <point x="943" y="407"/>
      <point x="954" y="415" type="curve"/>
      <point x="953" y="361"/>
      <point x="928" y="305"/>
      <point x="883" y="286" type="curve"/>
      <point x="886" y="277"/>
      <point x="889" y="267"/>
    </contour>
    <contour>
      <point x="915" y="431" type="curve" smooth="yes"/>
      <point x="895" y="431"/>
      <point x="878" y="448"/>
      <point x="878" y="468" type="curve" smooth="yes"/>
      <point x="878" y="490"/>
      <point x="895" y="507"/>
      <point x="915" y="507" type="curve" smooth="yes"/>
      <point x="937" y="507"/>
      <point x="954" y="490"/>
      <point x="954" y="468" type="curve" smooth="yes"/>
      <point x="954" y="448"/>
      <point x="937" y="431"/>
    </contour>
  </outline>
</glyph>
<glyph name="u1440E" format="2">
  <advance width="762"/>
  <unicode hex="1440E"/>
  <outline>
    <contour>
      <point x="618" y="-5" type="curve" smooth="yes"/>
      <point x="662" y="-5"/>
      <point x="712" y="50"/>
      <point x="712" y="101" type="curve" smooth="yes"/>
      <point x="712" y="179"/>
      <point x="620" y="168"/>
      <point x="563" y="204" type="curve"/>
      <point x="546" y="303"/>
      <point x="536" y="412"/>
      <point x="528" y="513" type="curve"/>
      <point x="542" y="509"/>
      <point x="556" y="508"/>
      <point x="567" y="508" type="curve" smooth="yes"/>
      <point x="639" y="508"/>
      <point x="690" y="538"/>
      <point x="690" y="603" type="curve" smooth="yes"/>
      <point x="690" y="668"/>
      <point x="651" y="654"/>
      <point x="637" y="723" type="curve"/>
      <point x="651" y="746"/>
      <point x="662" y="780"/>
      <point x="662" y="810" type="curve" smooth="yes"/>
      <point x="662" y="881"/>
      <point x="600" y="970"/>
      <point x="470" y="970" type="curve" smooth="yes"/>
      <point x="402" y="970"/>
      <point x="334" y="932"/>
      <point x="308" y="878" type="curve"/>
      <point x="312" y="873" type="line"/>
      <point x="283" y="834"/>
      <point x="206" y="759"/>
      <point x="206" y="719" type="curve" smooth="yes"/>
      <point x="206" y="700"/>
      <point x="221" y="687"/>
      <point x="262" y="687" type="curve"/>
      <point x="265" y="678"/>
      <point x="267" y="669"/>
      <point x="268" y="659" type="curve"/>
      <point x="254" y="657"/>
      <point x="238" y="656"/>
      <point x="228" y="656" type="curve" smooth="yes"/>
      <point x="177" y="656"/>
      <point x="138" y="685"/>
      <point x="89" y="685" type="curve" smooth="yes"/>
      <point x="64" y="685"/>
      <point x="50" y="669"/>
      <point x="50" y="642" type="curve" smooth="yes"/>
      <point x="50" y="586"/>
      <point x="135" y="563"/>
      <point x="192" y="563" type="curve" smooth="yes"/>
      <point x="219" y="563"/>
      <point x="253" y="572"/>
      <point x="277" y="582" type="curve"/>
      <point x="285" y="550"/>
      <point x="304" y="526"/>
      <point x="360" y="525" type="curve"/>
      <point x="362" y="451"/>
      <point x="374" y="374"/>
      <point x="374" y="290" type="curve" smooth="yes"/>
      <point x="374" y="217"/>
      <point x="352" y="157"/>
      <point x="352" y="95" type="curve" smooth="yes"/>
      <point x="352" y="43"/>
      <point x="398" y="49"/>
      <point x="460" y="28" type="curve" smooth="yes"/>
      <point x="499" y="15"/>
      <point x="572" y="-5"/>
    </contour>
    <contour>
      <point x="194" y="593" type="curve" smooth="yes"/>
      <point x="143" y="593"/>
      <point x="80" y="608"/>
      <point x="80" y="643" type="curve" smooth="yes"/>
      <point x="80" y="648"/>
      <point x="82" y="655"/>
      <point x="91" y="655" type="curve" smooth="yes"/>
      <point x="140" y="655"/>
      <point x="169" y="626"/>
      <point x="221" y="626" type="curve" smooth="yes"/>
      <point x="237" y="626"/>
      <point x="256" y="628"/>
      <point x="271" y="630" type="curve"/>
      <point x="271" y="623"/>
      <point x="272" y="616"/>
      <point x="272" y="609" type="curve"/>
      <point x="252" y="601"/>
      <point x="224" y="593"/>
    </contour>
    <contour>
      <point x="615" y="25" type="curve" smooth="yes"/>
      <point x="574" y="25"/>
      <point x="414" y="62"/>
      <point x="384" y="86" type="curve"/>
      <point x="384" y="141"/>
      <point x="404" y="198"/>
      <point x="404" y="292" type="curve" smooth="yes"/>
      <point x="404" y="372"/>
      <point x="393" y="454"/>
      <point x="390" y="528" type="curve"/>
      <point x="412" y="532"/>
      <point x="438" y="541"/>
      <point x="454" y="551" type="curve"/>
      <point x="465" y="540"/>
      <point x="479" y="531"/>
      <point x="494" y="524" type="curve"/>
      <point x="532" y="181" type="line"/>
      <point x="576" y="134"/>
      <point x="681" y="162"/>
      <point x="681" y="95" type="curve" smooth="yes"/>
      <point x="681" y="62"/>
      <point x="644" y="25"/>
    </contour>
    <contour>
      <point x="365" y="556" type="curve" smooth="yes"/>
      <point x="308" y="556"/>
      <point x="303" y="580"/>
      <point x="299" y="618" type="curve"/>
      <point x="344" y="625" type="line"/>
      <point x="345" y="652" type="line"/>
      <point x="297" y="644" type="line"/>
      <point x="293" y="659"/>
      <point x="297" y="685"/>
      <point x="289" y="702" type="curve" smooth="yes"/>
      <point x="279" y="723"/>
      <point x="249" y="715"/>
      <point x="232" y="721" type="curve"/>
      <point x="239" y="756"/>
      <point x="301" y="812"/>
      <point x="331" y="853" type="curve"/>
      <point x="439" y="733" type="line"/>
      <point x="448" y="735"/>
      <point x="462" y="740"/>
      <point x="474" y="740" type="curve" smooth="yes"/>
      <point x="488" y="740"/>
      <point x="499" y="734"/>
      <point x="499" y="712" type="curve" smooth="yes"/>
      <point x="499" y="685"/>
      <point x="426" y="668"/>
      <point x="426" y="617" type="curve" smooth="yes"/>
      <point x="426" y="602"/>
      <point x="429" y="588"/>
      <point x="435" y="577" type="curve"/>
      <point x="416" y="566"/>
      <point x="381" y="556"/>
    </contour>
    <contour>
      <point x="333" y="744" type="curve" smooth="yes"/>
      <point x="346" y="744"/>
      <point x="356" y="751"/>
      <point x="356" y="762" type="curve" smooth="yes"/>
      <point x="356" y="775"/>
      <point x="339" y="790"/>
      <point x="318" y="790" type="curve" smooth="yes"/>
      <point x="306" y="790"/>
      <point x="297" y="785"/>
      <point x="295" y="777" type="curve"/>
      <point x="294" y="775"/>
      <point x="294" y="774"/>
      <point x="294" y="772" type="curve" smooth="yes"/>
      <point x="294" y="759"/>
      <point x="311" y="744"/>
    </contour>
    <contour>
      <point x="568" y="538" type="curve" smooth="yes"/>
      <point x="547" y="538"/>
      <point x="456" y="552"/>
      <point x="456" y="612" type="curve" smooth="yes"/>
      <point x="456" y="659"/>
      <point x="530" y="672"/>
      <point x="530" y="710" type="curve" smooth="yes"/>
      <point x="530" y="747"/>
      <point x="511" y="766"/>
      <point x="480" y="766" type="curve" smooth="yes"/>
      <point x="472" y="766"/>
      <point x="462" y="765"/>
      <point x="452" y="762" type="curve"/>
      <point x="435" y="796"/>
      <point x="349" y="867"/>
      <point x="346" y="882" type="curve"/>
      <point x="379" y="918"/>
      <point x="427" y="940"/>
      <point x="470" y="940" type="curve" smooth="yes"/>
      <point x="576" y="940"/>
      <point x="630" y="865"/>
      <point x="630" y="809" type="curve" smooth="yes"/>
      <point x="630" y="786"/>
      <point x="620" y="737"/>
      <point x="606" y="722" type="curve"/>
      <point x="609" y="665"/>
      <point x="656" y="651"/>
      <point x="656" y="609" type="curve" smooth="yes"/>
      <point x="656" y="579"/>
      <point x="648" y="538"/>
    </contour>
  </outline>
</glyph>
<glyph name="u1440F" format="2">
  <advance width="882"/>
  <unicode hex="1440F"/>
  <outline>
    <contour>
      <point x="294" y="-33" type="curve"/>
      <point x="354" y="-30"/>
      <point x="473" y="19"/>
      <point x="529" y="57" type="curve"/>
      <point x="572" y="9"/>
      <point x="621" y="-30"/>
      <point x="659" y="-30" type="curve" smooth="yes"/>
      <point x="788" y="-30"/>
      <point x="832" y="159"/>
      <point x="832" y="271" type="curve" smooth="yes"/>
      <point x="832" y="306"/>
      <point x="827" y="335"/>
      <point x="819" y="352" type="curve"/>
      <point x="500" y="429"/>
      <point x="529" y="860"/>
      <point x="407" y="860" type="curve" smooth="yes"/>
      <point x="348" y="860"/>
      <point x="255" y="665"/>
      <point x="199" y="571" type="curve"/>
      <point x="200" y="570" type="line"/>
      <point x="135" y="463"/>
      <point x="50" y="405"/>
      <point x="50" y="346" type="curve" smooth="yes"/>
      <point x="50" y="316"/>
      <point x="75" y="310"/>
      <point x="150" y="310" type="curve"/>
      <point x="159" y="300"/>
      <point x="160" y="277"/>
      <point x="160" y="255" type="curve" smooth="yes"/>
      <point x="160" y="233"/>
      <point x="150" y="182"/>
      <point x="150" y="138" type="curve" smooth="yes"/>
      <point x="150" y="117"/>
      <point x="154" y="91"/>
      <point x="171" y="87" type="curve" smooth="yes"/>
      <point x="281" y="61"/>
      <point x="277" y="25"/>
    </contour>
    <contour>
      <point x="315" y="4" type="curve"/>
      <point x="301" y="72"/>
      <point x="270" y="91"/>
      <point x="193" y="111" type="curve"/>
      <point x="183" y="114"/>
      <point x="180" y="129"/>
      <point x="180" y="141" type="curve" smooth="yes"/>
      <point x="180" y="155"/>
      <point x="182" y="171"/>
      <point x="184" y="188" type="curve"/>
      <point x="209" y="188"/>
      <point x="234" y="189"/>
      <point x="259" y="189" type="curve"/>
      <point x="261" y="219" type="line"/>
      <point x="237" y="219"/>
      <point x="212" y="218"/>
      <point x="187" y="218" type="curve"/>
      <point x="189" y="234"/>
      <point x="190" y="251"/>
      <point x="190" y="266" type="curve" smooth="yes"/>
      <point x="190" y="284"/>
      <point x="189" y="301"/>
      <point x="183" y="314" type="curve" smooth="yes"/>
      <point x="164" y="355"/>
      <point x="114" y="335"/>
      <point x="83" y="350" type="curve"/>
      <point x="93" y="410"/>
      <point x="178" y="472"/>
      <point x="227" y="558" type="curve"/>
      <point x="396" y="482" type="line" smooth="yes"/>
      <point x="421" y="471"/>
      <point x="425" y="450"/>
      <point x="425" y="411" type="curve" smooth="yes"/>
      <point x="425" y="358" type="line"/>
      <point x="450" y="358"/>
      <point x="508" y="356"/>
      <point x="508" y="316" type="curve" smooth="yes"/>
      <point x="508" y="267"/>
      <point x="425" y="265"/>
      <point x="425" y="215" type="curve" smooth="yes"/>
      <point x="425" y="197"/>
      <point x="461" y="137"/>
      <point x="508" y="80" type="curve"/>
      <point x="462" y="50"/>
      <point x="369" y="4"/>
    </contour>
    <contour>
      <point x="264" y="421" type="curve" smooth="yes"/>
      <point x="285" y="421"/>
      <point x="301" y="430"/>
      <point x="301" y="445" type="curve" smooth="yes"/>
      <point x="301" y="463"/>
      <point x="274" y="483"/>
      <point x="239" y="483" type="curve" smooth="yes"/>
      <point x="220" y="483"/>
      <point x="205" y="477"/>
      <point x="202" y="466" type="curve"/>
      <point x="200" y="463"/>
      <point x="200" y="462"/>
      <point x="200" y="459" type="curve" smooth="yes"/>
      <point x="200" y="441"/>
      <point x="227" y="421"/>
    </contour>
    <contour>
      <point x="659" y="0" type="curve" smooth="yes"/>
      <point x="607" y="0"/>
      <point x="455" y="173"/>
      <point x="455" y="215" type="curve" smooth="yes"/>
      <point x="455" y="248"/>
      <point x="538" y="243"/>
      <point x="538" y="316" type="curve" smooth="yes"/>
      <point x="538" y="355"/>
      <point x="505" y="384"/>
      <point x="455" y="384" type="curve"/>
      <point x="455" y="443" type="line" smooth="yes"/>
      <point x="455" y="467"/>
      <point x="447" y="492"/>
      <point x="418" y="505" type="curve" smooth="yes"/>
      <point x="238" y="584" type="line"/>
      <point x="290" y="666"/>
      <point x="369" y="830"/>
      <point x="410" y="830" type="curve" smooth="yes"/>
      <point x="490" y="830"/>
      <point x="481" y="426"/>
      <point x="796" y="328" type="curve"/>
      <point x="800" y="313"/>
      <point x="802" y="294"/>
      <point x="802" y="274" type="curve" smooth="yes"/>
      <point x="802" y="171"/>
      <point x="753" y="0"/>
    </contour>
  </outline>
</glyph>
<glyph name="u14410" format="2">
  <advance width="902"/>
  <unicode hex="14410"/>
  <outline>
    <contour>
      <point x="314" y="-33" type="curve"/>
      <point x="374" y="-30"/>
      <point x="493" y="19"/>
      <point x="549" y="57" type="curve"/>
      <point x="592" y="9"/>
      <point x="641" y="-30"/>
      <point x="679" y="-30" type="curve" smooth="yes"/>
      <point x="808" y="-30"/>
      <point x="852" y="159"/>
      <point x="852" y="271" type="curve" smooth="yes"/>
      <point x="852" y="306"/>
      <point x="847" y="335"/>
      <point x="839" y="352" type="curve"/>
      <point x="520" y="429"/>
      <point x="549" y="860"/>
      <point x="427" y="860" type="curve" smooth="yes"/>
      <point x="368" y="860"/>
      <point x="275" y="665"/>
      <point x="219" y="571" type="curve"/>
      <point x="220" y="570" type="line"/>
      <point x="155" y="463"/>
      <point x="70" y="405"/>
      <point x="70" y="346" type="curve" smooth="yes"/>
      <point x="70" y="316"/>
      <point x="95" y="310"/>
      <point x="170" y="310" type="curve"/>
      <point x="179" y="300"/>
      <point x="180" y="277"/>
      <point x="180" y="255" type="curve" smooth="yes"/>
      <point x="180" y="233"/>
      <point x="170" y="182"/>
      <point x="170" y="138" type="curve" smooth="yes"/>
      <point x="170" y="117"/>
      <point x="174" y="91"/>
      <point x="191" y="87" type="curve" smooth="yes"/>
      <point x="301" y="61"/>
      <point x="297" y="25"/>
    </contour>
    <contour>
      <point x="335" y="4" type="curve"/>
      <point x="321" y="72"/>
      <point x="289" y="88"/>
      <point x="213" y="111" type="curve" smooth="yes"/>
      <point x="203" y="114"/>
      <point x="200" y="129"/>
      <point x="200" y="141" type="curve" smooth="yes"/>
      <point x="200" y="155"/>
      <point x="202" y="171"/>
      <point x="204" y="188" type="curve"/>
      <point x="229" y="188"/>
      <point x="254" y="189"/>
      <point x="279" y="189" type="curve"/>
      <point x="281" y="219" type="line"/>
      <point x="257" y="219"/>
      <point x="232" y="218"/>
      <point x="207" y="218" type="curve"/>
      <point x="209" y="234"/>
      <point x="210" y="251"/>
      <point x="210" y="266" type="curve" smooth="yes"/>
      <point x="210" y="284"/>
      <point x="209" y="301"/>
      <point x="203" y="314" type="curve" smooth="yes"/>
      <point x="184" y="355"/>
      <point x="134" y="335"/>
      <point x="103" y="350" type="curve"/>
      <point x="113" y="410"/>
      <point x="198" y="472"/>
      <point x="247" y="558" type="curve"/>
      <point x="415" y="483" type="line" smooth="yes"/>
      <point x="440" y="472"/>
      <point x="445" y="450"/>
      <point x="445" y="411" type="curve" smooth="yes"/>
      <point x="445" y="358" type="line"/>
      <point x="470" y="358"/>
      <point x="528" y="356"/>
      <point x="528" y="316" type="curve" smooth="yes"/>
      <point x="528" y="267"/>
      <point x="445" y="265"/>
      <point x="445" y="215" type="curve" smooth="yes"/>
      <point x="445" y="197"/>
      <point x="481" y="137"/>
      <point x="528" y="80" type="curve"/>
      <point x="482" y="50"/>
      <point x="389" y="4"/>
    </contour>
    <contour>
      <point x="284" y="421" type="curve" smooth="yes"/>
      <point x="305" y="421"/>
      <point x="321" y="430"/>
      <point x="321" y="445" type="curve" smooth="yes"/>
      <point x="321" y="463"/>
      <point x="294" y="483"/>
      <point x="259" y="483" type="curve" smooth="yes"/>
      <point x="240" y="483"/>
      <point x="225" y="477"/>
      <point x="222" y="466" type="curve"/>
      <point x="220" y="463"/>
      <point x="220" y="462"/>
      <point x="220" y="459" type="curve" smooth="yes"/>
      <point x="220" y="441"/>
      <point x="247" y="421"/>
    </contour>
    <contour>
      <point x="679" y="0" type="curve" smooth="yes"/>
      <point x="627" y="0"/>
      <point x="475" y="173"/>
      <point x="475" y="215" type="curve" smooth="yes"/>
      <point x="475" y="248"/>
      <point x="558" y="243"/>
      <point x="558" y="316" type="curve" smooth="yes"/>
      <point x="558" y="355"/>
      <point x="525" y="384"/>
      <point x="475" y="384" type="curve"/>
      <point x="475" y="443" type="line" smooth="yes"/>
      <point x="475" y="467"/>
      <point x="467" y="492"/>
      <point x="438" y="505" type="curve" smooth="yes"/>
      <point x="258" y="584" type="line"/>
      <point x="310" y="666"/>
      <point x="389" y="830"/>
      <point x="430" y="830" type="curve" smooth="yes"/>
      <point x="510" y="830"/>
      <point x="501" y="426"/>
      <point x="816" y="328" type="curve"/>
      <point x="820" y="313"/>
      <point x="822" y="294"/>
      <point x="822" y="274" type="curve" smooth="yes"/>
      <point x="822" y="171"/>
      <point x="773" y="0"/>
    </contour>
    <contour>
      <point x="162" y="678" type="curve" smooth="yes"/>
      <point x="236" y="678"/>
      <point x="274" y="724"/>
      <point x="274" y="770" type="curve" smooth="yes"/>
      <point x="274" y="821"/>
      <point x="242" y="840"/>
      <point x="216" y="840" type="curve" smooth="yes"/>
      <point x="208" y="840"/>
      <point x="201" y="838"/>
      <point x="194" y="835" type="curve"/>
      <point x="228" y="881"/>
      <point x="331" y="894"/>
      <point x="386" y="894" type="curve" smooth="yes"/>
      <point x="444" y="894" type="line" smooth="yes"/>
      <point x="499" y="894"/>
      <point x="602" y="881"/>
      <point x="636" y="835" type="curve"/>
      <point x="629" y="838"/>
      <point x="622" y="840"/>
      <point x="614" y="840" type="curve" smooth="yes"/>
      <point x="588" y="840"/>
      <point x="556" y="821"/>
      <point x="556" y="770" type="curve" smooth="yes"/>
      <point x="556" y="724"/>
      <point x="594" y="678"/>
      <point x="668" y="678" type="curve" smooth="yes"/>
      <point x="725" y="678"/>
      <point x="777" y="720"/>
      <point x="777" y="794" type="curve" smooth="yes"/>
      <point x="777" y="936"/>
      <point x="608" y="1013"/>
      <point x="442" y="1013" type="curve" smooth="yes"/>
      <point x="388" y="1013" type="line" smooth="yes"/>
      <point x="222" y="1013"/>
      <point x="53" y="936"/>
      <point x="53" y="794" type="curve" smooth="yes"/>
      <point x="53" y="720"/>
      <point x="105" y="678"/>
    </contour>
    <contour>
      <point x="163" y="708" type="curve" smooth="yes"/>
      <point x="126" y="708"/>
      <point x="83" y="733"/>
      <point x="83" y="792" type="curve" smooth="yes"/>
      <point x="83" y="913"/>
      <point x="230" y="983"/>
      <point x="388" y="983" type="curve" smooth="yes"/>
      <point x="442" y="983" type="line" smooth="yes"/>
      <point x="600" y="983"/>
      <point x="747" y="913"/>
      <point x="747" y="792" type="curve" smooth="yes"/>
      <point x="747" y="733"/>
      <point x="704" y="708"/>
      <point x="667" y="708" type="curve" smooth="yes"/>
      <point x="629" y="708"/>
      <point x="587" y="727"/>
      <point x="587" y="772" type="curve" smooth="yes"/>
      <point x="587" y="793"/>
      <point x="596" y="810"/>
      <point x="617" y="810" type="curve" smooth="yes"/>
      <point x="634" y="810"/>
      <point x="646" y="803"/>
      <point x="646" y="776" type="curve"/>
      <point x="671" y="776" type="line"/>
      <point x="674" y="784"/>
      <point x="675" y="791"/>
      <point x="675" y="799" type="curve" smooth="yes"/>
      <point x="675" y="874"/>
      <point x="579" y="924"/>
      <point x="439" y="924" type="curve" smooth="yes"/>
      <point x="391" y="924" type="line" smooth="yes"/>
      <point x="251" y="924"/>
      <point x="155" y="874"/>
      <point x="155" y="799" type="curve" smooth="yes"/>
      <point x="155" y="791"/>
      <point x="156" y="784"/>
      <point x="159" y="776" type="curve"/>
      <point x="184" y="776" type="line"/>
      <point x="184" y="803"/>
      <point x="196" y="810"/>
      <point x="213" y="810" type="curve" smooth="yes"/>
      <point x="234" y="810"/>
      <point x="243" y="793"/>
      <point x="243" y="772" type="curve" smooth="yes"/>
      <point x="243" y="727"/>
      <point x="201" y="708"/>
    </contour>
  </outline>
</glyph>
<glyph name="u14411" format="2">
  <advance width="540"/>
  <unicode hex="14411"/>
  <outline>
    <contour>
      <point x="50" y="0" type="line"/>
      <point x="490" y="0" type="line"/>
      <point x="490" y="31" type="line"/>
      <point x="290" y="800" type="line"/>
      <point x="251" y="800" type="line"/>
      <point x="50" y="31" type="line"/>
    </contour>
    <contour>
      <point x="83" y="30" type="line"/>
      <point x="134" y="220" type="line"/>
      <point x="255" y="220" type="line"/>
      <point x="255" y="30" type="line"/>
    </contour>
    <contour>
      <point x="285" y="30" type="line"/>
      <point x="285" y="220" type="line"/>
      <point x="406" y="220" type="line"/>
      <point x="457" y="30" type="line"/>
    </contour>
    <contour>
      <point x="142" y="250" type="line"/>
      <point x="255" y="670" type="line"/>
      <point x="255" y="250" type="line"/>
    </contour>
    <contour>
      <point x="285" y="250" type="line"/>
      <point x="285" y="673" type="line"/>
      <point x="398" y="250" type="line"/>
    </contour>
  </outline>
</glyph>
<glyph name="u14412" format="2">
  <advance width="824"/>
  <unicode hex="14412"/>
  <outline>
    <contour>
      <point x="195" y="0" type="line"/>
      <point x="635" y="0" type="line"/>
      <point x="635" y="31" type="line"/>
      <point x="435" y="800" type="line"/>
      <point x="396" y="800" type="line"/>
      <point x="195" y="31" type="line"/>
    </contour>
    <contour>
      <point x="228" y="30" type="line"/>
      <point x="279" y="220" type="line"/>
      <point x="400" y="220" type="line"/>
      <point x="400" y="30" type="line"/>
    </contour>
    <contour>
      <point x="430" y="30" type="line"/>
      <point x="430" y="220" type="line"/>
      <point x="551" y="220" type="line"/>
      <point x="602" y="30" type="line"/>
    </contour>
    <contour>
      <point x="287" y="250" type="line"/>
      <point x="400" y="670" type="line"/>
      <point x="400" y="250" type="line"/>
    </contour>
    <contour>
      <point x="430" y="250" type="line"/>
      <point x="430" y="673" type="line"/>
      <point x="543" y="250" type="line"/>
    </contour>
    <contour>
      <point x="159" y="678" type="curve" smooth="yes"/>
      <point x="233" y="678"/>
      <point x="271" y="724"/>
      <point x="271" y="770" type="curve" smooth="yes"/>
      <point x="271" y="821"/>
      <point x="239" y="840"/>
      <point x="213" y="840" type="curve" smooth="yes"/>
      <point x="205" y="840"/>
      <point x="198" y="838"/>
      <point x="191" y="835" type="curve"/>
      <point x="225" y="881"/>
      <point x="328" y="894"/>
      <point x="383" y="894" type="curve" smooth="yes"/>
      <point x="441" y="894" type="line" smooth="yes"/>
      <point x="496" y="894"/>
      <point x="599" y="881"/>
      <point x="633" y="835" type="curve"/>
      <point x="626" y="838"/>
      <point x="619" y="840"/>
      <point x="611" y="840" type="curve" smooth="yes"/>
      <point x="585" y="840"/>
      <point x="553" y="821"/>
      <point x="553" y="770" type="curve" smooth="yes"/>
      <point x="553" y="724"/>
      <point x="591" y="678"/>
      <point x="665" y="678" type="curve" smooth="yes"/>
      <point x="722" y="678"/>
      <point x="774" y="720"/>
      <point x="774" y="794" type="curve" smooth="yes"/>
      <point x="774" y="936"/>
      <point x="605" y="1013"/>
      <point x="439" y="1013" type="curve" smooth="yes"/>
      <point x="385" y="1013" type="line" smooth="yes"/>
      <point x="219" y="1013"/>
      <point x="50" y="936"/>
      <point x="50" y="794" type="curve" smooth="yes"/>
      <point x="50" y="720"/>
      <point x="102" y="678"/>
    </contour>
    <contour>
      <point x="160" y="708" type="curve" smooth="yes"/>
      <point x="123" y="708"/>
      <point x="80" y="733"/>
      <point x="80" y="792" type="curve" smooth="yes"/>
      <point x="80" y="913"/>
      <point x="227" y="983"/>
      <point x="385" y="983" type="curve" smooth="yes"/>
      <point x="439" y="983" type="line" smooth="yes"/>
      <point x="597" y="983"/>
      <point x="744" y="913"/>
      <point x="744" y="792" type="curve" smooth="yes"/>
      <point x="744" y="733"/>
      <point x="701" y="708"/>
      <point x="664" y="708" type="curve" smooth="yes"/>
      <point x="626" y="708"/>
      <point x="584" y="727"/>
      <point x="584" y="772" type="curve" smooth="yes"/>
      <point x="584" y="793"/>
      <point x="593" y="810"/>
      <point x="614" y="810" type="curve" smooth="yes"/>
      <point x="631" y="810"/>
      <point x="643" y="803"/>
      <point x="643" y="776" type="curve"/>
      <point x="668" y="776" type="line"/>
      <point x="671" y="784"/>
      <point x="672" y="791"/>
      <point x="672" y="799" type="curve" smooth="yes"/>
      <point x="672" y="874"/>
      <point x="576" y="924"/>
      <point x="436" y="924" type="curve" smooth="yes"/>
      <point x="388" y="924" type="line" smooth="yes"/>
      <point x="248" y="924"/>
      <point x="152" y="874"/>
      <point x="152" y="799" type="curve" smooth="yes"/>
      <point x="152" y="791"/>
      <point x="153" y="784"/>
      <point x="156" y="776" type="curve"/>
      <point x="181" y="776" type="line"/>
      <point x="181" y="803"/>
      <point x="193" y="810"/>
      <point x="210" y="810" type="curve" smooth="yes"/>
      <point x="231" y="810"/>
      <point x="240" y="793"/>
      <point x="240" y="772" type="curve" smooth="yes"/>
      <point x="240" y="727"/>
      <point x="198" y="708"/>
    </contour>
  </outline>
</glyph>
<glyph name="u14413" format="2">
  <advance width="432"/>
  <unicode hex="14413"/>
  <outline>
    <contour>
      <point x="213" y="-25" type="line"/>
      <point x="261" y="33"/>
      <point x="283" y="110"/>
      <point x="283" y="187" type="curve" smooth="yes"/>
      <point x="283" y="259"/>
      <point x="178" y="252"/>
      <point x="178" y="294" type="curve" smooth="yes"/>
      <point x="178" y="338"/>
      <point x="184" y="333"/>
      <point x="220" y="371" type="curve"/>
      <point x="220" y="404"/>
      <point x="168" y="402"/>
      <point x="168" y="430" type="curve" smooth="yes"/>
      <point x="168" y="443"/>
      <point x="173" y="472"/>
      <point x="173" y="484" type="curve" smooth="yes"/>
      <point x="173" y="530"/>
      <point x="80" y="504"/>
      <point x="80" y="540" type="curve" smooth="yes"/>
      <point x="80" y="559"/>
      <point x="92" y="570"/>
      <point x="97" y="574" type="curve"/>
      <point x="202" y="676" type="line" smooth="yes"/>
      <point x="235" y="708"/>
      <point x="292" y="783"/>
      <point x="332" y="812" type="curve"/>
      <point x="319" y="837" type="line"/>
      <point x="252" y="789"/>
      <point x="222" y="735"/>
      <point x="162" y="678" type="curve" smooth="yes"/>
      <point x="85" y="604" type="line" smooth="yes"/>
      <point x="59" y="579"/>
      <point x="50" y="557"/>
      <point x="50" y="537" type="curve" smooth="yes"/>
      <point x="50" y="484"/>
      <point x="144" y="499"/>
      <point x="144" y="479" type="curve" smooth="yes"/>
      <point x="144" y="460"/>
      <point x="140" y="425"/>
      <point x="140" y="413" type="curve" smooth="yes"/>
      <point x="140" y="394"/>
      <point x="171" y="381"/>
      <point x="189" y="375" type="curve"/>
      <point x="150" y="350"/>
      <point x="149" y="329"/>
      <point x="149" y="296" type="curve" smooth="yes"/>
      <point x="149" y="236"/>
      <point x="252" y="240"/>
      <point x="252" y="181" type="curve" smooth="yes"/>
      <point x="252" y="96"/>
      <point x="222" y="34"/>
      <point x="189" y="-7" type="curve"/>
    </contour>
  </outline>
</glyph>
<glyph name="u14414" format="2">
  <advance width="475"/>
  <unicode hex="14414"/>
  <outline>
    <contour>
      <point x="213" y="-25" type="line"/>
      <point x="261" y="33"/>
      <point x="283" y="110"/>
      <point x="283" y="187" type="curve" smooth="yes"/>
      <point x="283" y="259"/>
      <point x="178" y="252"/>
      <point x="178" y="294" type="curve" smooth="yes"/>
      <point x="178" y="312"/>
      <point x="179" y="323"/>
      <point x="184" y="332" type="curve" smooth="yes"/>
      <point x="193" y="348"/>
      <point x="206" y="354"/>
      <point x="220" y="371" type="curve"/>
      <point x="220" y="404"/>
      <point x="168" y="402"/>
      <point x="168" y="430" type="curve" smooth="yes"/>
      <point x="168" y="443"/>
      <point x="173" y="472"/>
      <point x="173" y="484" type="curve" smooth="yes"/>
      <point x="173" y="530"/>
      <point x="80" y="504"/>
      <point x="80" y="540" type="curve" smooth="yes"/>
      <point x="80" y="559"/>
      <point x="92" y="570"/>
      <point x="97" y="574" type="curve"/>
      <point x="202" y="676" type="line" smooth="yes"/>
      <point x="235" y="708"/>
      <point x="292" y="783"/>
      <point x="332" y="812" type="curve"/>
      <point x="319" y="837" type="line"/>
      <point x="264" y="797"/>
      <point x="234" y="754"/>
      <point x="191" y="708" type="curve"/>
      <point x="191" y="1032" type="line" smooth="yes"/>
      <point x="191" y="1078"/>
      <point x="211" y="1090"/>
      <point x="230" y="1090" type="curve" smooth="yes"/>
      <point x="249" y="1090"/>
      <point x="267" y="1079"/>
      <point x="267" y="1030" type="curve" smooth="yes"/>
      <point x="267" y="984" type="line"/>
      <point x="297" y="984" type="line"/>
      <point x="297" y="1030" type="line" smooth="yes"/>
      <point x="297" y="1102"/>
      <point x="267" y="1120"/>
      <point x="232" y="1120" type="curve" smooth="yes"/>
      <point x="199" y="1120"/>
      <point x="161" y="1104"/>
      <point x="161" y="1032" type="curve" smooth="yes"/>
      <point x="161" y="677" type="line"/>
      <point x="85" y="604" type="line" smooth="yes"/>
      <point x="59" y="579"/>
      <point x="50" y="557"/>
      <point x="50" y="537" type="curve" smooth="yes"/>
      <point x="50" y="484"/>
      <point x="144" y="499"/>
      <point x="144" y="479" type="curve" smooth="yes"/>
      <point x="144" y="460"/>
      <point x="140" y="425"/>
      <point x="140" y="413" type="curve" smooth="yes"/>
      <point x="140" y="394"/>
      <point x="171" y="381"/>
      <point x="189" y="375" type="curve"/>
      <point x="150" y="350"/>
      <point x="149" y="329"/>
      <point x="149" y="296" type="curve" smooth="yes"/>
      <point x="149" y="236"/>
      <point x="252" y="240"/>
      <point x="252" y="181" type="curve" smooth="yes"/>
      <point x="252" y="96"/>
      <point x="222" y="34"/>
      <point x="189" y="-7" type="curve"/>
    </contour>
    <contour>
      <point x="274" y="597" type="curve" smooth="yes"/>
      <point x="293" y="597"/>
      <point x="308" y="605"/>
      <point x="308" y="618" type="curve" smooth="yes"/>
      <point x="308" y="634"/>
      <point x="283" y="652"/>
      <point x="252" y="652" type="curve" smooth="yes"/>
      <point x="235" y="652"/>
      <point x="222" y="646"/>
      <point x="219" y="637" type="curve"/>
      <point x="217" y="634"/>
      <point x="217" y="633"/>
      <point x="217" y="631" type="curve" smooth="yes"/>
      <point x="217" y="615"/>
      <point x="242" y="597"/>
    </contour>
    <contour>
      <point x="360" y="637" type="curve"/>
      <point x="375" y="660" type="line"/>
      <point x="354" y="688"/>
      <point x="314" y="701"/>
      <point x="261" y="705" type="curve"/>
      <point x="259" y="675" type="line"/>
      <point x="300" y="673"/>
      <point x="333" y="661"/>
    </contour>
  </outline>
</glyph>
<glyph name="u14415" format="2">
  <advance width="963"/>
  <unicode hex="14415"/>
  <outline>
    <contour>
      <point x="255" y="-48" type="curve" smooth="yes"/>
      <point x="302" y="-48"/>
      <point x="357" y="-42"/>
      <point x="392" y="-25" type="curve"/>
      <point x="438" y="54"/>
      <point x="457" y="140"/>
      <point x="457" y="230" type="curve" smooth="yes"/>
      <point x="457" y="303"/>
      <point x="423" y="373"/>
      <point x="423" y="434" type="curve" smooth="yes"/>
      <point x="423" y="510"/>
      <point x="491" y="559"/>
      <point x="491" y="626" type="curve" smooth="yes"/>
      <point x="491" y="670"/>
      <point x="431" y="702"/>
      <point x="424" y="747" type="curve" smooth="yes"/>
      <point x="414" y="808" type="line" smooth="yes"/>
      <point x="411" y="825"/>
      <point x="403" y="855"/>
      <point x="365" y="855" type="curve" smooth="yes"/>
      <point x="305" y="855"/>
      <point x="202" y="716"/>
      <point x="162" y="678" type="curve" smooth="yes"/>
      <point x="85" y="604" type="line" smooth="yes"/>
      <point x="59" y="579"/>
      <point x="50" y="557"/>
      <point x="50" y="537" type="curve" smooth="yes"/>
      <point x="50" y="484"/>
      <point x="144" y="499"/>
      <point x="144" y="479" type="curve" smooth="yes"/>
      <point x="144" y="460"/>
      <point x="140" y="425"/>
      <point x="140" y="413" type="curve" smooth="yes"/>
      <point x="140" y="394"/>
      <point x="171" y="381"/>
      <point x="189" y="375" type="curve"/>
      <point x="150" y="350"/>
      <point x="149" y="329"/>
      <point x="149" y="296" type="curve" smooth="yes"/>
      <point x="149" y="236"/>
      <point x="252" y="240"/>
      <point x="252" y="181" type="curve" smooth="yes"/>
      <point x="252" y="96"/>
      <point x="222" y="34"/>
      <point x="189" y="-7" type="curve"/>
      <point x="191" y="-44" type="line"/>
      <point x="208" y="-46"/>
      <point x="230" y="-48"/>
    </contour>
    <contour>
      <point x="256" y="-18" type="curve" smooth="yes"/>
      <point x="241" y="-18"/>
      <point x="228" y="-17"/>
      <point x="217" y="-16" type="curve"/>
      <point x="262" y="41"/>
      <point x="283" y="112"/>
      <point x="283" y="187" type="curve" smooth="yes"/>
      <point x="283" y="259"/>
      <point x="178" y="252"/>
      <point x="178" y="294" type="curve" smooth="yes"/>
      <point x="178" y="338"/>
      <point x="184" y="333"/>
      <point x="220" y="371" type="curve"/>
      <point x="220" y="404"/>
      <point x="168" y="402"/>
      <point x="168" y="430" type="curve" smooth="yes"/>
      <point x="168" y="443"/>
      <point x="173" y="472"/>
      <point x="173" y="484" type="curve" smooth="yes"/>
      <point x="173" y="530"/>
      <point x="80" y="504"/>
      <point x="80" y="540" type="curve" smooth="yes"/>
      <point x="80" y="559"/>
      <point x="92" y="570"/>
      <point x="97" y="574" type="curve"/>
      <point x="202" y="676" type="line" smooth="yes"/>
      <point x="238" y="711"/>
      <point x="316" y="826"/>
      <point x="364" y="826" type="curve" smooth="yes"/>
      <point x="378" y="826"/>
      <point x="383" y="819"/>
      <point x="384" y="810" type="curve" smooth="yes"/>
      <point x="394" y="738" type="line" smooth="yes"/>
      <point x="400" y="692"/>
      <point x="463" y="670"/>
      <point x="463" y="622" type="curve" smooth="yes"/>
      <point x="463" y="558"/>
      <point x="395" y="514"/>
      <point x="395" y="445" type="curve" smooth="yes"/>
      <point x="395" y="373"/>
      <point x="427" y="304"/>
      <point x="427" y="229" type="curve" smooth="yes"/>
      <point x="427" y="161"/>
      <point x="418" y="97"/>
      <point x="375" y="3" type="curve"/>
      <point x="341" y="-14"/>
      <point x="294" y="-18"/>
    </contour>
    <contour>
      <point x="274" y="597" type="curve" smooth="yes"/>
      <point x="293" y="597"/>
      <point x="308" y="605"/>
      <point x="308" y="618" type="curve" smooth="yes"/>
      <point x="308" y="634"/>
      <point x="283" y="652"/>
      <point x="252" y="652" type="curve" smooth="yes"/>
      <point x="235" y="652"/>
      <point x="222" y="646"/>
      <point x="219" y="637" type="curve"/>
      <point x="217" y="634"/>
      <point x="217" y="633"/>
      <point x="217" y="631" type="curve" smooth="yes"/>
      <point x="217" y="615"/>
      <point x="242" y="597"/>
    </contour>
    <contour>
      <point x="360" y="637" type="curve"/>
      <point x="375" y="660" type="line"/>
      <point x="354" y="688"/>
      <point x="314" y="701"/>
      <point x="261" y="705" type="curve"/>
      <point x="259" y="675" type="line"/>
      <point x="300" y="673"/>
      <point x="333" y="661"/>
    </contour>
    <contour>
      <point x="666" y="343" type="line"/>
      <point x="692" y="344" type="line"/>
      <point x="692" y="462" type="line"/>
      <point x="666" y="458" type="line"/>
    </contour>
    <contour>
      <point x="697" y="107" type="curve"/>
      <point x="721" y="107" type="line"/>
      <point x="793" y="137"/>
      <point x="867" y="368"/>
      <point x="867" y="452" type="curve" smooth="yes"/>
      <point x="867" y="497"/>
      <point x="833" y="530"/>
      <point x="833" y="587" type="curve" smooth="yes"/>
      <point x="833" y="634"/>
      <point x="890" y="664"/>
      <point x="901" y="665" type="curve"/>
      <point x="913" y="695" type="line"/>
      <point x="888" y="721"/>
      <point x="854" y="727"/>
      <point x="821" y="727" type="curve" smooth="yes"/>
      <point x="775" y="727"/>
      <point x="731" y="711"/>
      <point x="709" y="682" type="curve"/>
      <point x="687" y="711"/>
      <point x="643" y="727"/>
      <point x="597" y="727" type="curve" smooth="yes"/>
      <point x="564" y="727"/>
      <point x="530" y="721"/>
      <point x="505" y="695" type="curve"/>
      <point x="517" y="665" type="line"/>
      <point x="528" y="664"/>
      <point x="585" y="634"/>
      <point x="585" y="587" type="curve" smooth="yes"/>
      <point x="585" y="530"/>
      <point x="551" y="497"/>
      <point x="551" y="452" type="curve" smooth="yes"/>
      <point x="551" y="368"/>
      <point x="625" y="137"/>
    </contour>
    <contour>
      <point x="697" y="131" type="line"/>
      <point x="643" y="172"/>
      <point x="581" y="366"/>
      <point x="581" y="453" type="curve" smooth="yes"/>
      <point x="581" y="487"/>
      <point x="615" y="534"/>
      <point x="615" y="584" type="curve" smooth="yes"/>
      <point x="615" y="627"/>
      <point x="580" y="670"/>
      <point x="539" y="686" type="curve"/>
      <point x="555" y="694"/>
      <point x="574" y="697"/>
      <point x="596" y="697" type="curve" smooth="yes"/>
      <point x="639" y="697"/>
      <point x="692" y="680"/>
      <point x="693" y="644" type="curve"/>
      <point x="709" y="645" type="line"/>
      <point x="725" y="644" type="line"/>
      <point x="726" y="680"/>
      <point x="779" y="697"/>
      <point x="822" y="697" type="curve" smooth="yes"/>
      <point x="844" y="697"/>
      <point x="863" y="694"/>
      <point x="879" y="686" type="curve"/>
      <point x="838" y="670"/>
      <point x="803" y="627"/>
      <point x="803" y="584" type="curve" smooth="yes"/>
      <point x="803" y="534"/>
      <point x="837" y="487"/>
      <point x="837" y="453" type="curve" smooth="yes"/>
      <point x="837" y="366"/>
      <point x="775" y="172"/>
      <point x="721" y="131" type="curve"/>
    </contour>
    <contour>
      <point x="752" y="343" type="line"/>
      <point x="752" y="458" type="line"/>
      <point x="726" y="462" type="line"/>
      <point x="726" y="344" type="line"/>
    </contour>
  </outline>
</glyph>
<glyph name="u14416" format="2">
  <advance width="649"/>
  <unicode hex="14416"/>
  <outline>
    <contour>
      <point x="363" y="-48" type="curve" smooth="yes"/>
      <point x="410" y="-48"/>
      <point x="465" y="-42"/>
      <point x="500" y="-25" type="curve"/>
      <point x="546" y="54"/>
      <point x="565" y="140"/>
      <point x="565" y="230" type="curve" smooth="yes"/>
      <point x="565" y="303"/>
      <point x="531" y="373"/>
      <point x="531" y="434" type="curve" smooth="yes"/>
      <point x="531" y="510"/>
      <point x="599" y="559"/>
      <point x="599" y="626" type="curve" smooth="yes"/>
      <point x="599" y="670"/>
      <point x="539" y="702"/>
      <point x="532" y="747" type="curve" smooth="yes"/>
      <point x="522" y="808" type="line" smooth="yes"/>
      <point x="519" y="825"/>
      <point x="511" y="855"/>
      <point x="473" y="855" type="curve" smooth="yes"/>
      <point x="413" y="855"/>
      <point x="310" y="716"/>
      <point x="270" y="678" type="curve" smooth="yes"/>
      <point x="193" y="604" type="line" smooth="yes"/>
      <point x="167" y="579"/>
      <point x="158" y="557"/>
      <point x="158" y="537" type="curve" smooth="yes"/>
      <point x="158" y="484"/>
      <point x="252" y="499"/>
      <point x="252" y="479" type="curve" smooth="yes"/>
      <point x="252" y="462"/>
      <point x="249" y="431"/>
      <point x="248" y="416" type="curve"/>
      <point x="161" y="408"/>
      <point x="50" y="383"/>
      <point x="50" y="316" type="curve" smooth="yes"/>
      <point x="50" y="281"/>
      <point x="82" y="270"/>
      <point x="100" y="270" type="curve" smooth="yes"/>
      <point x="136" y="270"/>
      <point x="180" y="313"/>
      <point x="213" y="323" type="curve" smooth="yes"/>
      <point x="229" y="328"/>
      <point x="246" y="333"/>
      <point x="262" y="337" type="curve"/>
      <point x="257" y="325"/>
      <point x="257" y="312"/>
      <point x="257" y="296" type="curve" smooth="yes"/>
      <point x="257" y="236"/>
      <point x="360" y="240"/>
      <point x="360" y="181" type="curve" smooth="yes"/>
      <point x="360" y="96"/>
      <point x="330" y="34"/>
      <point x="297" y="-7" type="curve"/>
      <point x="299" y="-44" type="line"/>
      <point x="316" y="-46"/>
      <point x="338" y="-48"/>
    </contour>
    <contour>
      <point x="105" y="300" type="curve" smooth="yes"/>
      <point x="85" y="300"/>
      <point x="78" y="307"/>
      <point x="78" y="318" type="curve" smooth="yes"/>
      <point x="78" y="367"/>
      <point x="182" y="387"/>
      <point x="258" y="395" type="curve"/>
      <point x="269" y="385"/>
      <point x="286" y="379"/>
      <point x="297" y="375" type="curve"/>
      <point x="292" y="372"/>
      <point x="288" y="369"/>
      <point x="284" y="366" type="curve"/>
      <point x="259" y="363"/>
      <point x="234" y="357"/>
      <point x="210" y="349" type="curve" smooth="yes"/>
      <point x="176" y="338"/>
      <point x="134" y="300"/>
    </contour>
    <contour>
      <point x="364" y="-18" type="curve" smooth="yes"/>
      <point x="349" y="-18"/>
      <point x="336" y="-17"/>
      <point x="325" y="-16" type="curve"/>
      <point x="370" y="41"/>
      <point x="391" y="112"/>
      <point x="391" y="187" type="curve" smooth="yes"/>
      <point x="391" y="259"/>
      <point x="286" y="252"/>
      <point x="286" y="294" type="curve" smooth="yes"/>
      <point x="286" y="338"/>
      <point x="295" y="338"/>
      <point x="328" y="371" type="curve"/>
      <point x="328" y="404"/>
      <point x="276" y="402"/>
      <point x="276" y="430" type="curve" smooth="yes"/>
      <point x="276" y="443"/>
      <point x="281" y="472"/>
      <point x="281" y="484" type="curve" smooth="yes"/>
      <point x="281" y="530"/>
      <point x="188" y="504"/>
      <point x="188" y="540" type="curve" smooth="yes"/>
      <point x="188" y="559"/>
      <point x="200" y="570"/>
      <point x="205" y="574" type="curve"/>
      <point x="310" y="676" type="line" smooth="yes"/>
      <point x="346" y="711"/>
      <point x="424" y="826"/>
      <point x="472" y="826" type="curve" smooth="yes"/>
      <point x="486" y="826"/>
      <point x="491" y="819"/>
      <point x="492" y="810" type="curve" smooth="yes"/>
      <point x="502" y="738" type="line" smooth="yes"/>
      <point x="508" y="692"/>
      <point x="571" y="670"/>
      <point x="571" y="622" type="curve" smooth="yes"/>
      <point x="571" y="558"/>
      <point x="503" y="514"/>
      <point x="503" y="445" type="curve" smooth="yes"/>
      <point x="503" y="373"/>
      <point x="535" y="304"/>
      <point x="535" y="229" type="curve" smooth="yes"/>
      <point x="535" y="161"/>
      <point x="526" y="97"/>
      <point x="483" y="3" type="curve"/>
      <point x="449" y="-14"/>
      <point x="402" y="-18"/>
    </contour>
    <contour>
      <point x="382" y="597" type="curve" smooth="yes"/>
      <point x="401" y="597"/>
      <point x="416" y="605"/>
      <point x="416" y="618" type="curve" smooth="yes"/>
      <point x="416" y="634"/>
      <point x="391" y="652"/>
      <point x="360" y="652" type="curve" smooth="yes"/>
      <point x="343" y="652"/>
      <point x="330" y="646"/>
      <point x="327" y="637" type="curve"/>
      <point x="325" y="634"/>
      <point x="325" y="633"/>
      <point x="325" y="631" type="curve" smooth="yes"/>
      <point x="325" y="615"/>
      <point x="350" y="597"/>
    </contour>
    <contour>
      <point x="468" y="637" type="curve"/>
      <point x="483" y="660" type="line"/>
      <point x="462" y="688"/>
      <point x="422" y="701"/>
      <point x="369" y="705" type="curve"/>
      <point x="367" y="675" type="line"/>
      <point x="408" y="673"/>
      <point x="441" y="661"/>
    </contour>
  </outline>
</glyph>
<glyph name="u14417" format="2">
  <advance width="1277"/>
  <unicode hex="14417"/>
  <outline>
    <contour>
      <point x="991" y="-48" type="curve" smooth="yes"/>
      <point x="1038" y="-48"/>
      <point x="1093" y="-42"/>
      <point x="1128" y="-25" type="curve"/>
      <point x="1174" y="54"/>
      <point x="1193" y="140"/>
      <point x="1193" y="230" type="curve" smooth="yes"/>
      <point x="1193" y="303"/>
      <point x="1159" y="373"/>
      <point x="1159" y="434" type="curve" smooth="yes"/>
      <point x="1159" y="510"/>
      <point x="1227" y="559"/>
      <point x="1227" y="626" type="curve" smooth="yes"/>
      <point x="1227" y="670"/>
      <point x="1167" y="702"/>
      <point x="1160" y="747" type="curve" smooth="yes"/>
      <point x="1150" y="808" type="line" smooth="yes"/>
      <point x="1147" y="825"/>
      <point x="1139" y="855"/>
      <point x="1101" y="855" type="curve" smooth="yes"/>
      <point x="1041" y="855"/>
      <point x="938" y="716"/>
      <point x="898" y="678" type="curve" smooth="yes"/>
      <point x="821" y="604" type="line" smooth="yes"/>
      <point x="795" y="579"/>
      <point x="786" y="557"/>
      <point x="786" y="537" type="curve" smooth="yes"/>
      <point x="786" y="484"/>
      <point x="880" y="499"/>
      <point x="880" y="479" type="curve" smooth="yes"/>
      <point x="880" y="460"/>
      <point x="876" y="425"/>
      <point x="876" y="413" type="curve" smooth="yes"/>
      <point x="876" y="394"/>
      <point x="907" y="381"/>
      <point x="925" y="375" type="curve"/>
      <point x="886" y="350"/>
      <point x="885" y="329"/>
      <point x="885" y="296" type="curve" smooth="yes"/>
      <point x="885" y="236"/>
      <point x="988" y="240"/>
      <point x="988" y="181" type="curve" smooth="yes"/>
      <point x="988" y="96"/>
      <point x="958" y="34"/>
      <point x="925" y="-7" type="curve"/>
      <point x="927" y="-44" type="line"/>
      <point x="944" y="-46"/>
      <point x="966" y="-48"/>
    </contour>
    <contour>
      <point x="451" y="-130" type="line"/>
      <point x="547" y="-130" type="line"/>
      <point x="547" y="250" type="line"/>
      <point x="451" y="250" type="line"/>
    </contour>
    <contour>
      <point x="481" y="-100" type="line"/>
      <point x="481" y="220" type="line"/>
      <point x="517" y="220" type="line"/>
      <point x="517" y="-100" type="line"/>
    </contour>
    <contour>
      <point x="286" y="-48" type="curve" smooth="yes"/>
      <point x="311" y="-48"/>
      <point x="333" y="-46"/>
      <point x="350" y="-44" type="curve"/>
      <point x="352" y="-7" type="line"/>
      <point x="319" y="34"/>
      <point x="289" y="96"/>
      <point x="289" y="181" type="curve" smooth="yes"/>
      <point x="289" y="240"/>
      <point x="392" y="236"/>
      <point x="392" y="296" type="curve" smooth="yes"/>
      <point x="392" y="329"/>
      <point x="391" y="350"/>
      <point x="352" y="375" type="curve"/>
      <point x="370" y="381"/>
      <point x="401" y="394"/>
      <point x="401" y="413" type="curve" smooth="yes"/>
      <point x="401" y="425"/>
      <point x="397" y="460"/>
      <point x="397" y="479" type="curve" smooth="yes"/>
      <point x="397" y="499"/>
      <point x="491" y="484"/>
      <point x="491" y="537" type="curve" smooth="yes"/>
      <point x="491" y="557"/>
      <point x="482" y="579"/>
      <point x="456" y="604" type="curve" smooth="yes"/>
      <point x="379" y="678" type="line" smooth="yes"/>
      <point x="339" y="716"/>
      <point x="236" y="855"/>
      <point x="176" y="855" type="curve" smooth="yes"/>
      <point x="138" y="855"/>
      <point x="130" y="825"/>
      <point x="127" y="808" type="curve" smooth="yes"/>
      <point x="117" y="747" type="line" smooth="yes"/>
      <point x="110" y="702"/>
      <point x="50" y="670"/>
      <point x="50" y="626" type="curve" smooth="yes"/>
      <point x="50" y="559"/>
      <point x="118" y="510"/>
      <point x="118" y="434" type="curve" smooth="yes"/>
      <point x="118" y="373"/>
      <point x="84" y="303"/>
      <point x="84" y="230" type="curve" smooth="yes"/>
      <point x="84" y="140"/>
      <point x="103" y="54"/>
      <point x="149" y="-25" type="curve"/>
      <point x="184" y="-42"/>
      <point x="239" y="-48"/>
    </contour>
    <contour>
      <point x="285" y="-18" type="curve" smooth="yes"/>
      <point x="247" y="-18"/>
      <point x="200" y="-14"/>
      <point x="166" y="3" type="curve"/>
      <point x="123" y="97"/>
      <point x="114" y="161"/>
      <point x="114" y="229" type="curve" smooth="yes"/>
      <point x="114" y="304"/>
      <point x="146" y="373"/>
      <point x="146" y="445" type="curve" smooth="yes"/>
      <point x="146" y="514"/>
      <point x="78" y="558"/>
      <point x="78" y="622" type="curve" smooth="yes"/>
      <point x="78" y="670"/>
      <point x="141" y="692"/>
      <point x="147" y="738" type="curve" smooth="yes"/>
      <point x="157" y="810" type="line" smooth="yes"/>
      <point x="158" y="819"/>
      <point x="163" y="826"/>
      <point x="177" y="826" type="curve" smooth="yes"/>
      <point x="225" y="826"/>
      <point x="303" y="711"/>
      <point x="339" y="676" type="curve" smooth="yes"/>
      <point x="444" y="574" type="line"/>
      <point x="449" y="570"/>
      <point x="461" y="559"/>
      <point x="461" y="540" type="curve" smooth="yes"/>
      <point x="461" y="504"/>
      <point x="368" y="530"/>
      <point x="368" y="484" type="curve" smooth="yes"/>
      <point x="368" y="472"/>
      <point x="373" y="443"/>
      <point x="373" y="430" type="curve" smooth="yes"/>
      <point x="373" y="402"/>
      <point x="321" y="404"/>
      <point x="321" y="371" type="curve"/>
      <point x="357" y="333"/>
      <point x="363" y="338"/>
      <point x="363" y="294" type="curve" smooth="yes"/>
      <point x="363" y="252"/>
      <point x="258" y="259"/>
      <point x="258" y="187" type="curve" smooth="yes"/>
      <point x="258" y="112"/>
      <point x="279" y="41"/>
      <point x="324" y="-16" type="curve"/>
      <point x="313" y="-17"/>
      <point x="300" y="-18"/>
    </contour>
    <contour>
      <point x="591" y="-130" type="line"/>
      <point x="687" y="-130" type="line"/>
      <point x="687" y="250" type="line"/>
      <point x="591" y="250" type="line"/>
    </contour>
    <contour>
      <point x="621" y="-100" type="line"/>
      <point x="621" y="220" type="line"/>
      <point x="657" y="220" type="line"/>
      <point x="657" y="-100" type="line"/>
    </contour>
    <contour>
      <point x="731" y="-130" type="line"/>
      <point x="827" y="-130" type="line"/>
      <point x="827" y="250" type="line"/>
      <point x="731" y="250" type="line"/>
    </contour>
    <contour>
      <point x="761" y="-100" type="line"/>
      <point x="761" y="220" type="line"/>
      <point x="797" y="220" type="line"/>
      <point x="797" y="-100" type="line"/>
    </contour>
    <contour>
      <point x="181" y="637" type="line"/>
      <point x="208" y="661"/>
      <point x="241" y="673"/>
      <point x="282" y="675" type="curve"/>
      <point x="280" y="705" type="line"/>
      <point x="227" y="701"/>
      <point x="187" y="688"/>
      <point x="166" y="660" type="curve"/>
    </contour>
    <contour>
      <point x="267" y="597" type="curve" smooth="yes"/>
      <point x="299" y="597"/>
      <point x="324" y="615"/>
      <point x="324" y="631" type="curve" smooth="yes"/>
      <point x="324" y="633"/>
      <point x="324" y="634"/>
      <point x="322" y="637" type="curve"/>
      <point x="319" y="646"/>
      <point x="306" y="652"/>
      <point x="289" y="652" type="curve" smooth="yes"/>
      <point x="258" y="652"/>
      <point x="233" y="634"/>
      <point x="233" y="618" type="curve" smooth="yes"/>
      <point x="233" y="605"/>
      <point x="248" y="597"/>
    </contour>
    <contour>
      <point x="638" y="435" type="curve" smooth="yes"/>
      <point x="697" y="435"/>
      <point x="745" y="483"/>
      <point x="745" y="541" type="curve" smooth="yes"/>
      <point x="745" y="600"/>
      <point x="697" y="648"/>
      <point x="638" y="648" type="curve" smooth="yes"/>
      <point x="580" y="648"/>
      <point x="532" y="600"/>
      <point x="532" y="541" type="curve" smooth="yes"/>
      <point x="532" y="483"/>
      <point x="580" y="435"/>
    </contour>
    <contour>
      <point x="638" y="465" type="curve" smooth="yes"/>
      <point x="594" y="465"/>
      <point x="562" y="497"/>
      <point x="562" y="541" type="curve" smooth="yes"/>
      <point x="562" y="585"/>
      <point x="594" y="618"/>
      <point x="638" y="618" type="curve" smooth="yes"/>
      <point x="682" y="618"/>
      <point x="715" y="585"/>
      <point x="715" y="541" type="curve" smooth="yes"/>
      <point x="715" y="497"/>
      <point x="682" y="465"/>
    </contour>
    <contour>
      <point x="992" y="-18" type="curve" smooth="yes"/>
      <point x="977" y="-18"/>
      <point x="964" y="-17"/>
      <point x="953" y="-16" type="curve"/>
      <point x="998" y="41"/>
      <point x="1019" y="112"/>
      <point x="1019" y="187" type="curve" smooth="yes"/>
      <point x="1019" y="259"/>
      <point x="914" y="252"/>
      <point x="914" y="294" type="curve" smooth="yes"/>
      <point x="914" y="338"/>
      <point x="920" y="333"/>
      <point x="956" y="371" type="curve"/>
      <point x="956" y="404"/>
      <point x="904" y="402"/>
      <point x="904" y="430" type="curve" smooth="yes"/>
      <point x="904" y="443"/>
      <point x="909" y="472"/>
      <point x="909" y="484" type="curve" smooth="yes"/>
      <point x="909" y="530"/>
      <point x="816" y="504"/>
      <point x="816" y="540" type="curve" smooth="yes"/>
      <point x="816" y="559"/>
      <point x="828" y="570"/>
      <point x="833" y="574" type="curve"/>
      <point x="938" y="676" type="line" smooth="yes"/>
      <point x="974" y="711"/>
      <point x="1052" y="826"/>
      <point x="1100" y="826" type="curve" smooth="yes"/>
      <point x="1114" y="826"/>
      <point x="1119" y="819"/>
      <point x="1120" y="810" type="curve" smooth="yes"/>
      <point x="1130" y="738" type="line" smooth="yes"/>
      <point x="1136" y="692"/>
      <point x="1199" y="670"/>
      <point x="1199" y="622" type="curve" smooth="yes"/>
      <point x="1199" y="558"/>
      <point x="1131" y="514"/>
      <point x="1131" y="445" type="curve" smooth="yes"/>
      <point x="1131" y="373"/>
      <point x="1163" y="304"/>
      <point x="1163" y="229" type="curve" smooth="yes"/>
      <point x="1163" y="161"/>
      <point x="1154" y="97"/>
      <point x="1111" y="3" type="curve"/>
      <point x="1077" y="-14"/>
      <point x="1030" y="-18"/>
    </contour>
    <contour>
      <point x="1010" y="597" type="curve" smooth="yes"/>
      <point x="1029" y="597"/>
      <point x="1044" y="605"/>
      <point x="1044" y="618" type="curve" smooth="yes"/>
      <point x="1044" y="634"/>
      <point x="1019" y="652"/>
      <point x="988" y="652" type="curve" smooth="yes"/>
      <point x="971" y="652"/>
      <point x="958" y="646"/>
      <point x="955" y="637" type="curve"/>
      <point x="953" y="634"/>
      <point x="953" y="633"/>
      <point x="953" y="631" type="curve" smooth="yes"/>
      <point x="953" y="615"/>
      <point x="978" y="597"/>
    </contour>
    <contour>
      <point x="1096" y="637" type="curve"/>
      <point x="1111" y="660" type="line"/>
      <point x="1090" y="688"/>
      <point x="1050" y="701"/>
      <point x="997" y="705" type="curve"/>
      <point x="995" y="675" type="line"/>
      <point x="1036" y="673"/>
      <point x="1069" y="661"/>
    </contour>
  </outline>
</glyph>
